  0
SECTION
  2
HEADER
  9
$ACADVER
  1
AC1015
  9
$ACADMAINTVER
 70
     6
  9
$DWGCODEPAGE
  3
ANSI_1252
  9
$INSBASE
 10
0.0
 20
0.0
 30
0.0
  9
$EXTMIN
 10
-11.9951346306
 20
-4.0
 30
0.0
  9
$EXTMAX
 10
11.9951346306
 20
5.4003068477
 30
0.0
  9
$LIMMIN
 10
0.0
 20
0.0
  9
$LIMMAX
 10
12.0
 20
9.0
  9
$ORTHOMODE
 70
     0
  9
$REGENMODE
 70
     1
  9
$FILLMODE
 70
     1
  9
$QTEXTMODE
 70
     0
  9
$MIRRTEXT
 70
     1
  9
$LTSCALE
 40
1.0
  9
$ATTMODE
 70
     1
  9
$TEXTSIZE
 40
0.1377952756
  9
$TRACEWID
 40
0.05
  9
$TEXTSTYLE
  7
Standard
  9
$CLAYER
  8
0
  9
$CELTYPE
  6
ByLayer
  9
$CECOLOR
 62
   256
  9
$CELTSCALE
 40
1.0
  9
$DISPSILH
 70
     0
  9
$DIMSCALE
 40
1.0
  9
$DIMASZ
 40
0.13
  9
$DIMEXO
 40
0.0393700787
  9
$DIMDLI
 40
0.38
  9
$DIMRND
 40
0.0
  9
$DIMDLE
 40
0.0
  9
$DIMEXE
 40
0.0393700787
  9
$DIMTP
 40
0.0
  9
$DIMTM
 40
0.0
  9
$DIMTXT
 40
0.1377952756
  9
$DIMCEN
 40
0.09
  9
$DIMTSZ
 40
0.0
  9
$DIMTOL
 70
     0
  9
$DIMLIM
 70
     0
  9
$DIMTIH
 70
     1
  9
$DIMTOH
 70
     1
  9
$DIMSE1
 70
     0
  9
$DIMSE2
 70
     0
  9
$DIMTAD
 70
     1
  9
$DIMZIN
 70
     0
  9
$DIMBLK
  1

  9
$DIMASO
 70
     1
  9
$DIMSHO
 70
     1
  9
$DIMPOST
  1

  9
$DIMAPOST
  1

  9
$DIMALT
 70
     0
  9
$DIMALTD
 70
     2
  9
$DIMALTF
 40
25.4
  9
$DIMLFAC
 40
1.0
  9
$DIMTOFL
 70
     0
  9
$DIMTVP
 40
0.0
  9
$DIMTIX
 70
     0
  9
$DIMSOXD
 70
     0
  9
$DIMSAH
 70
     0
  9
$DIMBLK1
  1

  9
$DIMBLK2
  1

  9
$DIMSTYLE
  2
Standard
  9
$DIMCLRD
 70
     0
  9
$DIMCLRE
 70
     0
  9
$DIMCLRT
 70
     0
  9
$DIMTFAC
 40
1.0
  9
$DIMGAP
 40
0.06
  9
$DIMJUST
 70
     0
  9
$DIMSD1
 70
     0
  9
$DIMSD2
 70
     0
  9
$DIMTOLJ
 70
     1
  9
$DIMTZIN
 70
     0
  9
$DIMALTZ
 70
     0
  9
$DIMALTTZ
 70
     0
  9
$DIMUPT
 70
     0
  9
$DIMDEC
 70
     2
  9
$DIMTDEC
 70
     2
  9
$DIMALTU
 70
     2
  9
$DIMALTTD
 70
     2
  9
$DIMTXSTY
  7
Standard
  9
$DIMAUNIT
 70
     0
  9
$DIMADEC
 70
     2
  9
$DIMALTRND
 40
0.0
  9
$DIMAZIN
 70
     0
  9
$DIMDSEP
 70
    46
  9
$DIMATFIT
 70
     3
  9
$DIMFRAC
 70
     0
  9
$DIMLDRBLK
  1

  9
$DIMLUNIT
 70
     2
  9
$DIMLWD
 70
    -2
  9
$DIMLWE
 70
    -2
  9
$DIMTMOVE
 70
     0
  9
$LUNITS
 70
     2
  9
$LUPREC
 70
     8
  9
$SKETCHINC
 40
0.1
  9
$FILLETRAD
 40
0.5
  9
$AUNITS
 70
     0
  9
$AUPREC
 70
     2
  9
$MENU
  1
.
  9
$ELEVATION
 40
0.0
  9
$PELEVATION
 40
0.0
  9
$THICKNESS
 40
0.0
  9
$LIMCHECK
 70
     0
  9
$CHAMFERA
 40
0.0
  9
$CHAMFERB
 40
0.0
  9
$CHAMFERC
 40
0.0
  9
$CHAMFERD
 40
0.0
  9
$SKPOLY
 70
     0
  9
$TDCREATE
 40
2457122.930129549
  9
$TDUCREATE
 40
2457123.138462882
  9
$TDUPDATE
 40
2457122.930357002
  9
$TDUUPDATE
 40
2457123.138690336
  9
$TDINDWG
 40
0.0000000116
  9
$TDUSRTIMER
 40
0.0000000116
  9
$USRTIMER
 70
     1
  9
$ANGBASE
 50
0.0
  9
$ANGDIR
 70
     0
  9
$PDMODE
 70
     0
  9
$PDSIZE
 40
-1.0
  9
$PLINEWID
 40
0.0
  9
$SPLFRAME
 70
     0
  9
$SPLINETYPE
 70
     6
  9
$SPLINESEGS
 70
     8
  9
$HANDSEED
  5
FF
  9
$SURFTAB1
 70
     6
  9
$SURFTAB2
 70
     6
  9
$SURFTYPE
 70
     6
  9
$SURFU
 70
     6
  9
$SURFV
 70
     6
  9
$UCSBASE
  2

  9
$UCSNAME
  2

  9
$UCSORG
 10
0.0
 20
0.0
 30
0.0
  9
$UCSXDIR
 10
1.0
 20
0.0
 30
0.0
  9
$UCSYDIR
 10
0.0
 20
1.0
 30
0.0
  9
$UCSORTHOREF
  2

  9
$UCSORTHOVIEW
 70
     0
  9
$UCSORGTOP
 10
0.0
 20
0.0
 30
0.0
  9
$UCSORGBOTTOM
 10
0.0
 20
0.0
 30
0.0
  9
$UCSORGLEFT
 10
0.0
 20
0.0
 30
0.0
  9
$UCSORGRIGHT
 10
0.0
 20
0.0
 30
0.0
  9
$UCSORGFRONT
 10
0.0
 20
0.0
 30
0.0
  9
$UCSORGBACK
 10
0.0
 20
0.0
 30
0.0
  9
$PUCSBASE
  2

  9
$PUCSNAME
  2

  9
$PUCSORG
 10
0.0
 20
0.0
 30
0.0
  9
$PUCSXDIR
 10
1.0
 20
0.0
 30
0.0
  9
$PUCSYDIR
 10
0.0
 20
1.0
 30
0.0
  9
$PUCSORTHOREF
  2

  9
$PUCSORTHOVIEW
 70
     0
  9
$PUCSORGTOP
 10
0.0
 20
0.0
 30
0.0
  9
$PUCSORGBOTTOM
 10
0.0
 20
0.0
 30
0.0
  9
$PUCSORGLEFT
 10
0.0
 20
0.0
 30
0.0
  9
$PUCSORGRIGHT
 10
0.0
 20
0.0
 30
0.0
  9
$PUCSORGFRONT
 10
0.0
 20
0.0
 30
0.0
  9
$PUCSORGBACK
 10
0.0
 20
0.0
 30
0.0
  9
$USERI1
 70
     0
  9
$USERI2
 70
     0
  9
$USERI3
 70
     0
  9
$USERI4
 70
     0
  9
$USERI5
 70
     0
  9
$USERR1
 40
0.0
  9
$USERR2
 40
0.0
  9
$USERR3
 40
0.0
  9
$USERR4
 40
0.0
  9
$USERR5
 40
0.0
  9
$WORLDVIEW
 70
     1
  9
$SHADEDGE
 70
     3
  9
$SHADEDIF
 70
    70
  9
$TILEMODE
 70
     1
  9
$MAXACTVP
 70
    64
  9
$PINSBASE
 10
0.0
 20
0.0
 30
0.0
  9
$PLIMCHECK
 70
     0
  9
$PEXTMIN
 10
1.0000000000E+20
 20
1.0000000000E+20
 30
1.0000000000E+20
  9
$PEXTMAX
 10
-1.0000000000E+20
 20
-1.0000000000E+20
 30
-1.0000000000E+20
  9
$PLIMMIN
 10
0.0
 20
0.0
  9
$PLIMMAX
 10
12.0
 20
9.0
  9
$UNITMODE
 70
     0
  9
$VISRETAIN
 70
     1
  9
$PLINEGEN
 70
     0
  9
$PSLTSCALE
 70
     1
  9
$TREEDEPTH
 70
  3020
  9
$CMLSTYLE
  2
Standard
  9
$CMLJUST
 70
     0
  9
$CMLSCALE
 40
1.0
  9
$PROXYGRAPHICS
 70
     1
  9
$MEASUREMENT
 70
     0
  9
$CELWEIGHT
370
    -1
  9
$ENDCAPS
280
     0
  9
$JOINSTYLE
280
     0
  9
$LWDISPLAY
290
     1
  9
$INSUNITS
 70
     1
  9
$HYPERLINKBASE
  1

  9
$STYLESHEET
  1

  9
$XEDIT
290
     1
  9
$CEPSNTYPE
380
     0
  9
$PSTYLEMODE
290
     1
  9
$FINGERPRINTGUID
  2
{5338839B-A2F6-47E3-8BFC-9DF30DBAF89C}
  9
$VERSIONGUID
  2
{FAEB1C32-E019-11D5-929B-00C0DF256EC4}
  9
$EXTNAMES
290
     1
  9
$PSVPSCALE
 40
0.0
  9
$OLESTARTUP
290
     0
  0
ENDSEC
  0
SECTION
  2
CLASSES
  0
CLASS
  1
ACDBDICTIONARYWDFLT
  2
AcDbDictionaryWithDefault
  3
ObjectDBX Classes
 90
        0
280
     0
281
     0
  0
CLASS
  1
VISUALSTYLE
  2
AcDbVisualStyle
  3
ObjectDBX Classes
 90
     4095
280
     0
281
     0
  0
CLASS
  1
MATERIAL
  2
AcDbMaterial
  3
ObjectDBX Classes
 90
     1153
280
     0
281
     0
  0
CLASS
  1
SCALE
  2
AcDbScale
  3
ObjectDBX Classes
 90
     1153
280
     0
281
     0
  0
CLASS
  1
SUN
  2
AcDbSun
  3
SCENEOE
 90
     1153
280
     0
281
     0
  0
CLASS
  1
ACDBPLACEHOLDER
  2
AcDbPlaceHolder
  3
ObjectDBX Classes
 90
        0
280
     0
281
     0
  0
CLASS
  1
LAYOUT
  2
AcDbLayout
  3
ObjectDBX Classes
 90
        0
280
     0
281
     0
  0
ENDSEC
  0
SECTION
  2
TABLES
  0
TABLE
  2
VPORT
  5
8
330
0
100
AcDbSymbolTable
 70
     1
  0
VPORT
  5
29
330
8
100
AcDbSymbolTableRecord
100
AcDbViewportTableRecord
  2
*Active
 70
     0
 10
0.0
 20
0.0
 11
1.0
 21
1.0
 12
0.0
 22
0.7001534238
 13
0.0
 23
0.0
 14
0.5
 24
0.5
 15
0.5
 25
0.5
 16
0.0
 26
0.0
 36
1.0
 17
0.0
 27
0.0
 37
0.0
 40
9.5883129846
 41
2.5520729961
 42
50.0
 43
0.0
 44
0.0
 50
0.0
 51
0.0
 71
     0
 72
   100
 73
     1
 74
     3
 75
     0
 76
     0
 77
     0
 78
     0
281
     0
 65
     1
110
0.0
120
0.0
130
0.0
111
1.0
121
0.0
131
0.0
112
0.0
122
1.0
132
0.0
 79
     0
146
0.0
  0
ENDTAB
  0
TABLE
  2
LTYPE
  5
5
330
0
100
AcDbSymbolTable
 70
     6
  0
LTYPE
  5
14
330
5
100
AcDbSymbolTableRecord
100
AcDbLinetypeTableRecord
  2
ByBlock
 70
     0
  3

 72
    65
 73
     0
 40
0.0
  0
LTYPE
  5
15
330
5
100
AcDbSymbolTableRecord
100
AcDbLinetypeTableRecord
  2
ByLayer
 70
     0
  3

 72
    65
 73
     0
 40
0.0
  0
LTYPE
  5
16
330
5
100
AcDbSymbolTableRecord
100
AcDbLinetypeTableRecord
  2
Continuous
 70
     0
  3
Solid line
 72
    65
 73
     0
 40
0.0
  0
LTYPE
  5
6A
330
5
100
AcDbSymbolTableRecord
100
AcDbLinetypeTableRecord
  2
HIDDEN
 70
     0
  3
Hidden __ __ __ __ __ __ __ __ __ __ __ __ __ __
 72
    65
 73
     2
 40
0.075
 49
0.05
 74
     0
 49
-0.025
 74
     0
  0
LTYPE
  5
6B
330
5
100
AcDbSymbolTableRecord
100
AcDbLinetypeTableRecord
  2
PHANTOM
 70
     0
  3
Phantom ______  __  __  ______  __  __  ______
 72
    65
 73
     6
 40
0.5
 49
0.25
 74
     0
 49
-0.05
 74
     0
 49
0.05
 74
     0
 49
-0.05
 74
     0
 49
0.05
 74
     0
 49
-0.05
 74
     0
  0
LTYPE
  5
6C
330
5
100
AcDbSymbolTableRecord
100
AcDbLinetypeTableRecord
  2
CENTER
 70
     0
  3
Center ____ _ ____ _ ____ _ ____ _ ____ _ ____
 72
    65
 73
     4
 40
0.4
 49
0.25
 74
     0
 49
-0.05
 74
     0
 49
0.05
 74
     0
 49
-0.05
 74
     0
  0
LTYPE
  5
6D
330
5
100
AcDbSymbolTableRecord
100
AcDbLinetypeTableRecord
  2
CENTERX2
 70
     0
  3
Center (2x) ________  __  ________  __  _____
 72
    65
 73
     4
 40
0.8
 49
0.5
 74
     0
 49
-0.1
 74
     0
 49
0.1
 74
     0
 49
-0.1
 74
     0
  0
LTYPE
  5
6E
330
5
100
AcDbSymbolTableRecord
100
AcDbLinetypeTableRecord
  2
DOT2
 70
     0
  3
Dot (.5x) ........................................
 72
    65
 73
     2
 40
0.025
 49
0.0
 74
     0
 49
-0.025
 74
     0
  0
ENDTAB
  0
TABLE
  2
LAYER
  5
2
330
0
100
AcDbSymbolTable
 70
     1
  0
LAYER
  5
10
330
2
100
AcDbSymbolTableRecord
100
AcDbLayerTableRecord
  2
0
 70
     0
 62
     7
  6
Continuous
370
    -3
390
F
  0
ENDTAB
  0
TABLE
  2
STYLE
  5
3
330
0
100
AcDbSymbolTable
 70
     2
  0
STYLE
  5
11
330
3
100
AcDbSymbolTableRecord
100
AcDbTextStyleTableRecord
  2
Standard
 70
     0
 40
0.0
 41
1.0
 50
0.0
 71
     0
 42
0.1377952756
  3
txt
  4

  0
STYLE
  5
FC
330
3
100
AcDbSymbolTableRecord
100
AcDbTextStyleTableRecord
  2
SLDTEXTSTYLE0
 70
     0
 40
0.0
 41
0.7
 50
0.0
 71
     0
 42
0.1377952756
  3
TXT
  4

  0
ENDTAB
  0
TABLE
  2
VIEW
  5
6
330
0
100
AcDbSymbolTable
 70
     0
  0
ENDTAB
  0
TABLE
  2
UCS
  5
7
330
0
100
AcDbSymbolTable
 70
     0
  0
ENDTAB
  0
TABLE
  2
APPID
  5
9
330
0
100
AcDbSymbolTable
 70
     1
  0
APPID
  5
12
330
9
100
AcDbSymbolTableRecord
100
AcDbRegAppTableRecord
  2
ACAD
 70
     0
  0
ENDTAB
  0
TABLE
  2
DIMSTYLE
  5
A
330
0
100
AcDbSymbolTable
 70
     1
100
AcDbDimStyleTable
  0
DIMSTYLE
105
27
330
A
100
AcDbSymbolTableRecord
100
AcDbDimStyleTableRecord
  2
Standard
 70
     0
178
     0
340
11
  0
ENDTAB
  0
TABLE
  2
BLOCK_RECORD
  5
1
330
0
100
AcDbSymbolTable
 70
     1
  0
BLOCK_RECORD
  5
1F
330
1
100
AcDbSymbolTableRecord
100
AcDbBlockTableRecord
  2
*Model_Space
340
22
  0
BLOCK_RECORD
  5
1B
330
1
100
AcDbSymbolTableRecord
100
AcDbBlockTableRecord
  2
*Paper_Space
340
1E
  0
BLOCK_RECORD
  5
23
330
1
100
AcDbSymbolTableRecord
100
AcDbBlockTableRecord
  2
*Paper_Space0
340
26
  0
ENDTAB
  0
ENDSEC
  0
SECTION
  2
BLOCKS
  0
BLOCK
  5
20
330
1F
100
AcDbEntity
  8
0
100
AcDbBlockBegin
  2
*Model_Space
 70
     0
 10
0.0
 20
0.0
 30
0.0
  3
*Model_Space
  1
*Model_Space
  0
ENDBLK
  5
21
330
1F
100
AcDbEntity
  8
0
100
AcDbBlockEnd
  0
BLOCK
  5
1C
330
1B
100
AcDbEntity
 67
     1
  8
0
100
AcDbBlockBegin
  2
*Paper_Space
 70
     0
 10
0.0
 20
0.0
 30
0.0
  3
*Paper_Space
  1
*Paper_Space
  0
ENDBLK
  5
1D
330
1B
100
AcDbEntity
 67
     1
  8
0
100
AcDbBlockEnd
  0
BLOCK
  5
24
330
23
100
AcDbEntity
  8
0
100
AcDbBlockBegin
  2
*Paper_Space0
 70
     0
 10
0.0
 20
0.0
 30
0.0
  3
*Paper_Space0
  1
*Paper_Space0
  0
ENDBLK
  5
25
330
23
100
AcDbEntity
  8
0
100
AcDbBlockEnd
  0
ENDSEC
  0
SECTION
  2
ENTITIES
  0
CIRCLE
  5
6F
330
1F
100
AcDbEntity
  8
0
  6
Continuous
 62
     7
370
    15
100
AcDbCircle
 10
11.1120828397
 20
-0.2237352023
 30
0.0
 40
0.0625000000000006
  0
CIRCLE
  5
70
330
1F
100
AcDbEntity
  8
0
  6
Continuous
 62
     7
370
    15
100
AcDbCircle
 10
9.6483047672
 20
-1.4584134175
 30
0.0
 40
0.0624999999999972
  0
CIRCLE
  5
71
330
1F
100
AcDbEntity
  8
0
  6
Continuous
 62
     7
370
    15
100
AcDbCircle
 10
-11.1120828397
 20
-0.2237352023
 30
0.0
 40
0.0624999999999999
  0
CIRCLE
  5
72
330
1F
100
AcDbEntity
  8
0
  6
Continuous
 62
     7
370
    15
100
AcDbCircle
 10
-9.6483047672
 20
-1.4584134175
 30
0.0
 40
0.0625000000000014
  0
CIRCLE
  5
73
330
1F
100
AcDbEntity
  8
0
  6
Continuous
 62
     7
370
    15
100
AcDbCircle
 10
-0.63
 20
-0.355
 30
0.0
 40
0.0650000000000001
  0
CIRCLE
  5
74
330
1F
100
AcDbEntity
  8
0
  6
Continuous
 62
     7
370
    15
100
AcDbCircle
 10
0.63
 20
-0.355
 30
0.0
 40
0.0650000000000001
  0
SPLINE
  5
75
330
1F
100
AcDbEntity
  8
0
  6
Continuous
 62
     7
370
    15
100
AcDbSpline
210
0.0
220
0.0
230
1.0
 70
     8
 71
     3
 72
    20
 73
    16
 74
     0
 42
0.000000001
 43
0.00000001
 40
0.0
 40
0.0
 40
0.0
 40
0.0
 40
0.0731983768951161
 40
0.143193597788479
 40
0.2100442445741374
 40
0.2738175655111112
 40
0.3345910252687977
 40
0.3924541380301066
 40
0.4475106152680839
 40
0.4998808454871987
 40
0.5921137354181911
 40
0.6878461340115615
 40
0.7874973798139672
 40
0.8914393921747914
 40
1.0
 40
1.0
 40
1.0
 40
1.0
 10
4.766726180380358
 20
5.302464059641417
 30
0.0
 10
4.762385985270102
 20
5.306290709294991
 30
0.0
 10
4.753895521692853
 20
5.313776554673185
 30
0.0
 10
4.741071471438167
 20
5.324326547847122
 30
0.0
 10
4.728541841102678
 20
5.334050102678954
 30
0.0
 10
4.716282498195326
 20
5.342920569988148
 30
0.0
 10
4.704299433854806
 20
5.350945452070353
 30
0.0
 10
4.692589536712135
 20
5.358120474968759
 30
0.0
 10
4.681156994057731
 20
5.364455343793477
 30
0.0
 10
4.666973605744151
 20
5.371390782957468
 30
0.0
 10
4.649381770591795
 20
5.378610406453245
 30
0.0
 10
4.627808826984503
 20
5.385833805151538
 30
0.0
 10
4.604919711233218
 20
5.391875015962621
 30
0.0
 10
4.580735032515135
 20
5.39685417885075
 30
0.0
 10
4.564090286175211
 20
5.399139402158161
 30
0.0
 10
4.555587032059205
 20
5.400306847675076
 30
0.0
  0
SPLINE
  5
7F
330
1F
100
AcDbEntity
  8
0
  6
Continuous
 62
     7
370
    15
100
AcDbSpline
210
0.0
220
0.0
230
1.0
 70
     8
 71
     3
 72
    16
 73
    12
 74
     0
 42
0.000000001
 43
0.00000001
 40
0.0
 40
0.0
 40
0.0
 40
0.0
 40
0.0900514376142176
 40
0.1853448442355718
 40
0.2858923188086877
 40
0.3917041579807502
 40
0.5027891945218212
 40
0.6191550604194368
 40
0.740808393778154
 40
0.8677550032519241
 40
1.0
 40
1.0
 40
1.0
 40
1.0
 10
8.135399285619936
 20
1.190165861806343
 30
0.0
 10
8.129139009553088
 20
1.184997810940168
 30
0.0
 10
8.116254041547888
 20
1.174360872672773
 30
0.0
 10
8.096126397531206
 20
1.158263608687883
 30
0.0
 10
8.074727519876962
 20
1.141484171118115
 30
0.0
 10
8.052035570687673
 20
1.124048729856115
 30
0.0
 10
8.028056613708829
 20
1.105949942047643
 30
0.0
 10
8.002789348287289
 20
1.087189187967509
 30
0.0
 10
7.976231849277301
 20
1.06776923846161
 30
0.0
 10
7.948393419584099
 20
1.047676868763307
 30
0.0
 10
7.929344951411228
 20
1.034145980719814
 30
0.0
 10
7.919626023208661
 20
1.027242237688187
 30
0.0
  0
SPLINE
  5
81
330
1F
100
AcDbEntity
  8
0
  6
Continuous
 62
     7
370
    15
100
AcDbSpline
210
0.0
220
0.0
230
1.0
 70
     8
 71
     3
 72
    13
 73
     9
 74
     0
 42
0.000000001
 43
0.00000001
 40
0.0
 40
0.0
 40
0.0
 40
0.0
 40
0.1976281714652572
 40
0.3828412560534872
 40
0.5556583284777803
 40
0.716102884672578
 40
0.8642043092991438
 40
1.0
 40
1.0
 40
1.0
 40
1.0
 10
8.953434470339978
 20
1.899246534200347
 30
0.0
 10
8.940807315508085
 20
1.886678844252317
 30
0.0
 10
8.916346249151085
 20
1.862332972053421
 30
0.0
 10
8.880434439169733
 20
1.827411786570805
 30
0.0
 10
8.846598566726938
 20
1.795167169312798
 30
0.0
 10
8.814797850724183
 20
1.765642241356188
 30
0.0
 10
8.78509368171142
 20
1.738765700009881
 30
0.0
 10
8.765729118201898
 20
1.72203225120857
 30
0.0
 10
8.756466522229895
 20
1.714028188767988
 30
0.0
  0
SPLINE
  5
87
330
1F
100
AcDbEntity
  8
0
  6
Continuous
 62
     7
370
    15
100
AcDbSpline
210
0.0
220
0.0
230
1.0
 70
     8
 71
     3
 72
    23
 73
    19
 74
     0
 42
0.000000001
 43
0.00000001
 40
0.0
 40
0.0
 40
0.0
 40
0.0
 40
0.099882637835453
 40
0.1997502015571894
 40
0.2996127400687066
 40
0.3994803037904441
 40
0.4993629416258897
 40
0.5492455162946587
 40
0.5979599708120232
 40
0.645592749953378
 40
0.6922363129069271
 40
0.7379891164028937
 40
0.7829554686781974
 40
0.8272452349071938
 40
0.8709733802458521
 40
0.9142593449846043
 40
0.9572262571198475
 40
1.0
 40
1.0
 40
1.0
 40
1.0
 10
11.01310423837237
 20
-0.9613383689364461
 30
0.0
 10
11.02016347300645
 20
-0.9555607229017771
 30
0.0
 10
11.03428087690722
 20
-0.9440063027847143
 30
0.0
 10
11.05567288106205
 20
-0.9269426969844778
 30
0.0
 10
11.077230509639
 20
-0.910092417902022
 30
0.0
 10
11.09892677547392
 20
-0.8934163432430879
 30
0.0
 10
11.1172464367869
 20
-0.8798468393414434
 30
0.0
 10
11.13165932583243
 20
-0.8688483636932474
 30
0.0
 10
11.14187088803302
 20
-0.8602333792282916
 30
0.0
 10
11.15150116116745
 20
-0.8514076708378725
 30
0.0
 10
11.16052929942003
 20
-0.8423433349461443
 30
0.0
 10
11.16896038680935
 20
-0.8330474444305465
 30
0.0
 10
11.17679309949195
 20
-0.8235181910522288
 30
0.0
 10
11.18402644008088
 20
-0.8137555809231315
 30
0.0
 10
11.19066407910124
 20
-0.8037612163407317
 30
0.0
 10
11.1966909499091
 20
-0.7935290047893709
 30
0.0
 10
11.20216141456208
 20
-0.7830820227162618
 30
0.0
 10
11.20530646795078
 20
-0.7759087011780186
 30
0.0
 10
11.20687545182393
 20
-0.7723301209698501
 30
0.0
  0
SPLINE
  5
89
330
1F
100
AcDbEntity
  8
0
  6
Continuous
 62
     7
370
    15
100
AcDbSpline
210
0.0
220
0.0
230
1.0
 70
     8
 71
     3
 72
    27
 73
    23
 74
     0
 42
0.000000001
 43
0.00000001
 40
0.0
 40
0.0
 40
0.0
 40
0.0
 40
0.0301794226918386
 40
0.0610290477102006
 40
0.0926023488095512
 40
0.1249492109389937
 40
0.1581160287801198
 40
0.192145843510257
 40
0.2270785065092797
 40
0.2629508603017607
 40
0.2997969287188639
 40
0.3376481099125606
 40
0.3765333673566371
 40
0.4164794152713165
 40
0.4575108959938788
 40
0.4996505476932555
 40
0.5830609934599266
 40
0.6664487956903782
 40
0.7498252738466262
 40
0.8332017520028769
 40
0.9165895542333261
 40
0.9999999999999999
 40
0.9999999999999999
 40
0.9999999999999999
 40
0.9999999999999999
 10
10.17306700469262
 20
-1.64433441748201
 30
0.0
 10
10.17572189659886
 20
-1.643611884558518
 30
0.0
 10
10.18109063828972
 20
-1.642150773234083
 30
0.0
 10
10.18910617954411
 20
-1.639491715505469
 30
0.0
 10
10.19719956536118
 20
-1.636466065268334
 30
0.0
 10
10.20536197604408
 20
-1.633039729784906
 30
0.0
 10
10.2135959194643
 20
-1.629222276015535
 30
0.0
 10
10.2219007659454
 20
-1.62501113013517
 30
0.0
 10
10.23027676409865
 20
-1.620407078414247
 30
0.0
 10
10.23872390993606
 20
-1.615409945657321
 30
0.0
 10
10.24724230201166
 20
-1.610019850753489
 30
0.0
 10
10.25583187487133
 20
-1.604236662729409
 30
0.0
 10
10.26449311721427
 20
-1.598060917172502
 30
0.0
 10
10.27322436483297
 20
-1.591490598369261
 30
0.0
 10
10.28203229403377
 20
-1.584533556632633
 30
0.0
 10
10.29370363472907
 20
-1.574818146862371
 30
0.0
 10
10.30813885452854
 20
-1.562392710559163
 30
0.0
 10
10.32528968750845
 20
-1.547361904078008
 30
0.0
 10
10.34225176830494
 20
-1.532122556263101
 30
0.0
 10
10.35903447594219
 20
-1.516686314212935
 30
0.0
 10
10.37565095341099
 20
-1.501066121458124
 30
0.0
 10
10.38657449134047
 20
-1.490489649684366
 30
0.0
 10
10.39203700176241
 20
-1.485200695898094
 30
0.0
  0
LWPOLYLINE
  5
8E
330
1F
100
AcDbEntity
  8
0
  6
Continuous
 62
     7
370
    15
100
AcDbPolyline
 90
       16
 70
   128
 43
0.0
 10
5.6895082733
 20
-2.8462371182
 10
5.6816011838
 20
-2.7889968779
 10
5.661937373
 20
-2.7396224079
 10
5.6308814824
 20
-2.6990292985
 10
5.5890094061
 20
-2.6679702999
 10
5.5370976116
 20
-2.647021364
 10
5.4761087405
 20
-2.6365709635
 10
5.4071737581
 20
-2.6368128886
 10
5.3315709808
 20
-2.6477426531
 10
5.2507023709
 20
-2.6691575776
 10
5.1660675397
 20
-2.700660548
 10
5.0792359383
 20
-2.7416673798
 10
4.9918177542
 20
-2.7914176506
 10
4.9054340524
 20
-2.8489888014
 10
4.8216867149
 20
-2.9133132445
 10
4.7421287352
 20
-2.9831981605
  0
SPLINE
  5
91
330
1F
100
AcDbEntity
  8
0
  6
Continuous
 62
     7
370
    15
100
AcDbSpline
210
0.0
220
0.0
230
1.0
 70
     8
 71
     3
 72
    15
 73
    11
 74
     0
 42
0.000000001
 43
0.00000001
 40
0.0
 40
0.0
 40
0.0
 40
0.0
 40
0.1322941080083891
 40
0.2618420019077938
 40
0.3889536884587184
 40
0.5139573009900316
 40
0.6371978125028632
 40
0.7590351731687088
 40
0.8798418761040329
 40
1.0
 40
1.0
 40
1.0
 40
1.0
 10
2.117116192588785
 20
0.0785865484472937
 30
0.0
 10
2.120152998147
 20
0.077631030247086
 30
0.0
 10
2.126163570036697
 20
0.0757398288763805
 30
0.0
 10
2.134910596560617
 20
0.0723980084600083
 30
0.0
 10
2.143329357148829
 20
0.0687226795173537
 30
0.0
 10
2.15140820417717
 20
0.0646767311281619
 30
0.0
 10
2.159151974703964
 20
0.0602721002507687
 30
0.0
 10
2.166551545045945
 20
0.0554968592860379
 30
0.0
 10
2.173636802064567
 20
0.0503862833675564
 30
0.0
 10
2.178083941784525
 20
0.046664283146262
 30
0.0
 10
2.180301526701296
 20
0.0448082920889272
 30
0.0
  0
SPLINE
  5
A3
330
1F
100
AcDbEntity
  8
0
  6
Continuous
 62
     7
370
    15
100
AcDbSpline
210
0.0
220
0.0
230
1.0
 70
     8
 71
     3
 72
    15
 73
    11
 74
     0
 42
0.000000001
 43
0.00000001
 40
0.0
 40
0.0
 40
0.0
 40
0.0
 40
0.1210423054193967
 40
0.2424856174573705
 40
0.3647065558717814
 40
0.4880746187797075
 40
0.6129491218419338
 40
0.7396765675474062
 40
0.8685885176748243
 40
1.0
 40
1.0
 40
1.0
 40
1.0
 10
-2.1803015267013
 20
0.0448082920889288
 30
0.0
 10
-2.178609007893229
 20
0.0462099410222791
 30
0.0
 10
-2.175218363053714
 20
0.0490178824761721
 30
0.0
 10
-2.169828902963785
 20
0.0528704276075917
 30
0.0
 10
-2.164215182858064
 20
0.0564621616919702
 30
0.0
 10
-2.158355098932673
 20
0.0597666848182717
 30
0.0
 10
-2.15225539029226
 20
0.062792926801203
 30
0.0
 10
-2.145912457927538
 20
0.0655317631958447
 30
0.0
 10
-2.139335046219241
 20
0.0680115855142583
 30
0.0
 10
-2.134819713137062
 20
0.0694065403124761
 30
0.0
 10
-2.132540369291867
 20
0.0701107146393255
 30
0.0
  0
SPLINE
  5
A9
330
1F
100
AcDbEntity
  8
0
  6
Continuous
 62
     7
370
    15
100
AcDbSpline
210
0.0
220
0.0
230
1.0
 70
     8
 71
     3
 72
    23
 73
    19
 74
     0
 42
0.000000001
 43
0.00000001
 40
0.0
 40
0.0
 40
0.0
 40
0.0
 40
0.0998826378354483
 40
0.1997502015571803
 40
0.299612740068695
 40
0.3994803037904328
 40
0.4993629416258796
 40
0.549245516294632
 40
0.5979599708119789
 40
0.645592749953333
 40
0.6922363129068728
 40
0.7379891164028417
 40
0.7829554686781466
 40
0.8272452349071472
 40
0.8709733802458094
 40
0.9142593449845734
 40
0.9572262571198344
 40
1.0
 40
1.0
 40
1.0
 40
1.0
 10
-10.39203700176242
 20
-1.485200695898095
 30
0.0
 10
-10.38515196634772
 20
-1.491184864567113
 30
0.0
 10
-10.37138293459586
 20
-1.503152298784838
 30
0.0
 10
-10.35095717779492
 20
-1.521361443294525
 30
0.0
 10
-10.33071377249669
 20
-1.539769805441919
 30
0.0
 10
-10.31061870600772
 20
-1.558344188877544
 30
0.0
 10
-10.29415499261055
 20
-1.574114019819424
 30
0.0
 10
-10.28088413360052
 20
-1.58646643409188
 30
0.0
 10
-10.27067093375146
 20
-1.595079477035639
 30
0.0
 10
-10.26034802297224
 20
-1.603084025884926
 30
0.0
 10
-10.24989141137234
 20
-1.610454829051093
 30
0.0
 10
-10.23930721350348
 20
-1.617198090169965
 30
0.0
 10
-10.22859387018891
 20
-1.623312199503343
 30
0.0
 10
-10.21775155559807
 20
-1.62879617497022
 30
0.0
 10
-10.20678123029746
 20
-1.633653904683737
 30
0.0
 10
-10.1956794289912
 20
-1.637869510538513
 30
0.0
 10
-10.18445973317913
 20
-1.641500466864323
 30
0.0
 10
-10.17685887273982
 20
-1.643391187174427
 30
0.0
 10
-10.17306700469262
 20
-1.644334417482012
 30
0.0
  0
SPLINE
  5
AB
330
1F
100
AcDbEntity
  8
0
  6
Continuous
 62
     7
370
    15
100
AcDbSpline
210
0.0
220
0.0
230
1.0
 70
     8
 71
     3
 72
    27
 73
    23
 74
     0
 42
0.000000001
 43
0.00000001
 40
0.0
 40
0.0
 40
0.0
 40
0.0
 40
0.0301794226947479
 40
0.061029047715566
 40
0.0926023488169199
 40
0.1249492109478972
 40
0.1581160287901177
 40
0.1921458435209018
 40
0.2270785065201097
 40
0.2629508603123559
 40
0.2997969287287949
 40
0.3376481099213991
 40
0.376533367363987
 40
0.4164794152767625
 40
0.4575108959970304
 40
0.4996505476937332
 40
0.583060993460286
 40
0.6664487956906644
 40
0.7498252738468626
 40
0.8332017520030535
 40
0.9165895542334433
 40
1.0
 40
1.0
 40
1.0
 40
1.0
 10
-11.20687545182394
 20
-0.7723301209698482
 30
0.0
 10
-11.20571568419734
 20
-0.7748252049189636
 30
0.0
 10
-11.20337039368138
 20
-0.7798707817984509
 30
0.0
 10
-11.19939809088721
 20
-0.7873233182879825
 30
0.0
 10
-11.19505131914602
 20
-0.7947907829702555
 30
0.0
 10
-11.19029796056136
 20
-0.8022587348430593
 30
0.0
 10
-11.18514702237118
 20
-0.8097312587336178
 30
0.0
 10
-11.17959607374381
 20
-0.8172073000684557
 30
0.0
 10
-11.1736458477836
 20
-0.8246872364542636
 30
0.0
 10
-11.16729617247498
 20
-0.8321710344247237
 30
0.0
 10
-11.16054714839059
 20
-0.8396588111662432
 30
0.0
 10
-11.15339865746634
 20
-0.8471504800813419
 30
0.0
 10
-11.1458511452362
 20
-0.8546466131667478
 30
0.0
 10
-11.13790290539878
 20
-0.8621452302146246
 30
0.0
 10
-11.12956055037726
 20
-0.8696542354225508
 30
0.0
 10
-11.11801657807902
 20
-0.8795206473434912
 30
0.0
 10
-11.10333541781281
 20
-0.8916545078673501
 30
0.0
 10
-11.08562836492594
 20
-0.9060258854436178
 30
0.0
 10
-11.0677475764328
 20
-0.9201760553943193
 30
0.0
 10
-11.04970295155983
 20
-0.9341162260339652
 30
0.0
 10
-11.03150503285957
 20
-0.9478615343297676
 30
0.0
 10
-11.01923839161681
 20
-0.9568456841893389
 30
0.0
 10
-11.01310423837238
 20
-0.9613383689364482
 30
0.0
  0
SPLINE
  5
B2
330
1F
100
AcDbEntity
  8
0
  6
Continuous
 62
     7
370
    15
100
AcDbSpline
210
0.0
220
0.0
230
1.0
 70
     8
 71
     3
 72
    13
 73
     9
 74
     0
 42
0.000000001
 43
0.00000001
 40
0.0
 40
0.0
 40
0.0
 40
0.0
 40
0.1976281714651655
 40
0.3828412560533506
 40
0.5556583284776151
 40
0.7161028846724315
 40
0.8642043092990545
 40
1.0
 40
1.0
 40
1.0
 40
1.0
 10
-7.919626023208663
 20
1.027242237688185
 30
0.0
 10
-7.934142587502227
 20
1.037569930116261
 30
0.0
 10
-7.962263779266159
 20
1.057576524884528
 30
0.0
 10
-8.00273934960282
 20
1.08708712463393
 30
0.0
 10
-8.040226688368614
 20
1.115002730275549
 30
0.0
 10
-8.074690166779392
 20
1.141370808797904
 30
0.0
 10
-8.106189717416337
 20
1.166118827731757
 30
0.0
 10
-8.125948245639483
 20
1.18238520997109
 30
0.0
 10
-8.135399285619938
 20
1.190165861806341
 30
0.0
  0
SPLINE
  5
BC
330
1F
100
AcDbEntity
  8
0
  6
Continuous
 62
     7
370
    15
100
AcDbSpline
210
0.0
220
0.0
230
1.0
 70
     8
 71
     3
 72
    20
 73
    16
 74
     0
 42
0.000000001
 43
0.00000001
 40
0.0
 40
0.0
 40
0.0
 40
0.0
 40
0.0739090629492704
 40
0.1444279746125314
 40
0.2116081323149103
 40
0.2755089902612271
 40
0.3361996408941672
 40
0.3937607377637987
 40
0.4482868236496952
 40
0.499889125748052
 40
0.593506200609155
 40
0.6898869972289593
 40
0.7894918375691502
 40
0.8927379294658091
 40
0.9999999999999999
 40
0.9999999999999999
 40
0.9999999999999999
 40
0.9999999999999999
 10
-4.555587032059209
 20
5.400306847675076
 30
0.0
 10
-4.561361815812346
 20
5.399418903733331
 30
0.0
 10
-4.572646498475194
 20
5.397683745148466
 30
0.0
 10
-4.589093008506642
 20
5.394616974906043
 30
0.0
 10
-4.604677651516717
 20
5.39127938711649
 30
0.0
 10
-4.619395793510295
 20
5.38763786716938
 30
0.0
 10
-4.633249284922094
 20
5.383701223612361
 30
0.0
 10
-4.64623696388161
 20
5.379464574336983
 30
0.0
 10
-4.658363479401555
 20
5.374937222257503
 30
0.0
 10
-4.672868648960372
 20
5.368684607803492
 30
0.0
 10
-4.689892051052116
 20
5.359984741692761
 30
0.0
 10
-4.709526315062225
 20
5.34817943052184
 30
0.0
 10
-4.728927740572102
 20
5.334623499093013
 30
0.0
 10
-4.748181361557028
 20
5.319416750570883
 30
0.0
 10
-4.760466450996299
 20
5.308186372626035
 30
0.0
 10
-4.766726180380362
 20
5.302464059641418
 30
0.0
  0
SPLINE
  5
BE
330
1F
100
AcDbEntity
  8
0
  6
Continuous
 62
     7
370
    15
100
AcDbSpline
210
0.0
220
0.0
230
1.0
 70
     8
 71
     3
 72
    16
 73
    12
 74
     0
 42
0.000000001
 43
0.00000001
 40
0.0
 40
0.0
 40
0.0
 40
0.0
 40
0.0900514376140675
 40
0.1853448442353187
 40
0.28589231880837
 40
0.3917041579803915
 40
0.5027891945214594
 40
0.6191550604191164
 40
0.7408083937779034
 40
0.8677550032517806
 40
1.0
 40
1.0
 40
1.0
 40
1.0
 10
-8.756466522229896
 20
1.714028188767988
 30
0.0
 10
-8.762615994757947
 20
1.719327603246497
 30
0.0
 10
-8.775272905719504
 20
1.730234915523588
 30
0.0
 10
-8.794532999130976
 20
1.747360707862667
 30
0.0
 10
-8.814679813764247
 20
1.765624534136225
 30
0.0
 10
-8.835691235848447
 20
1.785052331541209
 30
0.0
 10
-8.85757348088018
 20
1.805636885223528
 30
0.0
 10
-8.880325407611759
 20
1.827379709914435
 30
0.0
 10
-8.903944609407946
 20
1.850283170329607
 30
0.0
 10
-8.928442553414786
 20
1.874335867212
 30
0.0
 10
-8.944991069933826
 20
1.890830583699368
 30
0.0
 10
-8.953434470339984
 20
1.89924653420035
 30
0.0
  0
LINE
  5
BF
330
1F
100
AcDbEntity
  8
0
  6
Continuous
 62
     7
370
    15
100
AcDbLine
 10
6.0296224471
 20
3.8052319547
 30
0.0
 11
4.7667261804
 21
5.3024640596
 31
0.0
  0
LINE
  5
C0
330
1F
100
AcDbEntity
  8
0
  6
Continuous
 62
     7
370
    15
100
AcDbLine
 10
6.0483090271
 20
3.1840344887
 30
0.0
 11
4.0008114325
 21
0.4372212144
 31
0.0
  0
LINE
  5
C1
330
1F
100
AcDbEntity
  8
0
  6
Continuous
 62
     7
370
    15
100
AcDbLine
 10
4.0194980124
 20
-0.1839762516
 30
0.0
 11
4.5879876463
 21
-0.857951584
 31
0.0
  0
LINE
  5
C2
330
1F
100
AcDbEntity
  8
0
  6
Continuous
 62
     7
370
    15
100
AcDbLine
 10
5.2697233661
 20
-0.9359189824
 30
0.0
 11
6.2185679016
 21
-0.225986496
 31
0.0
  0
LINE
  5
C3
330
1F
100
AcDbEntity
  8
0
  6
Continuous
 62
     7
370
    15
100
AcDbLine
 10
6.2872205692
 20
-0.1733326885
 30
0.0
 11
6.2185679016
 21
-0.225986496
 31
0.0
  0
LINE
  5
C4
330
1F
100
AcDbEntity
  8
0
  6
Continuous
 62
     7
370
    15
100
AcDbLine
 10
6.2872205692
 20
-0.1733326885
 30
0.0
 11
7.9196260232
 21
1.0272422377
 31
0.0
  0
LINE
  5
C5
330
1F
100
AcDbEntity
  8
0
  6
Continuous
 62
     7
370
    15
100
AcDbLine
 10
8.1353992856
 20
1.1901658618
 30
0.0
 11
8.7564665222
 21
1.7140281888
 31
0.0
  0
LINE
  5
C6
330
1F
100
AcDbEntity
  8
0
  6
Continuous
 62
     7
370
    15
100
AcDbLine
 10
9.8537433863
 20
2.7674897405
 30
0.0
 11
8.9534344703
 21
1.8992465342
 31
0.0
  0
LINE
  5
C7
330
1F
100
AcDbEntity
  8
0
  6
Continuous
 62
     7
370
    15
100
AcDbLine
 10
11.8773298531
 20
1.1954929304
 30
0.0
 11
10.5830246597
 21
2.7299620235
 31
0.0
  0
LINE
  5
C8
330
1F
100
AcDbEntity
  8
0
  6
Continuous
 62
     7
370
    15
100
AcDbLine
 10
11.2068754518
 20
-0.772330121
 30
0.0
 11
11.9392317527
 21
0.643382037
 31
0.0
  0
LINE
  5
C9
330
1F
100
AcDbEntity
  8
0
  6
Continuous
 62
     7
370
    15
100
AcDbLine
 10
11.0131042384
 20
-0.9613383689
 30
0.0
 11
10.3920370018
 21
-1.4852006959
 31
0.0
  0
LINE
  5
CA
330
1F
100
AcDbEntity
  8
0
  6
Continuous
 62
     7
370
    15
100
AcDbLine
 10
10.1730670047
 20
-1.6443344175
 30
0.0
 11
8.0875965876
 21
-2.3077762265
 31
0.0
  0
LINE
  5
CB
330
1F
100
AcDbEntity
  8
0
  6
Continuous
 62
     7
370
    15
100
AcDbLine
 10
8.0054452478
 20
-2.3444266251
 30
0.0
 11
8.0875965876
 21
-2.3077762265
 31
0.0
  0
LINE
  5
CC
330
1F
100
AcDbEntity
  8
0
  6
Continuous
 62
     7
370
    15
100
AcDbLine
 10
8.0054452478
 20
-2.3444266251
 30
0.0
 11
6.0257001747
 21
-3.0728043316
 31
0.0
  0
LINE
  5
CD
330
1F
100
AcDbEntity
  8
0
  6
Continuous
 62
     7
370
    15
100
AcDbLine
 10
4.7421287352
 20
-2.9831981605
 30
0.0
 11
4.7374095034
 21
-2.9867820764
 31
0.0
  0
LINE
  5
CE
330
1F
100
AcDbEntity
  8
0
  6
Continuous
 62
     7
370
    15
100
AcDbLine
 10
2.1803015267
 20
0.0448082921
 30
0.0
 11
4.7374095034
 21
-2.9867820764
 31
0.0
  0
LINE
  5
CF
330
1F
100
AcDbEntity
  8
0
  6
Continuous
 62
     7
370
    15
100
AcDbLine
 10
1.9776535974
 20
0.1599119373
 30
0.0
 11
2.1171161926
 21
0.0785865484
 31
0.0
  0
LINE
  5
D0
330
1F
100
AcDbEntity
  8
0
  6
Continuous
 62
     7
370
    15
100
AcDbLine
 10
1.9903222052
 20
-0.0303792486
 30
0.0
 11
1.9776535974
 21
0.1599119373
 31
0.0
  0
LINE
  5
D1
330
1F
100
AcDbEntity
  8
0
  6
Continuous
 62
     7
370
    15
100
AcDbLine
 10
2.1403222052
 20
-0.0303792486
 30
0.0
 11
1.9903222052
 21
-0.0303792486
 31
0.0
  0
LINE
  5
D2
330
1F
100
AcDbEntity
  8
0
  6
Continuous
 62
     7
370
    15
100
AcDbLine
 10
2.1403222052
 20
-0.0303792486
 30
0.0
 11
2.1403222052
 21
-4.0
 31
0.0
  0
LINE
  5
D3
330
1F
100
AcDbEntity
  8
0
  6
Continuous
 62
     7
370
    15
100
AcDbLine
 10
2.1403222052
 20
-4.0
 30
0.0
 11
1.825
 21
-4.0
 31
0.0
  0
LINE
  5
D4
330
1F
100
AcDbEntity
  8
0
  6
Continuous
 62
     7
370
    15
100
AcDbLine
 10
1.7
 20
-3.875
 30
0.0
 11
1.7
 21
-1.325
 31
0.0
  0
LINE
  5
D5
330
1F
100
AcDbEntity
  8
0
  6
Continuous
 62
     7
370
    15
100
AcDbLine
 10
1.575
 20
-1.2
 30
0.0
 11
-1.575
 21
-1.2
 31
0.0
  0
LINE
  5
D6
330
1F
100
AcDbEntity
  8
0
  6
Continuous
 62
     7
370
    15
100
AcDbLine
 10
-1.7
 20
-1.325
 30
0.0
 11
-1.7
 21
-3.875
 31
0.0
  0
LINE
  5
D7
330
1F
100
AcDbEntity
  8
0
  6
Continuous
 62
     7
370
    15
100
AcDbLine
 10
-1.825
 20
-4.0
 30
0.0
 11
-2.1403222052
 21
-4.0
 31
0.0
  0
LINE
  5
D8
330
1F
100
AcDbEntity
  8
0
  6
Continuous
 62
     7
370
    15
100
AcDbLine
 10
-2.1403222052
 20
-4.0
 30
0.0
 11
-2.1403222052
 21
-0.0303792486
 31
0.0
  0
LINE
  5
D9
330
1F
100
AcDbEntity
  8
0
  6
Continuous
 62
     7
370
    15
100
AcDbLine
 10
-2.1403222052
 20
-0.0303792486
 30
0.0
 11
-1.9903222052
 21
-0.0303792486
 31
0.0
  0
LINE
  5
DA
330
1F
100
AcDbEntity
  8
0
  6
Continuous
 62
     7
370
    15
100
AcDbLine
 10
-1.9776535974
 20
0.1599119373
 30
0.0
 11
-1.9903222052
 21
-0.0303792486
 31
0.0
  0
LINE
  5
DB
330
1F
100
AcDbEntity
  8
0
  6
Continuous
 62
     7
370
    15
100
AcDbLine
 10
-2.1325403693
 20
0.0701107146
 30
0.0
 11
-1.9776535974
 21
0.1599119373
 31
0.0
  0
LINE
  5
DC
330
1F
100
AcDbEntity
  8
0
  6
Continuous
 62
     7
370
    15
100
AcDbLine
 10
-4.8719460613
 20
-3.1462824716
 30
0.0
 11
-2.1803015267
 21
0.0448082921
 31
0.0
  0
LINE
  5
DD
330
1F
100
AcDbEntity
  8
0
  6
Continuous
 62
     7
370
    15
100
AcDbLine
 10
-5.4267848193
 20
-3.2931542135
 30
0.0
 11
-8.0054452478
 21
-2.3444266251
 31
0.0
  0
LINE
  5
DE
330
1F
100
AcDbEntity
  8
0
  6
Continuous
 62
     7
370
    15
100
AcDbLine
 10
-8.0875965876
 20
-2.3077762265
 30
0.0
 11
-8.0054452478
 21
-2.3444266251
 31
0.0
  0
LINE
  5
DF
330
1F
100
AcDbEntity
  8
0
  6
Continuous
 62
     7
370
    15
100
AcDbLine
 10
-8.0875965876
 20
-2.3077762265
 30
0.0
 11
-10.1730670047
 21
-1.6443344175
 31
0.0
  0
LINE
  5
E0
330
1F
100
AcDbEntity
  8
0
  6
Continuous
 62
     7
370
    15
100
AcDbLine
 10
-10.3920370018
 20
-1.4852006959
 30
0.0
 11
-11.0131042384
 21
-0.9613383689
 31
0.0
  0
LINE
  5
E1
330
1F
100
AcDbEntity
  8
0
  6
Continuous
 62
     7
370
    15
100
AcDbLine
 10
-11.2068754518
 20
-0.772330121
 30
0.0
 11
-11.9392317527
 21
0.643382037
 31
0.0
  0
LINE
  5
E2
330
1F
100
AcDbEntity
  8
0
  6
Continuous
 62
     7
370
    15
100
AcDbLine
 10
-11.8773298531
 20
1.1954929304
 30
0.0
 11
-10.5830246597
 21
2.7299620235
 31
0.0
  0
LINE
  5
E3
330
1F
100
AcDbEntity
  8
0
  6
Continuous
 62
     7
370
    15
100
AcDbLine
 10
-9.8537433863
 20
2.7674897405
 30
0.0
 11
-8.9534344703
 21
1.8992465342
 31
0.0
  0
LINE
  5
E4
330
1F
100
AcDbEntity
  8
0
  6
Continuous
 62
     7
370
    15
100
AcDbLine
 10
-8.7564665222
 20
1.7140281888
 30
0.0
 11
-8.1353992856
 21
1.1901658618
 31
0.0
  0
LINE
  5
E5
330
1F
100
AcDbEntity
  8
0
  6
Continuous
 62
     7
370
    15
100
AcDbLine
 10
-7.9196260232
 20
1.0272422377
 30
0.0
 11
-6.2872205692
 21
-0.1733326885
 31
0.0
  0
LINE
  5
E6
330
1F
100
AcDbEntity
  8
0
  6
Continuous
 62
     7
370
    15
100
AcDbLine
 10
-6.2185679016
 20
-0.225986496
 30
0.0
 11
-6.2872205692
 21
-0.1733326885
 31
0.0
  0
LINE
  5
E7
330
1F
100
AcDbEntity
  8
0
  6
Continuous
 62
     7
370
    15
100
AcDbLine
 10
-6.2185679016
 20
-0.225986496
 30
0.0
 11
-5.2697233661
 21
-0.9359189824
 31
0.0
  0
LINE
  5
E8
330
1F
100
AcDbEntity
  8
0
  6
Continuous
 62
     7
370
    15
100
AcDbLine
 10
-4.5879876463
 20
-0.857951584
 30
0.0
 11
-4.0194980124
 21
-0.1839762516
 31
0.0
  0
LINE
  5
E9
330
1F
100
AcDbEntity
  8
0
  6
Continuous
 62
     7
370
    15
100
AcDbLine
 10
-4.0008114325
 20
0.4372212144
 30
0.0
 11
-6.0483090271
 21
3.1840344887
 31
0.0
  0
LINE
  5
EA
330
1F
100
AcDbEntity
  8
0
  6
Continuous
 62
     7
370
    15
100
AcDbLine
 10
-4.7667261804
 20
5.3024640596
 30
0.0
 11
-6.0296224471
 21
3.8052319547
 31
0.0
  0
LINE
  5
EB
330
1F
100
AcDbEntity
  8
0
  6
Continuous
 62
     7
370
    15
100
AcDbLine
 10
-4.5555870321
 20
5.4003068477
 30
0.0
 11
4.5555870321
 21
5.4003068477
 31
0.0
  0
ARC
  5
EC
330
1F
100
AcDbEntity
  8
0
  6
Continuous
 62
     7
370
    15
100
AcDbCircle
 10
5.6474272246
 20
3.4828551381
 30
0.0
 40
0.5000000000000009
100
AcDbArc
 50
323.2988457745
 51
40.1472062454
  0
ARC
  5
ED
330
1F
100
AcDbEntity
  8
0
  6
Continuous
 62
     7
370
    15
100
AcDbCircle
 10
4.4016932349
 20
0.138400565
 30
0.0
 40
0.500000000000001
100
AcDbArc
 50
143.2988457745
 51
220.1472062454
  0
ARC
  5
EE
330
1F
100
AcDbEntity
  8
0
  6
Continuous
 62
     7
370
    15
100
AcDbCircle
 10
4.9701828688
 20
-0.5355747674
 30
0.0
 40
0.4999999999999978
100
AcDbArc
 50
220.1472062454
 51
306.8041070448
  0
ARC
  5
EF
330
1F
100
AcDbEntity
  8
0
  6
Continuous
 62
     7
370
    15
100
AcDbCircle
 10
10.2008294372
 20
2.4075852069
 30
0.0
 40
0.499999999999991
100
AcDbArc
 50
40.1472062454
 51
133.9612810797
  0
ARC
  5
F0
330
1F
100
AcDbEntity
  8
0
  6
Continuous
 62
     7
370
    15
100
AcDbCircle
 10
11.4951346306
 20
0.8731161138
 30
0.0
 40
0.5000000000000039
100
AcDbArc
 50
332.6472062454
 51
40.1472062454
  0
ARC
  5
F1
330
1F
100
AcDbEntity
  8
0
  6
Continuous
 62
     7
370
    15
100
AcDbCircle
 10
5.9393784069
 20
-2.8381800524
 30
0.0
 40
0.2500000000000001
100
AcDbArc
 50
181.8468632644
 51
290.1993206289
  0
ARC
  5
F2
330
1F
100
AcDbEntity
  8
0
  6
Continuous
 62
     7
370
    15
100
AcDbCircle
 10
1.825
 20
-3.875
 30
0.0
 40
0.1250000000000013
100
AcDbArc
 50
180.0
 51
270.0
  0
ARC
  5
F3
330
1F
100
AcDbEntity
  8
0
  6
Continuous
 62
     7
370
    15
100
AcDbCircle
 10
1.575
 20
-1.325
 30
0.0
 40
0.1250000000000004
100
AcDbArc
 50
0.0
 51
90.0
  0
ARC
  5
F4
330
1F
100
AcDbEntity
  8
0
  6
Continuous
 62
     7
370
    15
100
AcDbCircle
 10
-1.575
 20
-1.325
 30
0.0
 40
0.125
100
AcDbArc
 50
90.0
 51
180.0
  0
ARC
  5
F5
330
1F
100
AcDbEntity
  8
0
  6
Continuous
 62
     7
370
    15
100
AcDbCircle
 10
-1.825
 20
-3.875
 30
0.0
 40
0.1250000000000004
100
AcDbArc
 50
270.0
 51
0.0
  0
ARC
  5
F6
330
1F
100
AcDbEntity
  8
0
  6
Continuous
 62
     7
370
    15
100
AcDbCircle
 10
-5.2541412838
 20
-2.823905655
 30
0.0
 40
0.5000000000000023
100
AcDbArc
 50
249.8006793712
 51
319.8527937546
  0
ARC
  5
F7
330
1F
100
AcDbEntity
  8
0
  6
Continuous
 62
     7
370
    15
100
AcDbCircle
 10
-11.4951346306
 20
0.8731161138
 30
0.0
 40
0.4999999999999912
100
AcDbArc
 50
139.8527937546
 51
207.3527937546
  0
ARC
  5
F8
330
1F
100
AcDbEntity
  8
0
  6
Continuous
 62
     7
370
    15
100
AcDbCircle
 10
-10.2008294372
 20
2.4075852069
 30
0.0
 40
0.500000000000005
100
AcDbArc
 50
46.0387189203
 51
139.8527937546
  0
ARC
  5
F9
330
1F
100
AcDbEntity
  8
0
  6
Continuous
 62
     7
370
    15
100
AcDbCircle
 10
-4.9701828688
 20
-0.5355747674
 30
0.0
 40
0.5000000000000008
100
AcDbArc
 50
233.1958929552
 51
319.8527937546
  0
ARC
  5
FA
330
1F
100
AcDbEntity
  8
0
  6
Continuous
 62
     7
370
    15
100
AcDbCircle
 10
-4.4016932349
 20
0.138400565
 30
0.0
 40
0.5000000000000029
100
AcDbArc
 50
319.8527937546
 51
36.7011542255
  0
ARC
  5
FB
330
1F
100
AcDbEntity
  8
0
  6
Continuous
 62
     7
370
    15
100
AcDbCircle
 10
-5.6474272246
 20
3.4828551381
 30
0.0
 40
0.5000000000000014
100
AcDbArc
 50
139.8527937546
 51
216.7011542255
  0
ENDSEC
  0
SECTION
  2
OBJECTS
  0
DICTIONARY
  5
C
330
0
100
AcDbDictionary
281
     1
  3
ACAD_GROUP
350
D
  3
ACAD_LAYOUT
350
1A
  3
ACAD_MLINESTYLE
350
17
  3
ACAD_PLOTSETTINGS
350
19
  3
ACAD_PLOTSTYLENAME
350
E
  3
ACAD_SCALELIST
350
47
  0
DICTIONARY
  5
D
102
{ACAD_REACTORS
330
C
102
}
330
C
100
AcDbDictionary
281
     1
  0
DICTIONARY
  5
1A
102
{ACAD_REACTORS
330
C
102
}
330
C
100
AcDbDictionary
281
     1
  3
Layout1
350
1E
  3
Layout2
350
26
  3
Model
350
22
  0
DICTIONARY
  5
17
102
{ACAD_REACTORS
330
C
102
}
330
C
100
AcDbDictionary
281
     1
  3
Standard
350
18
  0
DICTIONARY
  5
19
102
{ACAD_REACTORS
330
C
102
}
330
C
100
AcDbDictionary
281
     1
  0
ACDBDICTIONARYWDFLT
  5
E
102
{ACAD_REACTORS
330
C
102
}
330
C
100
AcDbDictionary
281
     1
  3
Normal
350
F
100
AcDbDictionaryWithDefault
340
F
  0
DICTIONARY
  5
47
102
{ACAD_REACTORS
330
C
102
}
330
C
100
AcDbDictionary
281
     1
  3
A0
350
48
  3
A1
350
49
  3
A2
350
4A
  3
A3
350
4B
  3
A4
350
4C
  3
A5
350
4D
  3
A6
350
4E
  3
A7
350
4F
  3
A8
350
50
  3
A9
350
51
  3
B0
350
52
  3
B1
350
53
  3
B2
350
54
  3
B3
350
55
  3
B4
350
56
  3
B5
350
57
  3
B6
350
58
  3
B7
350
59
  3
B8
350
5A
  3
B9
350
5B
  3
C0
350
5C
  3
C1
350
5D
  3
C2
350
5E
  3
C3
350
5F
  3
C4
350
60
  3
C5
350
61
  3
C6
350
62
  3
C7
350
63
  3
C8
350
64
  3
C9
350
65
  3
D0
350
66
  3
D1
350
67
  3
D2
350
68
  0
LAYOUT
  5
1E
102
{ACAD_REACTORS
330
1A
102
}
330
1A
100
AcDbPlotSettings
  1

  2
none_device
  4

  6

 40
0.0
 41
0.0
 42
0.0
 43
0.0
 44
0.0
 45
0.0
 46
0.0
 47
0.0
 48
0.0
 49
0.0
140
0.0
141
0.0
142
1.0
143
1.0
 70
   688
 72
     0
 73
     0
 74
     5
  7

 75
    16
147
1.0
148
0.0
149
0.0
100
AcDbLayout
  1
Layout1
 70
     1
 71
     1
 10
0.0
 20
0.0
 11
12.0
 21
9.0
 12
0.0
 22
0.0
 32
0.0
 14
1.0000000000E+20
 24
1.0000000000E+20
 34
1.0000000000E+20
 15
-1.0000000000E+20
 25
-1.0000000000E+20
 35
-1.0000000000E+20
146
0.0
 13
0.0
 23
0.0
 33
0.0
 16
1.0
 26
0.0
 36
0.0
 17
0.0
 27
1.0
 37
0.0
 76
     0
330
1B
  0
LAYOUT
  5
26
102
{ACAD_REACTORS
330
1A
102
}
330
1A
100
AcDbPlotSettings
  1

  2
none_device
  4

  6

 40
0.0
 41
0.0
 42
0.0
 43
0.0
 44
0.0
 45
0.0
 46
0.0
 47
0.0
 48
0.0
 49
0.0
140
0.0
141
0.0
142
1.0
143
1.0
 70
   688
 72
     0
 73
     0
 74
     5
  7

 75
    16
147
1.0
148
0.0
149
0.0
100
AcDbLayout
  1
Layout2
 70
     1
 71
     2
 10
0.0
 20
0.0
 11
0.0
 21
0.0
 12
0.0
 22
0.0
 32
0.0
 14
0.0
 24
0.0
 34
0.0
 15
0.0
 25
0.0
 35
0.0
146
0.0
 13
0.0
 23
0.0
 33
0.0
 16
1.0
 26
0.0
 36
0.0
 17
0.0
 27
1.0
 37
0.0
 76
     0
330
23
  0
LAYOUT
  5
22
102
{ACAD_REACTORS
330
1A
102
}
330
1A
100
AcDbPlotSettings
  1

  2
none_device
  4
ANSI_A_(11.00_x_8.50_Inches)
  6

 40
6.35
 41
19.05
 42
6.35000508
 43
19.05000254
 44
279.4
 45
215.9
 46
133.34999746
 47
80.8272824196
 48
0.0
 49
0.0
140
0.0
141
0.0
142
0.4539340464
143
1.0
 70
  1696
 72
     0
 73
     0
 74
     0
  7

 75
     0
147
0.5913241897
148
-39.4088153714
149
0.0
100
AcDbLayout
  1
Model
 70
     1
 71
     0
 10
0.0
 20
0.0
 11
12.0
 21
9.0
 12
0.0
 22
0.0
 32
0.0
 14
-11.9951346306
 24
-4.0
 34
0.0
 15
11.9951346306
 25
5.4003068477
 35
0.0
146
0.0
 13
0.0
 23
0.0
 33
0.0
 16
1.0
 26
0.0
 36
0.0
 17
0.0
 27
1.0
 37
0.0
 76
     0
330
1F
331
29
  0
MLINESTYLE
  5
18
102
{ACAD_REACTORS
330
17
102
}
330
17
100
AcDbMlineStyle
  2
Standard
 70
     0
  3

 62
   256
 51
90.0
 52
90.0
 71
     2
 49
0.5
 62
   256
  6
BYLAYER
 49
-0.5
 62
   256
  6
BYLAYER
  0
ACDBPLACEHOLDER
  5
F
102
{ACAD_REACTORS
330
E
102
}
330
E
  0
SCALE
  5
48
102
{ACAD_REACTORS
330
47
102
}
330
47
100
AcDbScale
 70
     0
300
1:1
140
1.0
141
1.0
290
     1
  0
SCALE
  5
49
102
{ACAD_REACTORS
330
47
102
}
330
47
100
AcDbScale
 70
     0
300
1:2
140
1.0
141
2.0
290
     0
  0
SCALE
  5
4A
102
{ACAD_REACTORS
330
47
102
}
330
47
100
AcDbScale
 70
     0
300
1:4
140
1.0
141
4.0
290
     0
  0
SCALE
  5
4B
102
{ACAD_REACTORS
330
47
102
}
330
47
100
AcDbScale
 70
     0
300
1:5
140
1.0
141
5.0
290
     0
  0
SCALE
  5
4C
102
{ACAD_REACTORS
330
47
102
}
330
47
100
AcDbScale
 70
     0
300
1:8
140
1.0
141
8.0
290
     0
  0
SCALE
  5
4D
102
{ACAD_REACTORS
330
47
102
}
330
47
100
AcDbScale
 70
     0
300
1:10
140
1.0
141
10.0
290
     0
  0
SCALE
  5
4E
102
{ACAD_REACTORS
330
47
102
}
330
47
100
AcDbScale
 70
     0
300
1:16
140
1.0
141
16.0
290
     0
  0
SCALE
  5
4F
102
{ACAD_REACTORS
330
47
102
}
330
47
100
AcDbScale
 70
     0
300
1:20
140
1.0
141
20.0
290
     0
  0
SCALE
  5
50
102
{ACAD_REACTORS
330
47
102
}
330
47
100
AcDbScale
 70
     0
300
1:30
140
1.0
141
30.0
290
     0
  0
SCALE
  5
51
102
{ACAD_REACTORS
330
47
102
}
330
47
100
AcDbScale
 70
     0
300
1:40
140
1.0
141
40.0
290
     0
  0
SCALE
  5
52
102
{ACAD_REACTORS
330
47
102
}
330
47
100
AcDbScale
 70
     0
300
1:50
140
1.0
141
50.0
290
     0
  0
SCALE
  5
53
102
{ACAD_REACTORS
330
47
102
}
330
47
100
AcDbScale
 70
     0
300
1:100
140
1.0
141
100.0
290
     0
  0
SCALE
  5
54
102
{ACAD_REACTORS
330
47
102
}
330
47
100
AcDbScale
 70
     0
300
2:1
140
2.0
141
1.0
290
     0
  0
SCALE
  5
55
102
{ACAD_REACTORS
330
47
102
}
330
47
100
AcDbScale
 70
     0
300
4:1
140
4.0
141
1.0
290
     0
  0
SCALE
  5
56
102
{ACAD_REACTORS
330
47
102
}
330
47
100
AcDbScale
 70
     0
300
8:1
140
8.0
141
1.0
290
     0
  0
SCALE
  5
57
102
{ACAD_REACTORS
330
47
102
}
330
47
100
AcDbScale
 70
     0
300
10:1
140
10.0
141
1.0
290
     0
  0
SCALE
  5
58
102
{ACAD_REACTORS
330
47
102
}
330
47
100
AcDbScale
 70
     0
300
100:1
140
100.0
141
1.0
290
     0
  0
SCALE
  5
59
102
{ACAD_REACTORS
330
47
102
}
330
47
100
AcDbScale
 70
     0
300
1/128" = 1'-0"
140
0.0078125
141
12.0
290
     0
  0
SCALE
  5
5A
102
{ACAD_REACTORS
330
47
102
}
330
47
100
AcDbScale
 70
     0
300
1/64" = 1'-0"
140
0.015625
141
12.0
290
     0
  0
SCALE
  5
5B
102
{ACAD_REACTORS
330
47
102
}
330
47
100
AcDbScale
 70
     0
300
1/32" = 1'-0"
140
0.03125
141
12.0
290
     0
  0
SCALE
  5
5C
102
{ACAD_REACTORS
330
47
102
}
330
47
100
AcDbScale
 70
     0
300
1/16" = 1'-0"
140
0.0625
141
12.0
290
     0
  0
SCALE
  5
5D
102
{ACAD_REACTORS
330
47
102
}
330
47
100
AcDbScale
 70
     0
300
3/32" = 1'-0"
140
0.09375
141
12.0
290
     0
  0
SCALE
  5
5E
102
{ACAD_REACTORS
330
47
102
}
330
47
100
AcDbScale
 70
     0
300
1/8" = 1'-0"
140
0.125
141
12.0
290
     0
  0
SCALE
  5
5F
102
{ACAD_REACTORS
330
47
102
}
330
47
100
AcDbScale
 70
     0
300
3/16" = 1'-0"
140
0.1875
141
12.0
290
     0
  0
SCALE
  5
60
102
{ACAD_REACTORS
330
47
102
}
330
47
100
AcDbScale
 70
     0
300
1/4" = 1'-0"
140
0.25
141
12.0
290
     0
  0
SCALE
  5
61
102
{ACAD_REACTORS
330
47
102
}
330
47
100
AcDbScale
 70
     0
300
3/8" = 1'-0"
140
0.375
141
12.0
290
     0
  0
SCALE
  5
62
102
{ACAD_REACTORS
330
47
102
}
330
47
100
AcDbScale
 70
     0
300
1/2" = 1'-0"
140
0.5
141
12.0
290
     0
  0
SCALE
  5
63
102
{ACAD_REACTORS
330
47
102
}
330
47
100
AcDbScale
 70
     0
300
3/4" = 1'-0"
140
0.75
141
12.0
290
     0
  0
SCALE
  5
64
102
{ACAD_REACTORS
330
47
102
}
330
47
100
AcDbScale
 70
     0
300
1" = 1'-0"
140
1.0
141
12.0
290
     0
  0
SCALE
  5
65
102
{ACAD_REACTORS
330
47
102
}
330
47
100
AcDbScale
 70
     0
300
1-1/2" = 1'-0"
140
1.5
141
12.0
290
     0
  0
SCALE
  5
66
102
{ACAD_REACTORS
330
47
102
}
330
47
100
AcDbScale
 70
     0
300
3" = 1'-0"
140
3.0
141
12.0
290
     0
  0
SCALE
  5
67
102
{ACAD_REACTORS
330
47
102
}
330
47
100
AcDbScale
 70
     0
300
6" = 1'-0"
140
6.0
141
12.0
290
     0
  0
SCALE
  5
68
102
{ACAD_REACTORS
330
47
102
}
330
47
100
AcDbScale
 70
     0
300
1'-0" = 1'-0"
140
12.0
141
12.0
290
     0
  0
ENDSEC
  0
EOF
