<?xml version="1.0" encoding="UTF-8" standalone="no"?>
<!-- Created with Inkscape (http://www.inkscape.org/) -->

<svg
   xmlns:dc="http://purl.org/dc/elements/1.1/"
   xmlns:cc="http://creativecommons.org/ns#"
   xmlns:rdf="http://www.w3.org/1999/02/22-rdf-syntax-ns#"
   xmlns:svg="http://www.w3.org/2000/svg"
   xmlns="http://www.w3.org/2000/svg"
   xmlns:sodipodi="http://sodipodi.sourceforge.net/DTD/sodipodi-0.dtd"
   xmlns:inkscape="http://www.inkscape.org/namespaces/inkscape"
   id="svg2985"
   version="1.1"
   inkscape:version="0.48.5 r10040"
   width="1600"
   height="2000"
   sodipodi:docname="Draft 3.svg">
  <sodipodi:namedview
     pagecolor="#ffffff"
     bordercolor="#666666"
     borderopacity="1"
     objecttolerance="10"
     gridtolerance="10"
     guidetolerance="10"
     inkscape:pageopacity="0"
     inkscape:pageshadow="2"
     inkscape:window-width="1920"
     inkscape:window-height="1138"
     id="namedview2987"
     showgrid="false"
     inkscape:zoom="0.39"
     inkscape:cx="800"
     inkscape:cy="1000"
     inkscape:window-x="-8"
     inkscape:window-y="-8"
     inkscape:window-maximized="1"
     inkscape:current-layer="svg2985" />
  <metadata
     id="metadata2991">
    <rdf:RDF>
      <cc:Work
         rdf:about="">
        <dc:format>image/svg+xml</dc:format>
        <dc:type
           rdf:resource="http://purl.org/dc/dcmitype/StillImage" />
        <dc:title />
      </cc:Work>
    </rdf:RDF>
  </metadata>
  <defs
     id="defs2989" />
  <path
     inkscape:connector-curvature="0"
     id="path2995"
     d="m 1048.3741,1900.7811 c -0.3689,-0.5968 0.011,-2.5093 0.8441,-4.25 0.8331,-1.7407 1.9776,-4.356 2.5432,-5.8118 0.5657,-1.4559 2.5714,-3.8238 4.4571,-5.2621 4.1254,-3.1466 16.3971,-7.5927 20.9394,-7.5866 1.7978,0 7.0938,-1.2054 11.7688,-2.6842 8.3612,-2.6449 14.9823,-6.2164 28.7808,-15.5249 12.6519,-8.5351 20.1479,-8.6064 26.0396,-0.2478 1.7488,2.481 3.1796,5.0286 3.1796,5.6612 0,0.6327 0.8717,3.882 1.9371,7.2208 1.0654,3.3388 2.1756,7.215 2.4672,8.6138 0.2915,1.3988 3.0649,5.3444 6.163,8.7679 3.0981,3.4236 5.4042,6.8207 5.1246,7.5492 -0.2795,0.7285 -2.0801,2.0704 -4.0012,2.9821 -3.116,1.4786 -9.2176,1.6575 -56.5328,1.6575 -37.0551,0 -53.242,-0.327 -53.7105,-1.0851 z m 162.4742,-21.6649 c -0.566,-1.5125 -3.862,-5.675 -7.3247,-9.25 -7.1594,-7.3918 -9.9343,-11.1736 -13.8469,-18.8714 -2.5035,-4.9255 -2.75,-6.3926 -2.75,-16.3684 0,-7.4007 -0.4667,-11.9809 -1.4375,-14.1091 -0.7907,-1.7331 -2.1322,-4.7261 -2.9813,-6.6511 -0.849,-1.925 -3.8021,-7.0225 -6.5624,-11.3278 -2.7604,-4.3053 -5.0188,-8.0337 -5.0188,-8.2852 0,-0.2516 -0.7627,-1.6215 -1.695,-3.0442 -3.2704,-4.9913 -5.3201,-12.943 -6.1459,-23.8428 -0.7564,-9.9833 -1.1795,-11.647 -4.5777,-18 -2.0593,-3.85 -4.3486,-7.675 -5.0873,-8.5 -2.614,-2.9193 -10.4942,-15.1733 -10.5003,-16.3283 0,-0.6444 -0.6484,-2.403 -1.4335,-3.9079 -1.3389,-2.5665 -3.7099,-12.8579 -5.5901,-24.2638 -0.4533,-2.75 -0.857,-12.2574 -0.8972,-21.1276 -0.06,-13.136 0.2035,-16.357 1.4179,-17.3649 2.2293,-1.8501 10.3044,-0.3419 14.8667,2.7767 3.4624,2.3668 11.6424,13.0561 11.6424,15.2139 0,1.468 6.9316,14.2469 10.6923,19.7121 6.7543,9.8154 15.3896,13.5417 26.5965,11.4767 10.1589,-1.8718 16.1368,-1.5172 22.117,1.3119 9.861,4.665 11.7341,8.6032 12.7152,26.7337 0.6979,12.8979 0.9422,14.1062 4.0197,19.8802 2.8519,5.3506 4.3538,6.8496 11.5849,11.5628 4.5695,2.9784 9.8968,6.8101 11.8384,8.5149 3.4823,3.0574 6.436,8.4475 6.436,11.7446 0,2.3216 -4.3776,6.0293 -11.3164,9.5847 -18.787,9.6264 -20.1048,18.6013 -6.1642,41.9803 2.5526,4.2808 2.6237,4.4301 5.6849,11.9383 2.1218,5.2045 2.0776,12.6798 -0.088,14.8454 -0.6103,0.6103 -5.9487,1.4272 -11.863,1.8152 -16.8502,1.1054 -22.2081,3.4648 -27.5942,12.1511 -0.9402,1.5162 -2.6033,2.75 -3.7069,2.75 -1.2676,0 -2.3791,-1.0086 -3.0306,-2.75 z m -219.36419,-13 c -0.5947,-5.8303 -1.6596,-14.0643 -3.4595,-26.75 -0.5463,-3.85 -1.4463,-10.375 -2,-14.5 -1.0196,-7.5954 -2.1895,-15.7856 -4.071,-28.5 -0.5698,-3.85 -1.91926,-13.237 -2.99892,-20.8601 -1.07966,-7.623 -2.18541,-14.598 -2.45722,-15.5 -0.27181,-0.9019 -0.95232,-5.4649 -1.51225,-10.1399 -0.55993,-4.675 -1.68144,-12.325 -2.49225,-17 -0.8108,-4.675 -1.94524,-11.875 -2.52096,-16 -1.12415,-8.0544 -4.50542,-28.4224 -5.60281,-33.75 -1.30637,-6.3422 2.09519,-3.5178 6.62403,5.5 4.40371,8.7687 9.44265,15.3698 13.34728,17.4852 1.1474,0.6216 5.9112,1.4676 10.58618,1.8799 4.675,0.4123 11.94681,1.0669 16.15951,1.4547 6.8661,0.6321 8.0296,0.4765 11.2321,-1.5028 1.9649,-1.2144 4.43,-3.4138 5.4779,-4.8875 2.0859,-2.9335 7.1305,-16.7834 7.1305,-19.5766 0,-2.4157 4.7101,-10.2297 7.4791,-12.4078 1.2565,-0.9883 4.197,-2.4281 6.5345,-3.1996 4.2088,-1.389 4.2729,-1.374 6.6141,1.5509 1.3003,1.6245 2.6222,4.5286 2.9376,6.4536 1.2079,7.3724 4.6664,14.9963 8.2172,18.1139 3.8204,3.3544 3.1834,3.3123 19.3928,1.2821 4.5017,-0.5638 4.7382,-0.4639 6.3682,2.688 1.8522,3.5819 1.6774,11.4361 -0.5768,25.916 -1.9461,12.5011 -0.2151,26.7336 4.5611,37.5 7.5742,17.0739 10.7391,27.0027 10.1326,31.7874 -0.5553,4.3805 -4.9763,10.7193 -7.4613,10.698 -0.9345,-0.01 -3.7241,-0.729 -6.1991,-1.6022 -6.1102,-2.1559 -16.066,-1.2682 -20.6769,1.8436 -1.8526,1.2502 -5.4941,4.9732 -8.0923,8.2732 -8.7763,11.1469 -10.9037,13.064 -16.6731,15.0251 l -5.53,1.8797 -7.8606,-3.214 -7.8606,-3.2139 -4.6509,2.0573 c -6.3401,2.8045 -10.3382,1.8839 -18.2913,-4.2118 -3.52511,-2.7019 -6.84921,-4.6407 -7.38681,-4.3085 -0.5941,0.3672 -0.9828,10.4828 -0.9911,25.7951 -0.01,13.8551 -0.28498,26.2035 -0.61658,27.441 -1.0453,3.9002 -2.2047,2.4572 -2.8124,-3.5 z m 381.98569,-27.2977 c -2.9355,-2.7762 -6.5812,-6.9387 -8.1016,-9.25 -7.1607,-10.8855 -9.2604,-13.6697 -15.15,-20.0886 -7.9447,-8.6587 -10.1542,-13.6186 -11.2564,-25.2688 -0.4779,-5.051 -1.9006,-12.0325 -3.1616,-15.5143 -1.9562,-5.4012 -3.6326,-7.6518 -11.4193,-15.3306 -8.0764,-7.9644 -9.2081,-9.5178 -9.8351,-13.5 -1.7238,-10.9496 -5.296,-19.1578 -13.1191,-30.1454 l -3,-4.2135 0.2716,-18.8738 c 0.3004,-20.8708 0.8648,-18.2339 -7.6552,-35.7673 -4.4594,-9.177 -4.6164,-9.8109 -4.6164,-18.645 0,-7.5897 0.324,-9.503 1.905,-11.25 1.0477,-1.1578 2.6227,-2.0888 3.5,-2.069 4.0197,0.091 12.0384,9.9466 17.6336,21.6739 3.5926,7.53 4.8434,10.0782 10.205,20.7901 2.8258,5.6457 7.2267,22.2685 7.2446,27.364 0.018,5.1361 4.8683,23.768 7.2724,27.9364 1.1736,2.0348 4.4823,6.7348 7.3526,10.4445 6.3988,8.2699 7.7757,13.5129 6.8124,25.9393 -0.7419,9.5699 1.1754,20.4525 4.6904,26.623 1.0362,1.8189 1.884,3.9269 1.884,4.6844 0,0.7576 2.6383,4.6694 5.8629,8.6929 4.3123,5.3806 7.3828,8.109 11.6094,10.3155 6.2849,3.281 5.7461,2.3574 11.6654,20 2.0429,6.089 2.8452,10.0976 2.4805,12.3934 -0.5776,3.6362 -4.0806,8.1066 -6.3524,8.1066 -0.762,0 -3.7873,-2.2715 -6.7227,-5.0477 z m 42.9569,-72.7335 c -3.2313,-1.6202 -7.7717,-2.7888 -12.8352,-3.3037 -8.2741,-0.8413 -11.4053,-2.2518 -14.3569,-6.4675 -0.9943,-1.4202 -3.2724,-4.4644 -5.0623,-6.7649 -1.7899,-2.3005 -3.9415,-5.7577 -4.7814,-7.6827 -0.8398,-1.925 -2.1879,-4.6944 -2.9956,-6.1543 -1.6949,-3.0632 -1.9137,-6.4526 -0.474,-7.3424 2.5254,-1.5608 2.9598,-4.2916 1.0656,-6.6996 -1.0426,-1.3255 -2.2149,-4.1114 -2.605,-6.1908 -0.7809,-4.1623 -10.7821,-24.3438 -15.6063,-31.492 -2.556,-3.7872 -2.9672,-5.1934 -2.5078,-8.5755 0.4436,-3.2651 -0.019,-5.0552 -2.3958,-9.2803 -2.3143,-4.1134 -2.9453,-6.4698 -2.9455,-11 -2e-4,-4.5376 -0.6444,-6.9361 -3.0257,-11.2651 -3.6105,-6.5634 -4.2506,-7.9838 -6.5347,-14.5 -1.1235,-3.2054 -3.4909,-6.7247 -6.596,-9.8054 -2.6639,-2.6429 -4.8516,-5.5679 -4.8615,-6.5 -0.01,-0.932 -1.4028,-4.1696 -3.0951,-7.1946 -3.6586,-6.5396 -6.4835,-16.0457 -7.4293,-25 -0.3776,-3.575 -1.535,-8.4697 -2.572,-10.8771 -1.037,-2.4074 -1.8855,-4.7978 -1.8855,-5.3119 0,-2.2486 -5.6942,-12.7791 -9.6647,-17.8732 -2.3844,-3.0593 -4.3353,-5.9133 -4.3353,-6.3423 0,-0.429 0.9,-1.9242 2,-3.3226 2.7001,-3.4327 2.5176,-5.9083 -0.75,-10.1747 -8.3052,-10.8437 -10.2309,-15.4967 -8.4509,-20.4192 0.6605,-1.8265 1.2009,-3.7691 1.2009,-4.3169 0,-0.5477 -2.6979,-4.5657 -5.9953,-8.929 -3.2973,-4.3632 -5.9973,-8.6802 -6,-9.5933 0,-0.9131 -1.7116,-3.8381 -3.7978,-6.5 -3.6682,-4.6806 -8.2069,-13.8238 -8.2069,-16.5331 0,-1.9454 -4.8137,-10.7176 -8.3523,-15.2208 -3.9189,-4.9872 -6.1982,-9.2522 -7.0708,-13.2309 -0.3793,-1.7297 -2.4423,-5.5547 -4.5843,-8.5 -6.6885,-9.1965 -7.2488,-10.039 -9.5339,-14.3366 -3.4909,-6.5656 -3.8964,-9.8123 -1.4966,-11.9841 2.5229,-2.2832 2.5563,-3.6033 0.1682,-6.6494 -1.0283,-1.3117 -2.1985,-3.9599 -2.6005,-5.8849 -1.1424,-5.4707 -13.1588,-29.3064 -17.1635,-34.0454 -0.7808,-0.9239 -1.2176,-3.6045 -1.0861,-6.6656 0.1741,-4.0552 -0.2783,-5.7941 -2.1748,-8.3597 -1.8308,-2.4768 -2.5051,-4.9101 -2.8639,-10.3344 -0.3618,-5.4703 -1.2336,-8.5833 -3.8071,-13.5949 -3.2522,-6.3331 -4.7831,-9.7075 -7.7616,-17.108 -0.7986,-1.9844 -3.5267,-5.3421 -6.0624,-7.4617 -2.8831,-2.41 -4.6104,-4.6677 -4.6104,-6.0263 0,-1.1948 -1.7667,-5.712 -3.926,-10.0382 -3.2444,-6.5 -4.1127,-9.5532 -5.0008,-17.5835 -0.5912,-5.3448 -1.7249,-11.1948 -2.5194,-13 -0.7945,-1.8053 -2.6499,-6.4323 -4.1231,-10.2823 -1.4812,-3.8709 -4.8582,-9.7454 -7.5546,-13.1418 -2.6819,-3.378 -4.8761,-6.6587 -4.8761,-7.2905 0,-0.6318 0.9579,-2.4443 2.1286,-4.0278 2.6897,-3.638 2.093,-6.2777 -2.8735,-12.713 -2.0653,-2.676 -4.8268,-6.914 -6.1367,-9.4177 -2.3165,-4.4278 -2.3351,-4.6504 -0.6783,-8.1417 1.6051,-3.3826 1.6047,-3.7819 -0.01,-6.9285 -0.9406,-1.8364 -3.3872,-5.364 -5.437,-7.839 -2.0497,-2.475 -4.0128,-5.4 -4.3624,-6.5 -0.3496,-1.1 -3.107,-5.825 -6.1276,-10.5 -3.0206,-4.675 -5.4952,-9.4775 -5.4991,-10.6722 -0.01,-3.0535 -7.9673,-18.2361 -10.1776,-19.419 -1.0063,-0.5385 -1.8296,-1.4549 -1.8296,-2.0363 0,-0.5814 -0.8661,-2.1581 -1.9246,-3.5037 -1.225,-1.5575 -2.1715,-4.886 -2.6041,-9.1578 -0.7636,-7.5409 -1.9667,-9.8972 -8.1118,-15.8872 -4.7179,-4.5988 -6.1002,-8.0712 -4.4445,-11.1649 0.5967,-1.1151 1.085,-3.8168 1.085,-6.0039 0,-3.3728 -0.9011,-5.0794 -5.9355,-11.2408 -3.2646,-3.9954 -6.2262,-8.4231 -6.5815,-9.8393 -0.3553,-1.4162 -2.1843,-5.6979 -4.0645,-9.5149 -2.3819,-4.8355 -3.4185,-8.3272 -3.4185,-11.5148 0,-2.5545 -0.8243,-6.1139 -1.8667,-8.06 -1.0266,-1.9169 -2.1941,-4.978 -2.5942,-6.8026 -0.4002,-1.8245 -1.3574,-4.5245 -2.1272,-6 -0.7698,-1.4755 -1.4024,-3.37 -1.4057,-4.2101 0,-0.8402 -0.7061,-2.52672 -1.5614,-3.74792 -0.8554,-1.2212 -1.9799,-4.85703 -2.4988,-8.07954 -0.519,-3.22251 -2.2942,-8.38995 -3.9448,-11.48321 -1.6507,-3.09326 -3.0012,-6.72309 -3.0012,-8.06628 0,-1.34319 -1.125,-3.77916 -2.5,-5.41325 -2.824,-3.35616 -3.1971,-6.87846 -1.0318,-9.74124 2.7986,-3.7001 1.8249,-7.03279 -6.3096,-21.59594 -1.7372,-3.11014 -3.1586,-6.25923 -3.1586,-6.99796 0,-2.68511 -8.2234,-27.47826 -10.729,-32.34723 -1.4151,-2.75 -4.9033,-7.925 -7.7516,-11.5 -9.8283,-12.33611 -11.912,-18.50689 -7.5194,-22.26797 2.79,-2.38888 2.5164,-4.72551 -1.4036,-11.98563 -3.0983,-5.73828 -3.2809,-6.52547 -2.0355,-8.77509 2.0388,-3.68257 1.7314,-6.57253 -1.1647,-10.94884 -1.6355,-2.47133 -2.8652,-6.08945 -3.3064,-9.72856 -0.7243,-5.99899 -2.4458,-10.29391 -4.1229,-10.29391 -1.8618,0 -8.9637,-8.26315 -8.9637,-10.42945 0,-1.20356 0.6607,-3.0618 1.4682,-4.12942 2.2461,-2.9696 1.8863,-4.14408 -2.8285,-9.23397 -5.7442,-6.20113 -6.99961,-8.666 -5.6748,-11.14142 2.2899,-4.2789 0.2251,-12.55519 -6.37839,-25.56574 -3.9644,-7.81092 -4.0888,-8.59308 -2.3818,-14.97529 1.4275,-5.33743 0.3802,-9.1816 -4.6381,-17.02471 -4.4523,-6.95841 -7.85408,-14.55075 -10.97733,-24.5 -1.46757,-4.675 -3.28761,-9.85 -4.04453,-11.5 -0.75692,-1.65 -2.17301,-5.85422 -3.14686,-9.34272 -2.0562,-7.3657 -1.29423,-9.65728 3.21116,-9.65728 2.77739,0 2.8788,0.16464 2.58032,4.18931 -0.23556,3.17631 0.1876,4.6876 1.75,6.25 2.33246,2.33246 2.60198,4.1194 0.8809,5.84048 -1.70419,1.70419 0.48744,5.34018 5.34154,8.86188 8.1126,5.88572 8.8382,6.53688 8.8382,7.93091 0,0.78508 -0.9141,1.42742 -2.0313,1.42742 -2.5678,0 -3.6806,2.71921 -1.8554,4.53371 0.7627,0.75824 3.3961,2.43886 5.852,3.7347 2.97568,1.57012 5.14398,3.66967 6.49999,6.29383 1.401,2.71129 3.4363,4.6373 6.5347,6.18373 5.1082,2.54953 8,5.58453 8,8.3962 0,2.81918 -2.5957,3.34391 -6.9123,1.39737 -4.9245,-2.22064 -8.48721,-1.74653 -8.90391,1.1849 -0.2301,1.61898 0.5688,2.7626 2.93511,4.20165 3.2163,1.95595 9.8811,9.53469 9.8811,11.23608 0,0.48439 1.1627,1.41048 2.5839,2.05799 1.4366,0.6546 3.628,3.23792 4.9357,5.81858 2.7696,5.46548 7.3895,9.77068 13.8315,12.88918 4.4512,2.1548 5.8072,4.23817 3.633,5.58189 -0.6427,0.39722 -0.3838,1.69783 0.7048,3.54061 1.6958,2.87082 1.6789,2.95621 -1.1713,5.93117 -1.7692,1.8467 -3.9039,3.01841 -5.4991,3.01841 -2.4892,0 -2.6145,0.26051 -2.765,5.75 l -0.1576,5.75 7.3443,7 c 4.0393,3.85 7.6267,7.9 7.9719,9 0.3452,1.1 2.4944,3.125 4.776,4.5 4.807,2.89689 9.8119,7.47046 9.8119,8.9663 0,1.55766 -0.9082,1.31161 -7.7896,-2.11029 -7.7403,-3.84904 -9.3696,-3.04847 -6.2481,3.07007 3.2215,6.31468 8.3339,11.42121 17.6206,17.60035 7.9858,5.31356 10.2017,8.25256 7.4873,9.9302 -0.5114,0.31606 -0.8302,3.32272 -0.7083,6.68147 0.1918,5.28686 0.5926,6.42602 2.9856,8.48435 1.5202,1.30765 3.4079,2.37755 4.1948,2.37755 0.787,0 2.0764,1.54511 2.8655,3.43358 0.8197,1.96192 2.7728,4.12558 4.5568,5.0481 1.7171,0.88799 3.6432,2.83037 4.28,4.31642 0.6368,1.48604 2.0164,3.96531 3.0657,5.50948 2.4409,3.59195 1.6558,4.29845 -3.1699,2.85264 -5.3089,-1.5906 -9.0903,-1.45435 -9.7837,0.35251 -0.7712,2.00988 1.1744,4.20742 5.8264,6.58068 4.0249,2.05337 4.8047,4.35193 2.648,7.80538 -1.7824,2.85417 0.5832,7.42457 6.3358,12.24096 4.5346,3.79656 4.7929,4.24718 3.3492,5.84244 -1.9448,2.149 -1.1606,4.40311 2.0389,5.86092 3.1057,1.41503 3.0852,2.50741 -0.086,4.58521 -2.4874,1.62977 -2.5013,1.70856 -0.8085,4.57426 1.0853,1.83734 3.5936,3.68569 6.7809,4.99695 2.7822,1.14457 6.1835,2.68269 7.5585,3.41805 1.375,0.73536 5.1154,1.6531 8.312,2.03942 6.6955,0.80917 7.8434,2.29668 4.4168,5.72327 -1.6812,1.68118 -2.5918,4.0154 -3.0387,7.78896 -0.7191,6.07086 -0.2812,6.90545 5.045,9.61527 3.7426,1.90416 13.2767,9.34166 22.6881,17.69892 3.4943,3.10291 4.7368,4.85712 4.2813,6.04413 -0.856,2.2309 -3.9876,2.1221 -6.0999,-0.2119 -1.7327,-1.91463 -10.3123,-5.36486 -16.5213,-6.64393 -1.8792,-0.38712 -4.8042,-1.54994 -6.5,-2.58405 -7.439,-4.53628 -11.2491,-0.18616 -4.3771,4.99747 0.9383,0.70784 6.1085,2.78089 11.4893,4.60681 9.9489,3.376 10.7606,3.9748 11.7394,8.66022 0.3514,1.682 2.1518,3.7104 4.9218,5.5452 7.4013,4.9024 10.8844,8.2321 10.2743,9.8219 -0.6767,1.7636 -1.2828,1.7873 -11.0319,0.4313 -12.2882,-1.7091 -15.5853,1.7792 -6.3668,6.736 8.4023,4.518 9.5465,12.171 1.378,9.2172 -4.6377,-1.677 -8.736,-0.3312 -10.0083,3.2866 -2.134,6.0681 6.1111,12.2756 18.5239,13.9461 9.8597,1.3269 18.2611,4.1501 18.6974,6.283 0.1779,0.8693 -0.1596,1.5806 -0.75,1.5806 -1.64,0 -1.2773,3.7077 0.4267,4.3616 1.7425,0.6687 2.0429,3.6384 0.368,3.6384 -0.6225,0 -2.535,-0.8427 -4.25,-1.8726 -4.049,-2.4317 -11.3908,-3.5608 -13.2298,-2.0346 -3.7039,3.074 0.01,7.2301 12.4899,13.9955 6.6193,3.5869 6.622,3.5902 6.9317,8.3734 0.3079,4.7555 0.2931,4.7809 -2.4051,4.1037 -2.8749,-0.7215 -4.621,0.7073 -3.7233,3.0467 0.273,0.7114 2.6526,2.6771 5.288,4.3683 3.3094,2.1236 4.9638,3.9357 5.3483,5.858 0.325,1.6251 1.5578,3.2395 2.9626,3.8796 2.114,0.9631 2.393,1.7239 2.2988,6.2673 -0.079,3.792 -0.5701,5.4302 -1.8431,6.1426 -2.4004,1.3433 -2.1516,2.7492 1.2918,7.3002 1.6347,2.1605 2.9722,4.5125 2.9722,5.2266 0,0.7141 3.825,5.0806 8.5,9.7032 4.675,4.6227 8.5,9.0433 8.5,9.8235 0,2.5789 -2.3375,3.8186 -7.2,3.8186 -4.7165,0 -8.8,2.3432 -8.8,5.0497 0,2.7366 3.306,6.8114 8.4786,10.4504 3.1272,2.1999 6.8863,4.9358 8.3536,6.0797 1.4673,1.1439 3.4553,2.3673 4.4178,2.7186 2.0491,0.748 2.3722,3.7016 0.405,3.7016 -0.7398,0 -2.1595,-0.9 -3.155,-2 -0.9955,-1.1 -2.4311,-2 -3.1902,-2 -0.7591,0 -2.4258,-0.6851 -3.7038,-1.5225 -2.0714,-1.3573 -2.4597,-1.3587 -3.5765,-0.013 -2.6063,3.1404 1.2164,8.6259 13.8828,19.9215 2.5338,2.2596 3.1039,3.4133 2.6267,5.3147 -0.6327,2.5209 1.9259,5.5588 9.4076,11.1699 4.3043,3.2281 3.8831,6.4388 -0.9352,7.1294 -5.2848,0.7574 -5.0361,3.2586 0.9053,9.107 2.7958,2.7521 5.0833,5.65 5.0833,6.4399 0,0.7899 0.9,1.9982 2,2.6852 2.5001,1.5613 2.4953,2.1789 -0.044,5.613 -2.5534,3.4537 -1.9537,4.9522 3.3424,8.3514 2.3106,1.4831 6.5637,4.7805 9.4512,7.3276 4.3296,3.8191 5.25,5.2073 5.25,7.9186 0,1.8082 0.9,4.4317 2,5.8302 1.2927,1.6434 2,4.0568 2,6.8244 0,3.8801 0.4903,4.735 5.2252,9.1108 5.0375,4.6555 5.2283,5.0257 5.3144,10.3104 0.094,5.7648 -0.6305,6.4837 -3.9807,3.9497 -3.1213,-2.3608 -6.4208,-1.8667 -7.1584,1.0721 -0.6848,2.7286 1.7726,6.4597 4.2545,6.4597 2.0767,0 1.5896,1.7028 -0.655,2.2897 -2.461,0.6436 -2.6063,3.5465 -0.2633,5.2597 1.6367,1.1968 1.6223,1.3967 -0.25,3.4704 l -1.9867,2.2005 4.2482,3.7741 c 3.6796,3.269 4.1688,4.1708 3.6551,6.7389 -0.5071,2.5357 -0.067,3.3986 3.0435,5.9622 l 3.6364,2.9975 -1.7218,3 c -1.6965,2.9559 -1.675,3.0761 1.4584,8.1686 1.7491,2.8426 3.1802,5.3978 3.1802,5.6782 0,0.2803 -1.1365,0.9418 -2.5256,1.4699 -1.3891,0.5282 -2.8027,1.6822 -3.1413,2.5645 -0.9785,2.5501 4.4716,12.7159 9.7923,18.2647 2.681,2.796 4.8746,5.5426 4.8746,6.1034 0,0.5608 -1.1219,1.3012 -2.4931,1.6453 -3.5961,0.9026 -2.0501,2.4124 2.4703,2.4124 2.1226,0 4.571,0.2731 5.441,0.607 2.2204,0.852 1.9733,4.134 -0.367,4.8768 -2.4374,0.7736 -3.5951,4.1559 -2.0569,6.0094 1.26,1.5182 8.2888,3.9691 14.2435,4.9667 5.6726,0.9503 7.9647,6.7522 3.3593,8.5032 -3.2975,1.2537 -3.9037,2.5875 -2.0283,4.4628 2.2304,2.2305 4.3565,3.2071 8.6812,3.9878 2.3045,0.416 3.75,1.2377 3.75,2.1316 0,0.8001 -0.4019,1.4547 -0.893,1.4547 -2.789,0 -1.6084,6.44 1.5196,8.2888 0.9716,0.5743 1.1898,2.3423 0.8022,6.5 -0.2928,3.1412 -0.1715,6.1922 0.2694,6.7802 0.441,0.5879 2.9677,2.1043 5.6148,3.3697 2.9887,1.4286 5.6818,3.6768 7.105,5.931 1.2606,1.9967 5.3191,6.4619 9.0189,9.9228 10.6311,9.9442 11.0367,15.5247 1.0537,14.4944 -5.3737,-0.5546 -5.4006,-0.5434 -7.0593,2.9349 -1.5585,3.2682 -1.5558,3.6586 0.043,6.098 1.4875,2.2702 8.8366,7.9336 14.6234,11.269 1.0389,0.5988 2.6795,1.7679 3.6458,2.598 0.9663,0.8301 2.5444,1.7885 3.5069,2.1298 0.9625,0.3414 1.75,1.0848 1.75,1.652 0,1.5676 -3.5893,1.2312 -5,-0.4686 -0.6847,-0.825 -1.883,-1.5 -2.6629,-1.5 -0.78,0 -2.7685,-0.9984 -4.4191,-2.2187 -2.9827,-2.2053 -5.7316,-1.8405 -6.6387,0.8809 -0.5329,1.5987 8.0483,12.0696 13.1465,16.0416 2.7127,2.1134 4.8238,4.663 5.1291,6.194 1.1824,5.9309 2.1417,7.6497 5.4583,9.7798 6.1758,3.9667 6.978,4.7786 7.2346,7.3224 0.2251,2.2312 -0.085,2.4744 -2.8849,2.2615 -6.7487,-0.5131 -6.1504,5.7479 1.0761,11.2597 1.8925,1.4436 3.5805,3.6043 3.751,4.8017 0.19,1.3342 1.5683,2.7309 3.56,3.6076 3.7549,1.6527 4.3191,4.0695 0.95,4.0695 -5.7795,0 -5.0662,5.3924 1.2217,9.2369 1.9681,1.2033 5.9408,4.4075 8.8283,7.1205 4.1229,3.8737 5.2548,5.5993 5.2722,8.0377 0.012,1.7077 0.9023,4.2299 1.9778,5.6049 1.0755,1.375 1.9655,4.0219 1.9778,5.882 0.029,4.384 3.2087,9.4521 7.6546,12.1999 2.7279,1.6859 3.4063,2.662 2.9809,4.2888 -0.3029,1.1583 -0.043,3.8017 0.5782,5.8741 1.4357,4.7921 0.6756,5.5088 -3.0383,2.8643 -4.108,-2.9251 -7.943,-2.7946 -8.7189,0.2967 -0.9632,3.8376 2.0942,7.5942 6.1807,7.5942 4.6072,0 4.3066,1.803 -0.365,2.1896 -2.9799,0.2467 -3.75,0.7211 -3.75,2.3104 0,1.1149 0.9957,2.4368 2.25,2.9871 2.5047,1.0989 2.9957,2.5129 0.8724,2.5129 -0.7576,0 -1.9054,0.636 -2.5505,1.4134 -0.916,1.1036 -0.8175,1.7062 0.4492,2.75 4.7239,3.8922 5.4789,5.0247 5.4789,8.2179 0,2.6892 0.7164,3.9278 3.5,6.0509 3.7881,2.8893 4.3417,4.869 2.0128,7.1978 -1.3162,1.3162 -1.1731,2.0839 1.2443,6.6786 1.5023,2.8553 2.8831,5.5261 3.0685,5.9352 0.1853,0.4092 -0.8361,1.1899 -2.2699,1.735 -1.4338,0.5452 -2.8467,1.616 -3.1398,2.3798 -0.8848,2.3057 5.2647,13.8206 10.1435,18.9935 4.1782,4.4301 5.2183,7.6479 2.472,7.6479 -1.6464,0 -1.1918,2.8108 0.6183,3.8238 1.5834,0.8861 1.5607,2.2979 -0.1014,6.3172 -0.4471,1.0812 0.4044,2.8745 2.4965,5.2572 2.6806,3.0531 3.0766,4.1412 2.5426,6.9875 -0.54,2.8788 -0.114,3.9917 2.9172,7.6198 2.0786,2.4879 3.3368,4.9211 3.0362,5.8715 -0.2823,0.8927 0.3775,2.973 1.4663,4.623 2.2405,3.3952 2.6109,6.5678 0.7429,6.3629 -0.6875,-0.075 -3.5,-1.2653 -6.25,-2.6441 z m -186.1019,-112.1952 c -1.156,-0.4672 -3.181,-2.2506 -4.5,-3.9631 -1.3189,-1.7124 -3.2981,-4.2393 -4.3981,-5.6153 -1.2331,-1.5426 -4.8737,-3.4955 -9.4942,-5.093 -8.9832,-3.106 -11.5427,-4.9776 -14.4875,-10.5941 -3.2469,-6.1926 -3.648,-8.8497 -2.4834,-16.4492 2.8491,-18.591 2.2933,-23.7648 -3.79,-35.2788 -3.818,-7.2264 -7.2469,-17.8936 -7.2412,-22.5269 0,-1.6518 0.8955,-4.4657 1.9853,-6.2532 2.3264,-3.8156 5.7477,-4.3034 8.5402,-1.2177 1.0116,1.1177 3.3812,2.9853 5.2659,4.1501 3.1712,1.9599 3.6235,2.0031 6.0658,0.5794 1.4515,-0.8462 5.1455,-2.0922 8.209,-2.7689 6.9634,-1.5384 10.2502,-0.1263 14.4023,6.1875 1.5624,2.3758 3.6703,5.5389 4.6842,7.0291 1.014,1.4902 1.8436,3.0667 1.8436,3.5032 0,1.1342 5.7049,8.9778 11.1869,15.3809 3.933,4.5938 4.7938,6.3535 5.3518,10.9404 0.7836,6.4416 3.683,16.5603 6.0652,21.167 4.5059,8.7134 0.1865,24.8272 -9.2445,34.487 -6.8061,6.9712 -11.9233,8.7762 -17.9613,6.3356 z m -260.89804,-16.9055 c -4.93586,-0.9137 -9.33076,-3.1882 -12.12122,-6.2731 -6.47008,-7.1527 -14.37878,-21.9192 -14.37878,-26.847 0,-1.1342 -0.71912,-3.7353 -1.59804,-5.7801 -1.87394,-4.3598 -3.91708,-17.6923 -5.39696,-35.2179 -1.84864,-21.8927 -4.07944,-36.0499 -7.40598,-47 -0.91896,-3.025 -2.62242,-8.65 -3.78545,-12.5 -1.16304,-3.85 -2.93494,-9.7 -3.93755,-13 -1.00262,-3.3 -2.70237,-9.6 -3.77724,-14 -1.07487,-4.4 -2.84702,-11.6 -3.93811,-16 -1.0911,-4.4 -2.44526,-10.025 -3.00924,-12.5 -0.56399,-2.475 -1.92762,-7.875 -3.03029,-12 -1.10268,-4.125 -2.53679,-9.525 -3.18692,-12 -4.26309,-16.2292 -8.7567,-31.3087 -11.08105,-37.1854 -1.01924,-2.5769 -1.85317,-5.2277 -1.85317,-5.8905 0,-0.6627 -0.84605,-3.0543 -1.88011,-5.3146 -1.03406,-2.2602 -2.88801,-6.5845 -4.11989,-9.6095 -1.23188,-3.025 -3.08583,-7.3493 -4.11989,-9.6095 -1.03406,-2.2603 -1.89538,-4.5103 -1.91404,-5 -0.0187,-0.4898 -0.90339,-2.6905 -1.96607,-4.8905 -1.06268,-2.2 -1.94741,-4.607 -1.96607,-5.3489 -0.0187,-0.7418 -0.70595,-2.7668 -1.5273,-4.5 -1.42396,-3.0046 -2.91229,-7.7193 -5.57211,-17.6511 -0.66283,-2.475 -1.98817,-7.425 -2.94521,-11 -1.83992,-6.873 -3.415,-13.9475 -5.12071,-23 -0.56999,-3.025 -1.8986,-9.1146 -2.95247,-13.5324 -1.05387,-4.4178 -1.91613,-8.9032 -1.91613,-9.9676 0,-1.0644 -0.84972,-5.5498 -1.88826,-9.9676 -1.03854,-4.4178 -2.88455,-12.5324 -4.10225,-18.0324 -1.21769,-5.5 -3.00754,-13.15 -3.97742,-17 -0.96989,-3.85 -2.77804,-11.5 -4.01813,-17 -1.24009,-5.5 -3.10053,-12.4025 -4.13432,-15.339 -1.03379,-2.9364 -1.89489,-6.3114 -1.91355,-7.5 -0.0187,-1.1885 -0.90339,-3.961 -1.96607,-6.161 -1.06268,-2.2 -1.94741,-4.607 -1.96607,-5.3489 -0.0187,-0.7418 -0.68882,-2.7668 -1.48924,-4.5 -1.41088,-3.0549 -2.63061,-6.2514 -5.97216,-15.6511 -0.87985,-2.475 -2.26861,-5.6944 -3.08613,-7.1543 -0.81752,-1.4599 -1.4864,-3.1918 -1.4864,-3.8489 0,-0.657 -0.64704,-2.6125 -1.43787,-4.3457 -1.40588,-3.081 -4.59305,-12.6277 -8.56364,-25.6511 -1.08995,-3.575 -3.58744,-11.225 -5.54998,-17 -1.96254,-5.775 -3.91992,-11.85 -4.34974,-13.5 -0.42982,-1.65 -1.52787,-4.4402 -2.44013,-6.2003 -0.91225,-1.7602 -1.65864,-3.7192 -1.65864,-4.3534 0,-2.8308 -13.5303,-28.1035 -17.08905,-31.9199 -2.15402,-2.31 -4.18254,-5.2603 -4.50782,-6.5563 -1.28438,-5.1174 2.7609,-6.1541 5.39338,-1.3822 0.93692,1.6984 4.5521,6.5359 8.03372,10.75 3.48163,4.2142 7.66106,9.6222 9.28763,12.018 4.58156,6.7481 17.96365,30.6444 22.76097,40.6441 2.37474,4.95 5.17349,10.6642 6.21944,12.6981 1.04595,2.034 1.9045,4.284 1.90789,5 0.003,0.7161 0.72253,2.6519 1.59809,4.3019 2.30615,4.3459 7.31929,22.976 12.37813,46 1.08761,4.95 2.47433,11.025 3.08159,13.5 0.60726,2.475 1.92684,7.875 2.93241,12 3.25973,13.372 7.7459,28.3697 11.36671,38 1.34412,3.575 2.99287,8.075 3.66389,10 0.67101,1.925 2.01778,5.3 2.99281,7.5 0.97503,2.2 2.75948,6.475 3.96546,9.5 1.20597,3.025 3.05264,7.1642 4.10371,9.1981 1.05107,2.034 1.91381,4.284 1.9172,5 0.003,0.7161 0.5833,2.4269 1.28869,3.8019 0.7054,1.375 2.56327,6.55 4.12862,11.5 1.56534,4.95 3.68543,11.5893 4.71131,14.754 1.02587,3.1647 1.86522,6.5662 1.86522,7.5589 0,0.9926 0.60631,2.634 1.34736,3.6475 2.48025,3.3919 3.05336,-0.3547 2.89648,-18.9353 -0.0837,-9.9138 0.16469,-20.0501 0.55199,-22.5251 0.65299,-4.1729 0.92149,-4.5 3.694,-4.5 2.55319,0 3.46224,0.7906 6.22469,5.4134 5.24793,8.7822 10.09388,10.7467 18.78548,7.6154 5.92165,-2.1333 9.24153,-1.8782 12.04545,0.9257 2.3225,2.3225 2.45455,3.0755 2.45455,13.9961 0,9.214 0.43436,12.8026 2.15392,17.7954 2.82444,8.2009 6.78845,15.6792 12.78808,24.1255 5.64245,7.9434 6.61202,11.6428 5.03825,19.2236 -1.0544,5.079 -0.96189,5.7642 1.30767,9.6853 7.54822,13.041 5.4586,18.9981 -11.11892,31.698 -7.12659,5.4596 -9.4147,10.0662 -10.21553,20.5663 -0.74519,9.7706 -2.33817,14.016 -7.17146,19.1123 -2.9939,3.1568 -2.99402,3.1574 -1.92848,10 0.58609,3.7637 1.3447,9.318 1.68581,12.343 0.34111,3.025 1.01003,7.075 1.48649,9 0.47645,1.925 1.36669,8.225 1.97831,14 0.61161,5.775 1.76089,13.04 2.55394,16.1443 0.79306,3.1044 1.44192,6.9868 1.44192,8.6276 0,3.7765 2.15564,5.7504 4.75866,4.3573 1.03757,-0.5553 3.1693,-2.9491 4.73717,-5.3194 1.56787,-2.3704 3.95891,-5.9973 5.31342,-8.0598 4.25214,-6.4747 9.31504,-4.2069 16.09817,7.2108 2.28923,3.8534 5.01698,7.4636 6.06167,8.0227 2.82129,1.5099 6.76893,1.2343 9.68456,-0.6762 2.5423,-1.6657 2.6291,-1.6379 5.4577,1.75 3.5676,4.273 7.88858,17.3969 7.88858,23.9594 0,5.8063 1.7873,11.5478 7.03231,22.5915 7.3716,15.5211 8.1165,18.8963 7.6705,34.7589 -0.2944,10.474 -0.9502,16.0746 -2.5329,21.6329 -1.1746,4.125 -2.1434,10.0325 -2.1528,13.1279 -0.041,13.3524 -6.49801,18.928 -22.51709,19.4419 -4.94995,0.1589 -10.79995,-0.044 -12.99995,-0.4517 z m 144.99994,-55.5579 c -1.65,-0.7489 -6.375,-4.1669 -10.5,-7.5956 -4.125,-3.4287 -9.4304,-7.1024 -11.7898,-8.1637 -5.3011,-2.3846 -8.5033,-1.551 -16.2533,4.2313 -2.925,2.1823 -6.4096,3.9678 -7.7436,3.9678 -4.641,0 -9.8778,-5.4377 -18.7796,-19.5 -4.3254,-6.8329 -9.1748,-16.0974 -12.5625,-24 -1.6505,-3.85 -3.5987,-8.35 -4.3295,-10 -1.6108,-3.6372 -4.5641,-11.7377 -7.474,-20.5 -1.1873,-3.575 -2.6205,-7.85 -3.1851,-9.5 -2.2424,-6.5538 -5.1188,-16.5507 -7.9125,-27.5 -2.3769,-9.3153 -2.9377,-13.6302 -2.9522,-22.713 -0.014,-8.8242 -0.444,-12.2939 -2.0179,-16.287 -1.1,-2.7907 -2,-5.9686 -2,-7.062 0,-1.0934 -0.9,-4.5486 -2,-7.6783 -1.1,-3.1297 -1.9935,-6.606 -1.9855,-7.725 0.01,-1.1191 -0.8469,-4.9597 -1.8997,-8.5347 -2.49861,-8.4841 -4.99541,-18.3707 -6.06441,-24.0136 -0.47028,-2.4825 -1.52368,-6.7575 -2.34078,-9.5 -0.8171,-2.7425 -2.0112,-7.4614 -2.6536,-10.4864 -2.1243,-10.0034 -4.8551,-21.4482 -5.9636,-24.9934 -0.6008,-1.9214 -1.0924,-4.5679 -1.0924,-5.8811 0,-1.3132 -1.73187,-6.4912 -3.84867,-11.5066 -4.52626,-10.7242 -6.88266,-19.9854 -8.20117,-32.2324 -0.5262,-4.8876 -2.11769,-12.0365 -3.53665,-15.8865 -1.41895,-3.85 -3.22498,-9.025 -4.0134,-11.5 -0.78841,-2.475 -2.10096,-5.918 -2.91677,-7.6511 -0.81581,-1.7332 -1.48329,-3.7648 -1.48329,-4.5148 0,-0.7501 -0.9,-3.0429 -2,-5.0953 -1.1,-2.0523 -2,-4.5331 -2,-5.5127 0,-0.9796 -0.62348,-2.6712 -1.38551,-3.7592 -0.76203,-1.0879 -1.86844,-3.5506 -2.45869,-5.4725 -1.70609,-5.5553 -5.1411,-15.3114 -6.15954,-17.4944 -3.07258,-6.5859 -10.87791,-32.6977 -13.15247,-44 -0.55343,-2.75 -1.98219,-9.05 -3.17502,-14 -2.08491,-8.652 -2.16081,-10.8268 -1.96301,-56.2436 0.19309,-44.3343 0.33161,-47.6662 2.24933,-54.1056 1.12397,-3.7741 2.33005,-8.952 2.68017,-11.5064 0.35012,-2.5544 1.08708,-4.6444 1.63767,-4.6444 1.25396,0 0.002,19.0785 -1.34202,20.45 -0.5436,0.5547 -0.93091,17.8076 -0.93091,41.4676 0,36.3754 0.19486,41.3388 1.906,48.55 1.0483,4.4178 2.35956,10.7324 2.9139,14.0324 2.03033,12.0865 5.34767,23.6767 9.15903,32 1.03793,2.2666 5.50348,14.346 9.05731,24.5 0.67373,1.925 1.90179,5.075 2.729,7 0.82722,1.925 1.8655,4.85 2.30728,6.5 0.44178,1.65 2.40217,7.5 4.35642,13 1.95424,5.5 3.5572,10.7376 3.56212,11.6392 0.005,0.9016 0.90894,2.7016 2.00894,4 l 2,2.3608 1.86282,-2.1914 c 1.02455,-1.2052 2.16242,-4.065 2.5286,-6.3549 0.36618,-2.29 1.38055,-5.5458 2.25414,-7.2352 1.60539,-3.1045 1.52524,-13.8569 -0.24479,-32.84 -0.77396,-8.3006 1.35245,-16.3291 5.31258,-20.058 1.5326,-1.4432 6.7036,-4.6932 11.491,-7.2223 11.29829,-5.9686 14.27869,-6.0376 20.31789,-0.4708 2.4628,2.27 4.4805,4.6325 4.4839,5.25 0,0.6174 0.6816,2.4178 1.5071,4.0007 2.7535,5.2797 5.6505,22.8453 6.5348,39.6219 0.4783,9.075 0.6494,34.3721 0.3803,56.2158 -0.4812,39.0472 -0.5317,39.8453 -3.0007,47.4088 -5.4709,16.7598 -14.0742,21.1611 -24.1208,12.3399 -5.67059,-4.9788 -6.88139,-3.78 -5.31921,5.2667 0.5954,3.4478 1.7089,8.9688 2.4745,12.2688 0.7656,3.3 1.7014,8.925 2.0795,12.5 0.3782,3.575 1.07381,7.2351 1.54581,8.1336 0.4721,0.8984 1.3464,4.9484 1.9429,9 0.5965,4.0515 1.7337,9.063 2.5271,11.1366 0.7934,2.0737 1.4425,5.1094 1.4425,6.7461 0,1.6366 0.8676,5.565 1.928,8.7297 1.0604,3.1647 2.2179,7.625 2.5723,9.9118 1.1463,7.3969 1.9547,7.8572 13.1817,7.5056 8.8603,-0.2774 10.1428,-0.089 12.6107,1.8522 3.4152,2.6864 5.2345,6.2147 6.0933,11.817 1.0649,6.9477 4.8723,13.4433 9.0464,15.4338 1.9995,0.9535 4.1827,1.725 4.8515,1.7146 2.6693,-0.042 10.8255,-6.194 13.2016,-9.9581 1.3877,-2.1982 4.469,-6.0276 6.8474,-8.5098 3.5034,-3.6564 4.9843,-4.5131 7.8014,-4.5131 3.9049,0 8.3497,2.8681 14.0002,9.034 1.9989,2.1813 4.1214,3.966 4.7166,3.966 0.5952,0 3.3622,-2.025 6.1489,-4.5 2.7867,-2.475 5.6655,-4.5 6.3974,-4.5 1.5396,0 6.0594,6.3327 7.1373,10 0.4041,1.375 1.3491,3.3876 2.1,4.4725 0.7509,1.0849 1.3653,2.7101 1.3653,3.6117 0,1.5766 4.7189,12.2798 7.2374,16.4158 3.5724,5.8665 4.3393,7.4143 5.9457,12 2.3538,6.7191 2.3151,11.7391 -0.1074,13.9315 -1.8354,1.661 -2.2705,1.6219 -9.418,-0.845 -9.6748,-3.3393 -12.1108,-3.2872 -15.7346,0.3366 -2.4236,2.4235 -2.923,3.7479 -2.9226,7.75 5e-4,5.17 2.2932,12.1559 6.2925,19.1739 2.5128,4.4094 8.1271,8.8624 18.9159,15.0033 7.5635,4.3051 13.7911,11.3655 13.7911,15.6355 0,6.5632 -5.4565,8.0838 -15.9617,4.4483 -3.2833,-1.1363 -7.4476,-1.9238 -9.254,-1.75 -2.7489,0.2644 -3.3361,0.7662 -3.6019,3.0783 -0.1747,1.5194 0.8378,5.2862 2.25,8.3709 3.6111,7.8877 3.5795,15.5244 -0.078,18.9144 -2.9699,2.7524 -5.4572,3.008 -9.854,1.0125 z m 142,-41.3324 c -2.2,-1.5204 -5.3159,-4.0054 -6.9242,-5.5222 -1.6083,-1.5168 -6.1956,-4.5637 -10.1941,-6.7709 -12.704,-7.0127 -14.8026,-11.5452 -12.0338,-25.9887 2.1907,-11.4281 2.1508,-11.9627 -1.4692,-19.7054 -3.0528,-6.5295 -3.0952,-6.8213 -1.9364,-13.3056 1.2509,-6.9999 1.1609,-7.4494 -4.2943,-21.435 -1.8753,-4.8078 -2.1055,-11.6425 -0.448,-13.3 3.564,-3.564 11.0242,1.6416 15.6272,10.9044 1.2014,2.4176 2.5808,5.0706 3.0653,5.8956 1.1242,1.914 4.3388,9.7975 7.1359,17.5 1.1984,3.3 3.115,8.4585 4.2592,11.4633 1.4841,3.8973 2.2107,8.6239 2.5348,16.4898 0.5247,12.7369 2.2774,17.9685 7.9877,23.8426 l 3.6899,3.7957 0,9.1847 c 0,10.6607 -0.6702,11.3262 -7,6.9517 z m -83.5,-67.6996 c -1.375,-0.7933 -3.4,-1.8693 -4.5,-2.3911 -2.4126,-1.1446 -8.4295,-7.4974 -11.0218,-11.6371 -7.4534,-11.9028 -8.9895,-18.4455 -8.1,-34.5 0.7366,-13.294 -0.8109,-20.6104 -6.333,-29.9428 -3.6425,-6.1556 -7.013,-16.0432 -7.0323,-20.6291 -0.019,-4.5262 2.4803,-11.4691 8.9736,-24.9281 7.3638,-15.2632 8.7679,-22.4913 6.5791,-33.8663 -0.8326,-4.3265 -1.9472,-8.3885 -2.4769,-9.0268 -1.9906,-2.3986 -6.1675,-17.1349 -5.5574,-19.6069 1.0646,-4.3137 4.3941,-7 8.6763,-7 5.031,0 12.9941,4.0868 16.2304,8.3298 2.3893,3.1326 2.562,4.098 2.562,14.3235 0,12.5924 0.7308,14.2927 6.5498,15.2385 7.412,1.2048 10.2678,9.4339 9.0123,25.9689 -0.3608,4.7516 -1.1149,10.9928 -1.6758,13.8693 -0.8362,4.2884 -0.6344,7.1339 1.1206,15.8043 1.1773,5.8158 2.7371,12.0123 3.4662,13.77 0.7292,1.7576 1.6304,6.5707 2.0026,10.6957 0.6186,6.8542 0.4551,7.9136 -1.8994,12.3029 -3.5121,6.5475 -3.278,10.3566 1.5259,24.8343 3.5205,10.6097 4.1232,13.6834 4.25,21.6759 l 0.1478,9.3131 -4.6918,4.4369 c -4.346,4.1099 -5.083,4.4358 -10,4.4222 -2.9195,-0.01 -6.4332,-0.6638 -7.8082,-1.4571 z m -75,-145.395 c -5.8323,-3.6663 -10.8515,-10.2027 -16.5232,-21.5179 -2.513,-5.0134 -6.3611,-12.2653 -8.5513,-16.1153 -2.1902,-3.85 -4.4633,-8.125 -5.0514,-9.5 -0.5881,-1.375 -1.8739,-4.3 -2.8574,-6.5 -5.5887,-12.5022 -6.7807,-25.0345 -4.6223,-48.5957 0.9606,-10.4848 0.084,-16.5554 -3.669,-25.4043 -3.0951,-7.2981 -3.0643,-23.2258 0.056,-29.1839 4.2596,-8.1326 8.9577,-9.3032 14.3124,-3.5661 4.5061,4.8278 6.7363,9.8714 7.5263,17.0207 0.5704,5.162 2.9321,12.6781 5.5111,17.5393 9.1199,17.1901 12.834,22.3992 23.3031,32.6834 3.6356,3.5713 7.8218,8.7463 9.3028,11.5 2.5365,4.7165 2.6903,5.7599 2.6532,18.0066 -0.027,9.0251 -0.5671,14.9874 -1.7653,19.5 -0.9711,3.6569 -2.1368,13.6278 -2.6651,22.7959 -0.5165,8.9628 -1.4517,17.2878 -2.0782,18.5 -3.3726,6.5257 -7.7018,7.351 -14.8821,2.8373 z M 881.01264,1213.1478 c -2.44406,-0.4695 -7.8379,-3.6897 -11.69436,-6.9817 -1.15967,-0.99 -3.02554,-4.2749 -4.14638,-7.2999 -1.12085,-3.025 -3.09537,-8.2 -4.38783,-11.5 -1.94098,-4.9559 -2.32302,-7.6532 -2.19534,-15.5 0.085,-5.225 0.19663,-18.9262 0.24804,-30.4471 l 0.0935,-20.9471 2.68536,-2.8029 c 3.45058,-3.6016 6.22516,-3.5459 9.81117,0.1971 1.5808,1.65 3.83539,3 5.01019,3 1.18271,0 4.52542,-2.2315 7.48981,-5 5.62052,-5.2491 7.05356,-5.8453 8.84921,-3.6817 1.59992,1.9278 5.08101,20.7633 5.76283,31.1817 0.56414,8.6202 3.58318,20.0712 7.08333,26.8665 0.81206,1.5766 1.72877,6.2024 2.03713,10.2795 0.49318,6.521 0.3159,7.6803 -1.47308,9.6335 -2.57271,2.809 -5.81176,9.2768 -6.69406,13.3668 -0.3733,1.7305 -1.44071,3.8137 -2.37204,4.6294 -4.19076,3.6705 -11.39831,5.9105 -16.10744,5.0059 z m 222.91406,-46.7017 c -6.3952,-4.3034 -11.6514,-11.1599 -20.7593,-27.0799 -2.8319,-4.95 -8.1477,-12.375 -11.8129,-16.5 -7.993,-8.9957 -10.833,-13.296 -13.3774,-20.2558 -2.5813,-7.0604 -3.0763,-13.0288 -4.0843,-49.2442 -0.7969,-28.6327 -1.9643,-45.0701 -3.3614,-47.3307 -0.3109,-0.503 -1.4497,-6.2594 -2.5306,-12.79202 -1.0809,-6.53253 -2.607,-13.90235 -3.3914,-16.37735 -0.7844,-2.475 -2.4194,-7.875 -3.6334,-12 -1.2141,-4.125 -2.7977,-9.3 -3.5191,-11.5 -0.7215,-2.2 -1.8808,-6.25 -2.5762,-9 -0.6954,-2.75 -1.6439,-5.4954 -2.1079,-6.10089 -0.4639,-0.60549 -1.1401,-3.30549 -1.5027,-6 -0.3626,-2.69451 -1.2322,-5.79911 -1.9324,-6.89911 -0.7003,-1.1 -2.0024,-5.6 -2.8936,-10 -2.598,-12.82665 -3.2823,-15.63199 -5.4592,-22.38027 -1.132,-3.50915 -2.061,-7.10915 -2.0644,-8 0,-0.89085 -0.6826,-2.91677 -1.5093,-4.50204 -0.8267,-1.58527 -1.7612,-4.73527 -2.0765,-7 -0.3154,-2.26473 -1.3984,-6.14269 -2.4067,-8.61769 -1.751,-4.29819 -5.1132,-17.2615 -6.5517,-25.26105 -0.372,-2.06857 -1.0753,-4.00763 -1.563,-4.30901 -0.4876,-0.30139 -0.8866,-1.70671 -0.8866,-3.12294 0,-3.04376 -1.9832,-10.40262 -3.1685,-11.757 -1.34691,-1.53901 -0.95151,-4.55 0.5976,-4.55 1.4089,0 2.9737,4.42679 5.5684,15.75308 0.6619,2.8892 1.5661,5.4772 2.0093,5.75112 0.4432,0.27392 1.1158,2.86003 1.4947,5.74692 0.3788,2.88688 1.2883,6.19559 2.0209,7.35268 0.7327,1.15709 1.6246,3.85709 1.982,6 0.3575,2.14291 1.4763,5.9212 2.4864,8.3962 1.01,2.475 2.147,6.3 2.5266,8.5 0.3796,2.2 1.3523,6.025 2.1614,8.5 1.585,4.84799 2.6268,9.33633 4.8414,20.85806 0.7778,4.04693 1.8304,7.87193 2.3391,8.5 0.5087,0.62807 1.6178,4.29194 2.4648,8.14194 1.4389,6.54067 2.7177,11.19923 7.549,27.5 2.4944,8.41627 8.787,26.00193 10.1037,28.23643 0.5628,0.95504 1.0232,2.63309 1.0232,3.729 0,2.90798 3.6026,14.56192 9.5937,31.03464 1.3003,3.575 2.3736,7.2247 2.3852,8.1105 0.012,0.8857 1.1461,3.2682 2.5211,5.2944 1.375,2.0261 2.5,4.9034 2.5,6.3938 0,3.4209 3.9975,14.574 8.5217,23.7759 1.9131,3.891 3.4936,7.491 3.5122,8 0.019,0.509 0.9034,2.7254 1.9661,4.9254 1.0627,2.2 1.9474,4.6431 1.9661,5.4291 0.036,1.5197 2.9027,11.6577 6.0995,21.5709 1.0641,3.3 1.9347,6.6257 1.9346,7.3905 -10e-5,0.7647 0.8444,3.2397 1.8767,5.5 2.3708,5.1908 5.0647,12.6458 8.712,24.1095 1.5749,4.95 5.2575,13.7163 8.1835,19.4807 4.2656,8.4035 5.2613,11.2774 5.0238,14.5 -0.2817,3.8219 -0.4681,4.03 -3.7962,4.2368 -2.2988,0.1429 -4.7012,-0.5907 -7,-2.1376 z m -154.49994,-40.4644 c -5.81238,-3.6367 -10.16421,-9.3267 -11.56061,-15.1155 -2.07695,-8.61 -1.82494,-44.0557 0.39815,-56 0.97248,-5.225 2.1531,-11.8444 2.6236,-14.7098 0.47049,-2.8654 1.77196,-7.8582 2.89216,-11.0951 1.12019,-3.2369 2.34765,-8.3175 2.72769,-11.2902 0.38005,-2.9727 1.30479,-6.6201 2.055,-8.1052 0.75021,-1.4852 1.36401,-4.2959 1.36401,-6.2461 0,-1.9501 0.86687,-6.13502 1.92639,-9.29972 1.05951,-3.16466 2.22554,-7.32895 2.59117,-9.25395 0.36563,-1.925 1.24521,-5.3 1.95461,-7.5 0.7094,-2.2 1.61079,-7.96171 2.00308,-12.80381 0.57994,-7.15825 1.14992,-9.30777 3.04944,-11.5 4.06728,-4.69404 4.70183,-2.31107 3.97505,14.9278 -1.02118,24.22206 -0.83136,60.47418 0.37111,70.87608 2.50114,21.6359 2.51741,24.9669 0.16781,34.3457 -1.92979,7.703 -2.07379,9.6315 -1.12576,15.0755 2.13264,12.2466 1.52421,17.6971 -3.05285,27.3488 -4.3272,9.1248 -6.42802,12.2325 -8.26504,12.2263 -0.60225,0 -2.44501,-0.8484 -4.09501,-1.8808 z m -443,-27.9024 c -1.07171,-1.0742 -8.04996,-2.896 -15.71872,-4.1035 -2.5953,-0.4087 -5.55505,-1.4999 -6.57723,-2.4249 -1.02218,-0.9251 -4.97375,-2.6428 -8.78128,-3.8171 -3.80752,-1.1744 -7.59777,-2.6802 -8.42277,-3.3462 -0.825,-0.6661 -4.2,-2.702 -7.5,-4.5242 -12.15166,-6.7101 -22.70283,-16.9022 -40.72121,-39.3353 -13.33856,-16.6067 -15.14705,-20.1986 -13.01442,-25.8486 0.77455,-2.052 0.74694,-3.001 -0.10287,-3.5362 -2.40687,-1.516 -11.45541,-4.4365 -19.54416,-6.3082 -4.61047,-1.0669 -9.78547,-2.8238 -11.5,-3.9044 -1.71454,-1.0805 -5.89136,-3.57922 -9.28183,-5.55282 -10.19486,-5.93427 -13.72754,-9.88527 -20.57536,-23.01175 l -6.26015,-12 0.0627,-20 c 0.041,-13.09805 0.49629,-21.38039 1.3192,-24 0.6911,-2.2 1.86873,-6.25 2.61696,-9 2.11772,-7.78331 4.68833,-14.85378 5.99891,-16.5 1.84946,-2.32311 5.24141,-10.04808 6.45801,-14.70778 0.60423,-2.31428 1.49599,-4.45337 1.98168,-4.75354 1.70704,-1.05501 3.10903,-14.16881 2.83723,-26.53868 -0.29756,-13.54281 0.61782,-17.37227 6.96925,-29.15558 1.51585,-2.81225 3.39365,-6.29021 4.17287,-7.7288 1.6821,-3.10547 25.09962,-26.63531 40.47756,-40.6717 5.99188,-5.46915 12.53749,-12.19392 14.54579,-14.94392 4.72787,-6.47396 11.70167,-21.08354 13.12697,-27.5 1.95355,-8.79455 10.21064,-30.57895 16.04509,-42.33118 2.1383,-4.30715 3.88782,-8.9759 3.88782,-10.375 0,-2.2882 -0.29885,-2.48405 -2.97405,-1.94901 -2.10778,0.42156 -4.65644,-0.21006 -8.75,-2.16845 -13.33511,-6.37962 -17.69489,-10.85273 -21.56362,-22.12415 -1.91228,-5.57137 -1.86495,-6.92846 0.45625,-13.08161 2.62845,-6.96764 15.73444,-15.80037 29.00611,-19.54857 10.78992,-3.04729 12.41716,-3.3748 16.88418,-3.39817 5.71729,-0.0299 7.15024,-1.09376 12.84468,-9.53604 4.4924,-6.6602 7.4161,-9.5015 8.57971,-8.33789 0.31855,0.31855 -0.0548,1.87763 -0.82976,3.46463 -4.87558,9.98495 -4.75322,9.43685 -9.15595,41.0118 -0.77659,5.5695 -2.05602,11.6445 -2.84317,13.5 -0.78715,1.8555 -2.47582,5.84864 -3.75261,8.87364 -1.27678,3.025 -6.61606,13.15 -11.86506,22.5 -5.24899,9.35 -10.50571,19.025 -11.68159,21.5 -5.0908,10.71506 -6.35516,13.83423 -6.35516,15.67803 0,1.07743 -0.72812,4.40314 -1.61804,7.39047 -1.41435,4.74775 -1.46585,6.8792 -0.40908,16.9315 0.98998,9.41695 0.96608,12.22454 -0.13196,15.5 l -1.34092,4 -7,0.57636 c -7.63055,0.62827 -13.1501,2.41513 -19.13952,6.19608 -5.01447,3.1655 -25.38801,21.93228 -31.9941,29.47088 -9.83431,11.22253 -13.49225,21.49679 -10.21462,28.69041 1.47393,3.23492 3.51656,3.83756 11.56498,3.41199 5.37897,-0.28442 6.73635,-0.0354 7.65563,1.40428 1.89209,2.96327 -0.38265,4.78849 -9.74457,7.81894 -4.86115,1.57355 -9.52726,3.43266 -10.36914,4.13135 -2.87536,2.38634 -6.21769,8.6912 -6.89052,12.99803 -0.36961,2.36592 -1.50365,5.87002 -2.52008,7.78687 -1.01643,1.91686 -1.84806,4.28099 -1.84806,5.25363 0,0.97263 -0.9,3.44763 -2,5.5 -1.1,2.05236 -2.01431,4.41323 -2.0318,5.24637 -0.0175,0.83315 -0.6925,2.38832 -1.5,3.45594 -0.80751,1.06762 -1.4682,2.65997 -1.4682,3.53856 0,0.87858 -0.8967,3.35625 -1.99266,5.50591 -2.56368,5.02851 -4.90861,13.81112 -6.54528,24.5144 -0.71486,4.675 -1.78627,10.92392 -2.38091,13.88649 -1.45966,7.27228 -1.35891,13.01968 0.40383,23.03612 1.64898,9.37002 2.82129,11.44192 13.05745,23.07739 7.09671,8.06685 12.47023,11.98448 16.45757,11.99861 1.375,0.005 3.88513,0.85352 5.57806,1.88587 3.6125,2.20287 12.46978,4.25657 28.42194,6.58989 6.325,0.9252 13.81075,2.1564 16.635,2.736 6.62576,1.3599 64.45131,0.4307 69.365,-1.1145 1.925,-0.6054 7.325,-1.5702 12,-2.1441 11.96528,-1.46862 28.1294,-4.83642 30.5,-6.35458 3.50066,-2.24185 7.47877,-2.81609 8.11017,-1.17068 1.28874,3.35834 -7.5304,11.39036 -19.11017,17.40436 -14.26266,7.4075 -39.17376,12.6379 -65.65307,13.7848 -13.204,0.5719 -16.45203,0.4167 -20.75959,-0.9922 -2.80859,-0.9187 -6.78971,-1.6075 -8.84694,-1.5307 -2.05722,0.077 -5.41993,-0.1953 -7.47268,-0.6045 -7.63859,-1.5229 -5.98199,3.018 7.11827,19.5118 8.60425,10.8332 18.32579,20.4597 25.61401,25.3638 15.31635,10.3061 24.67322,15.6362 27.44894,15.6362 0.90808,0 2.07856,0.4218 2.60106,0.9374 1.41979,1.4009 24.64725,5.0626 32.11403,5.0626 6.91206,0 16.5999,-1.99 24.8553,-5.1057 2.76063,-1.0419 5.38211,-1.8943 5.82552,-1.8943 4.73141,0 37.12297,-24.7371 53.99322,-41.2341 5.51725,-5.3952 10.51074,-9.6453 11.09665,-9.4447 3.0639,1.049 -2.47674,11.9751 -8.60784,16.9747 -2.16112,1.7622 -5.03526,5.3346 -6.387,7.9384 -2.82222,5.4366 -14.66391,18.2019 -21.78029,23.4793 -6.6311,4.9174 -29.83068,16.173 -37.15959,18.0284 -3.3,0.8355 -7.27998,2.1688 -8.84439,2.963 -3.48028,1.7668 -23.68883,2.9783 -25.15561,1.5081 z m -39.7,-464.41317 c 2.60207,-2.60207 0.82619,-8.8 -2.52144,-8.8 -2.25378,0 -3.77083,4.62417 -2.46051,7.5 1.23543,2.71149 3.08724,3.19471 4.98195,1.3 z m 378.75426,443.47307 c -6.96992,-1.7733 -11.72007,-7.7476 -14.5674,-18.3218 -0.79072,-2.9365 -3.06002,-5.6872 -9.6093,-11.6478 -4.71576,-4.2919 -11.07213,-11.1217 -14.12527,-15.1774 -4.87951,-6.4818 -5.43836,-7.6917 -4.61894,-10 0.89181,-2.5122 1.25594,-2.6275 8.39944,-2.6615 4.10696,-0.019 13.3194,-0.4144 20.47208,-0.8776 l 13.00487,-0.8422 4.49513,3.4219 c 4.46703,3.4005 4.499,3.4685 5.11443,10.8776 0.34061,4.1007 0.67811,11.1482 0.75,15.6611 l 0.1307,8.2053 5.5,5.6334 c 3.025,3.0984 5.5,6.0866 5.5,6.6404 0,0.5538 -0.8942,2.2626 -1.9871,3.7975 -3.28469,4.6129 -11.67309,7.0174 -18.45864,5.2911 z m 155.94568,-28.2555 c -9.56319,-4.4032 -13.76359,-22.0739 -13.52399,-56.89452 0.098,-14.31166 -0.3467,-23.98944 -1.4547,-31.62305 -2.8194,-19.42369 -3.0414,-27.61206 -0.9092,-33.54141 1.8706,-5.20208 4.7976,-7.78283 7.6052,-6.70548 1.93208,0.74142 4.78268,10.5535 4.78268,16.46234 0,8.95955 4.43721,9.68497 8.67191,1.41774 2.8638,-5.59084 4.2209,-7.13319 6.2762,-7.13319 3.1619,0 5.8106,4.32282 7.5768,12.36559 1.7841,8.12441 1.6417,15.25913 -0.5316,26.63441 -1.5348,8.03341 -3.2898,25.43785 -3.378,33.50007 -0.052,4.7503 0.801,10.1687 2.6541,16.8595 3.2792,11.8404 3.2859,12.0376 0.6229,18.4456 -3.166,7.6182 -12.6225,12.8689 -18.3923,10.2124 z m -284.49994,-47.0672 c -7.975,-0.3845 -18.2125,-0.7556 -22.75,-0.8247 -4.5375,-0.069 -8.25,-0.5049 -8.25,-0.9685 0,-0.4636 11.88443,-1.1537 26.40985,-1.5335 14.52542,-0.3799 30.16292,-1.14172 34.75,-1.69292 4.58708,-0.5512 12.16515,-1.4272 16.84015,-1.9467 12.29306,-1.3661 31.6133,-6.45259 35.36852,-9.31159 1.72231,-1.31126 5.83148,-3.61827 9.13148,-5.12669 3.3,-1.50841 9.15,-4.2458 13,-6.08308 3.85,-1.83728 8.35,-3.64463 10,-4.01634 1.65,-0.37171 5.82799,-2.19921 9.28442,-4.0611 3.45644,-1.86189 6.77803,-3.38525 7.38133,-3.38525 1.40236,0 17.8642,-9.36455 24.07399,-13.69483 2.60686,-1.81784 5.0124,-3.30517 5.34563,-3.30517 1.33485,0 6.41463,-4.21279 6.41463,-5.31981 0,-0.65099 -2.06235,-2.2777 -4.583,-3.6149 -5.45606,-2.89443 -10.0789,-8.37012 -13.98521,-16.56529 -2.51203,-5.27005 -2.86433,-7.15575 -2.89588,-15.5 -0.0266,-7.02912 0.47198,-10.86924 1.91683,-14.76444 2.09344,-5.64377 2.14595,-5.16317 -2.0469,-18.73556 -6.17003,-19.97258 -7.39975,-26.76785 -7.3292,-40.5 0.0702,-13.66744 0.47223,-17.49437 3.2564,-31 3.3074,-16.04378 10.94132,-27.00896 21.47827,-30.85093 10.89683,-3.97318 23.05309,-2.18012 29.139,4.29804 2.03781,2.16915 2.38199,3.50082 2.30012,8.89951 -0.053,3.49177 -0.84041,8.10473 -1.74992,10.25102 -0.9095,2.1463 -2.91894,11.14004 -4.46541,19.98609 -2.92802,16.74866 -3.83725,19.31369 -10.07272,28.41627 -2.07219,3.025 -4.05975,6.49038 -4.41679,7.70083 -1.81035,6.13761 6.23753,18.33468 12.0508,18.26373 3.66333,-0.0447 6.48524,-1.64767 9.61994,-5.46456 3.74675,-4.56212 10.78367,-17.10712 10.78367,-19.22447 0,-2.3715 1.86958,-4.27553 4.19816,-4.27553 1.80382,0 7.74562,8.24897 7.78284,10.80486 0.0104,0.71768 0.9582,3.36653 2.10611,5.88635 1.77567,3.89784 2.0368,6.10479 1.75,14.79017 -0.33413,10.11855 -0.37026,10.24912 -4.09137,14.78715 -2.66278,3.24736 -5.76456,5.50506 -10.66894,7.76564 -11.34878,5.23099 -16.34778,12.31581 -16.48876,23.36865 -0.0628,4.92345 0.29475,7.03439 1.2469,7.36165 2.28903,0.78675 24.08235,-22.94635 33.30047,-36.26447 4.23231,-6.11473 11.47263,-18.91553 15.2716,-27 1.5507,-3.3 3.4887,-7.35641 4.30667,-9.01425 2.25905,-4.5786 1.40584,-7.86628 -2.20256,-8.48721 -2.35147,-0.40464 -3.44622,-1.4776 -5.13335,-5.03119 -2.48847,-5.24145 -4.37233,-20.16107 -4.38859,-34.75657 -0.006,-5.7047 -0.62517,-11.73591 -1.5,-14.61971 -2.93722,-9.68225 -1.68956,-16.09115 3.69731,-18.99217 3.35562,-1.80712 3.46219,-1.80024 8.29235,0.53523 2.69118,1.30123 5.35845,3.26587 5.92728,4.36587 2.72685,5.27314 5.73152,9.5 6.75311,9.5 1.18401,0 0.82918,-6.49692 -1.11961,-20.5 -1.49921,-10.77258 -1.33395,-21.5 0.33121,-21.5 0.94257,0 1.58266,1.95259 2.04887,6.25 0.37292,3.4375 1.50485,9.4 2.5154,13.25 1.11693,4.25528 2.29923,14.44995 3.01528,26 1.74087,28.08063 -0.005,43.44707 -7.04721,62.01933 -1.04675,2.76063 -1.90317,5.41134 -1.90317,5.89046 0,0.47913 -0.94886,2.94544 -2.10858,5.48068 -1.15971,2.53524 -3.02613,6.63453 -4.1476,9.10953 -1.12146,2.475 -2.42587,5.175 -2.89868,6 -0.47281,0.825 -1.41878,2.625 -2.10214,4 -5.10846,10.27869 -18.608,26.79434 -37.243,45.56393 -17.75816,17.88642 -35.90884,32.07048 -50.3998,39.38549 -3.27498,1.6532 -6.24413,3.47445 -6.59812,4.04722 -0.74557,1.20635 -9.92622,6.00336 -11.4894,6.00336 -0.57959,0 -4.75705,1.76153 -9.28324,3.91452 -4.52619,2.15298 -11.37944,4.91821 -15.22944,6.14495 -3.85,1.22673 -7.88763,2.8402 -8.97251,3.58548 -1.08487,0.74528 -2.70958,1.35505 -3.61045,1.35505 -0.90087,0 -3.35582,1.16578 -5.45544,2.59062 -2.49879,1.69573 -5.74226,2.78263 -9.38954,3.14663 -3.06463,0.3058 -6.45969,1.165 -7.54457,1.9093 -1.08487,0.7444 -3.91972,1.35352 -6.29966,1.35352 -2.37993,0 -5.69624,0.7079 -7.36957,1.5733 -5.83718,3.0185 -31.06794,3.9577 -63.85826,2.377 z m 82.34828,-35.3193 c -9.11414,-3.28433 -14.99588,-7.42773 -19.89206,-14.01298 -8.95093,-12.0388 -6.7799,-24.13777 4.70962,-26.24631 5.56116,-1.02057 9.65512,-4.4793 15.32105,-12.94377 9.95146,-14.86672 16.98998,-19.34474 25.08781,-15.96125 5.19857,2.1721 8.118,5.0405 11.10659,10.91242 3.64804,7.1676 2.70537,15.42903 -3.22598,28.27195 -0.80042,1.73312 -1.45531,4.30396 -1.45531,5.71298 0,1.40902 -0.9,4.84517 -2,7.63589 -1.1,2.79072 -2,6.00238 -2,7.13702 0,3.29207 -6.24293,8.86298 -9.93212,8.86298 -1.72266,0 -4.74762,0.675 -6.72212,1.5 -4.29041,1.79265 -3.42084,1.86135 -10.99748,-0.86893 z M 568.46262,939.92415 c -0.54429,-0.88068 1.33557,-4.76727 9.45984,-19.55802 8.86591,-16.14097 11.48975,-22.0143 14.23769,-31.87034 2.02417,-7.26011 2.26311,-10.32235 2.23386,-28.62966 -0.0195,-12.23946 -0.52118,-22.71624 -1.24488,-26 -0.66667,-3.025 -1.86907,-11.575 -2.67199,-19 -0.80292,-7.425 -1.97778,-17.775 -2.6108,-23 -1.50725,-12.44101 -0.74114,-36.77493 1.38527,-44 0.89028,-3.025 1.88397,-7.6375 2.2082,-10.25 0.32422,-2.6125 1.08237,-4.75 1.68478,-4.75 0.77304,0 0.91219,4.48672 0.47294,15.25 -0.6979,17.10104 1.22244,45.08106 3.82626,55.75 2.8114,11.5195 5.67021,22.33939 7.66234,29 2.49468,8.34089 3.60443,34.75117 1.96818,46.83942 -1.43247,10.58268 -4.91901,21.51208 -9.30241,29.16058 -0.47281,0.825 -1.41468,2.625 -2.09304,4 -3.64275,7.38363 -10.80078,16.03323 -18.71952,22.62024 -6.71634,5.58681 -7.52542,6.00939 -8.49672,4.43778 z m 147.46414,-9.23808 c -5.11579,-1.4612 -11.47992,-7.11415 -14.09817,-12.52273 -3.43026,-7.08597 -3.00458,-12.18788 1.86038,-22.29721 6.14518,-12.76963 7.06802,-18.71895 4.76864,-30.74226 -1.02636,-5.36676 -2.41642,-10.88274 -3.08903,-12.25774 -1.48491,-3.03554 -5.6874,-15.42134 -7.8561,-23.15391 -3.69216,-13.16447 -1.16729,-22.05905 7.29521,-25.69952 10.07819,-4.33552 18.31081,-1.51066 23.2637,7.98249 2.72374,5.22056 2.96828,6.6055 3.4423,19.49536 0.94127,25.59554 3.23638,37.60768 9.46908,49.55917 2.7375,5.24928 5.29395,15.30725 5.71031,22.46631 0.41445,7.12631 0.1763,8.75599 -1.89617,12.97571 -5.89437,12.00141 -17.15839,17.53949 -28.87015,14.19433 z m -74.89424,-16.72115 c -2.79812,-2.61383 -3.1032,-3.48055 -3.07996,-8.75 0.0142,-3.21683 0.45639,-10.2762 0.98266,-15.68747 1.24575,-12.80905 -0.0438,-25.31956 -3.38284,-32.81938 -1.38549,-3.11193 -2.99305,-5.95099 -3.57235,-6.30902 -1.82562,-1.12829 -1.14528,-5.09786 1.26118,-7.35861 3.41273,-3.20608 6.37143,-2.74607 10.02088,1.55804 1.74057,2.0528 5.18967,5.7653 7.66467,8.25 12.24352,12.29154 15.5595,18.87168 15.36741,30.49472 -0.27017,16.34685 -6.45792,28.66209 -16.04196,31.92771 -5.98007,2.03761 -5.57964,2.09433 -9.21969,-1.30599 z m 144.45084,-49.41449 c -4.59743,-4.833 -7.55553,-9.81276 -12.58399,-21.1843 -0.97284,-2.2 -2.99061,-6.7 -4.48394,-10 -1.49332,-3.3 -3.3141,-7.35 -4.04617,-9 -2.06855,-4.66226 -15.38309,-31.76019 -16.70586,-34 -0.64964,-1.1 -2.88114,-4.60163 -4.9589,-7.78139 -2.07776,-3.17977 -3.77774,-6.0353 -3.77774,-6.34563 0,-0.31033 0.93064,-1.87121 2.06809,-3.46861 2.41154,-3.3867 4.47684,-3.59766 10.23677,-1.04568 2.30733,1.02228 7.43173,2.6773 11.38757,3.67783 7.02517,1.77684 7.292,1.77432 11.47377,-0.10869 2.35473,-1.0603 6.31814,-3.51186 8.80757,-5.4479 7.53925,-5.86331 9.78067,-6.97993 14.01092,-6.97993 8.24272,0 16.10207,7.91151 18.04692,18.1667 2.17745,11.48165 1.22507,20.11831 -4.50277,40.8333 -1.44475,5.225 -3.05952,14.36903 -3.58838,20.32006 -0.52885,5.95103 -1.63181,12.11618 -2.45101,13.70034 -0.8192,1.58415 -1.48945,3.40017 -1.48945,4.03558 0,1.57524 -4.7615,7.16642 -7.37374,8.65858 -3.53176,2.01742 -4.79939,1.51007 -10.06966,-4.03026 z m -292.5566,-16.57301 c 0,-0.48879 1.63604,-1.19563 3.63565,-1.57076 1.99961,-0.37513 5.25544,-1.55021 7.23519,-2.61129 1.97975,-1.06108 4.23043,-1.92924 5.00152,-1.92924 0.77109,0 4.40906,-1.98107 8.08437,-4.40238 15.60163,-10.2784 23.61327,-24.73291 24.71893,-44.59762 0.66391,-11.9282 -1.95857,-17.69916 -12.80123,-28.16999 -8.66157,-8.36455 -8.99666,-11.06984 -0.73501,-5.93412 2.74641,1.70726 5.31407,3.10411 5.70591,3.10411 1.2622,0 12.78759,12.38481 14.88971,16 3.97662,6.83891 5.27561,21.72999 2.83507,32.5 -2.92032,12.88728 -10.498,21.82299 -24.57011,28.97342 -11.32507,5.75458 -12.60944,6.27271 -17.22669,6.9494 -2.59968,0.38101 -4.98874,1.11674 -5.30902,1.63496 -0.73958,1.19666 -11.46429,1.24673 -11.46429,0.0535 z m -25.08661,-27.1052 c -5.1548,-5.49056 -6.42871,-9.38687 -5.3723,-16.43151 1.20545,-8.03851 7.17133,-14.8107 17.61788,-19.99898 3.53282,-1.75457 8.35084,-5.58425 12.82366,-10.19306 3.94058,-4.0604 7.78145,-7.38254 8.53527,-7.38254 4.44259,0 13.4821,15.00643 13.4821,22.38153 0,5.96096 -1.67759,7.78499 -7.69144,8.36284 -6.22117,0.59778 -10.05891,3.95254 -15.80856,13.81903 -5.4018,9.2696 -10.93101,14.4366 -15.4486,14.4366 -2.84625,0 -4.26939,-0.87331 -8.13801,-4.99391 z m -82.80188,1.35946 c -2.09386,-1.4666 -2.26599,-2.14338 -1.6761,-6.59021 1.23489,-9.30899 5.58543,-14.61043 16.56459,-20.18512 3.025,-1.53595 7.15575,-4.38242 9.17945,-6.32549 2.32216,-2.22963 4.25881,-3.31053 5.25,-2.93018 2.14786,0.82421 1.97101,2.99306 -0.42052,5.15737 -1.09509,0.99104 -3.19481,3.87329 -4.66605,6.40499 -1.47123,2.5317 -4.11029,6.40309 -5.86456,8.60309 -1.75428,2.2 -4.35559,6.58953 -5.78069,9.7545 -3.34554,7.43001 -7.69086,9.53983 -12.58612,6.11105 z m 223.96107,-31.00041 c -2.76982,-3.52126 -2.66609,-9.14519 0.32629,-17.69135 3.25381,-9.29279 5.6704,-12.36632 16.65709,-21.18533 11.37965,-9.13442 14.34066,-12.36329 17.65931,-19.25683 1.66128,-3.45084 3.92758,-6.21075 6.56921,-8 5.64551,-3.82387 7.86398,-7.22858 8.38424,-12.86739 0.74483,-8.07292 1.23104,-9.26104 4.47659,-10.93938 5.10589,-2.64036 13.69637,0.38392 23.60584,8.31045 6.37704,5.10096 6.96519,6.78425 3.51456,10.05864 -3.33565,3.16528 -7.26571,9.31966 -7.26571,11.37792 0,2.15095 -5.84651,7.29151 -11.50442,10.11529 -2.75243,1.3737 -7.47743,4.51547 -10.5,6.98171 -3.02257,2.46623 -8.13542,5.7633 -11.36189,7.32681 -8.17928,3.96359 -10.63369,7.46646 -10.63369,15.17613 0,5.38052 -0.30429,6.32238 -2.63486,8.15561 -1.44917,1.13992 -3.86348,2.07258 -5.36514,2.07258 -2.85525,0 -8,3.36222 -8,5.22819 0,0.59567 -1.1479,2.588 -2.55089,4.42742 -3.33254,4.36918 -8.25629,4.67627 -11.37653,0.70953 z m 330.48412,-34.58765 c -0.85618,-1.22237 -1.5567,-3.50699 -1.5567,-5.07692 0,-3.7639 -4.50858,-8.22188 -9.73979,-9.6305 -7.5828,-2.04184 -12.72309,-4.8822 -14.60315,-8.06922 -2.3347,-3.95772 -1.66954,-6.64755 2.82136,-11.40929 l 3.52218,-3.7346 -0.64746,-14.24929 -0.64747,-14.24929 2.75198,-4.6959 c 3.56058,-6.07567 5.95615,-7.66248 11.56785,-7.66248 3.52714,0 5.52876,0.69736 8.70401,3.03247 7.78808,5.72741 9.96048,13.56069 10.94553,39.46753 0.70824,18.62656 -0.72461,32.02201 -3.85029,35.99567 -2.54537,3.23591 -7.10188,3.37446 -9.26805,0.28182 z m -94.17184,-8.9806 c -1.58667,-1.21171 -5.23235,-4.31485 -8.1015,-6.89586 -5.5613,-5.0028 -12.96568,-9.55107 -17.2001,-10.56548 -4.15225,-0.99471 -10.75769,-5.20071 -14.04173,-8.94103 -5.51686,-6.28336 -3.70654,-8.39452 7.19831,-8.39452 8.5184,0 14.16632,-2.02304 16.51863,-5.91684 1.61444,-2.67238 4.41555,-2.65736 6.83654,0.0367 5.73649,6.38343 19.83507,8.88585 26.08628,4.63017 1.81777,-1.2375 3.30812,-2.5862 3.31188,-2.99712 0.0129,-1.41522 7.24188,-8.75288 8.62319,-8.75288 2.54864,0 5.29119,3.87096 6.87992,9.71062 0.86627,3.18416 2.27697,7.20009 3.13487,8.92429 0.85791,1.7242 1.40436,3.91131 1.21434,4.86026 -0.19002,0.94895 -3.27049,3.27607 -6.84549,5.17139 -6.06241,3.21405 -10.61121,7.38354 -18.86599,17.29281 -2.96459,3.55879 -3.8727,4.04063 -7.61514,4.04063 -2.8401,0 -5.20579,-0.73057 -7.13401,-2.20311 z m -117.14177,-52.6946 c -5.4952,-2.18202 -13.24309,-8.66409 -13.24309,-11.07948 0,-2.07445 4.42477,-6.02281 6.74953,-6.02281 3.59421,0 11.21299,-5.42826 14.67604,-10.45645 4.51737,-6.55903 7.28313,-7.952 12.90718,-6.50071 9.07311,2.34132 24.38805,8.67017 27.41725,11.33008 5.34849,4.69647 2.3691,7.51253 -17.25,16.30438 -19.96084,8.945 -23.22223,9.61539 -31.25691,6.42499 z m -142.00263,-8.35177 c -1.93849,-0.62166 -4.10356,-2.41098 -5.34208,-4.41495 l -2.08256,-3.36964 2.18499,-4.23297 c 1.20174,-2.32813 3.71818,-6.55922 5.59209,-9.40243 3.04621,-4.62189 3.4071,-5.89922 3.4071,-12.05887 0,-8.07041 1.69084,-11.60305 4.45544,-9.30864 0.91953,0.76314 3.28949,4.659 5.26657,8.65745 2.01613,4.07743 7.04451,11.3045 11.4506,16.45742 4.32074,5.05312 8.13282,10.29087 8.47129,11.63944 1.30588,5.20304 -4.53677,7.27882 -20.1439,7.15673 -5.5,-0.043 -11.46679,-0.54862 -13.25954,-1.12354 z m 86.25954,-19.61184 c -12.90745,-5.33703 -27.83102,-20.73537 -30.3219,-31.28654 -1.39473,-5.90797 -3.86617,-12.44644 -5.84759,-15.47047 -1.46935,-2.24252 -1.48108,-2.65967 -0.11326,-4.0275 1.36783,-1.36782 1.92759,-1.31837 5.40431,0.47746 2.13314,1.10183 5.90344,4.11203 8.37844,6.68933 8.28504,8.62751 11.03584,9.8498 23.17988,10.29977 8.56799,0.31747 11.33641,0.065 14,-1.2769 1.82606,-0.91995 5.73474,-2.52791 8.68595,-3.57325 4.80106,-1.70058 5.72269,-1.75152 8.75636,-0.48397 4.5198,1.88849 5.91816,5.54289 3.75745,9.81959 -1.92812,3.81636 -5.33002,7.6938 -6.7502,7.6938 -0.56207,0 -2.791,1.22596 -4.95318,2.72435 -2.9262,2.02786 -4.77353,4.57264 -7.22592,9.95406 -2.79343,6.12978 -3.8576,7.46491 -6.99464,8.77565 -4.39053,1.83448 -4.78669,1.82193 -9.9557,-0.31538 z m 247,-1.08587 c -2.2,-0.99325 -5.07695,-2.97157 -6.39321,-4.39625 -2.09117,-2.26342 -2.31717,-3.23243 -1.79068,-7.67778 0.598,-5.0492 2.30703,-8.06826 13.20037,-23.3189 1.90148,-2.66207 3.94314,-6.71207 4.53701,-9 2.16388,-8.33654 2.52032,-9.15988 3.96547,-9.15988 1.11589,0 1.72964,2.29232 2.54354,9.5 1.09911,9.73344 0.41509,15.96676 -2.08498,19 -3.75973,4.56153 -4.69086,8.2309 -3.98907,15.72006 0.58994,6.29552 0.43064,7.71186 -1.05158,9.3497 -2.11697,2.33922 -3.72484,2.33617 -8.93687,-0.0169 z m 33.41512,-11.2114 c -0.77094,-1.44053 -1.33072,-12.90872 -1.68275,-34.47476 -0.50033,-30.65048 -0.4333,-32.35232 1.30049,-33.01763 1.37584,-0.52796 2.7787,0.3934 5.67133,3.72475 3.49492,4.025 8.79581,13.4886 8.79581,15.70303 0,3.26604 5.42359,17.37953 7.00363,18.22514 4.27884,2.28997 7.61092,1.14787 15.69602,-5.37995 14.70079,-11.86926 18.73069,-17.19954 30.06449,-39.76588 5.7716,-11.49175 10.5021,-22.22179 10.863,-24.64045 0.4787,-3.20778 1.4033,-4.84108 3.6795,-6.5 5.9841,-4.36124 18.3933,-17.33154 22.6899,-23.71566 4.8372,-7.1876 12.6282,-15.12452 36.8102,-37.5 15.1733,-14.03972 33.8285,-33.74878 39.1169,-41.32651 1.2768,-1.82958 5.091,-8.80458 8.476,-15.5 6.7182,-13.28839 10.2619,-18.67349 12.2884,-18.67349 1.8892,0 1.6157,2.98118 -0.6881,7.5 -3.7086,7.27413 -1.9146,15.13019 2.8703,12.56939 4.319,-2.31141 5.2981,-0.79359 2.3797,3.68883 -0.9625,1.47833 -1.75,4.23778 -1.75,6.13212 0,2.92915 -0.421,3.55846 -2.815,4.20786 -7.06,1.91511 -11.7961,8.39072 -8.5274,11.65942 1.6462,1.64622 -0.711,4.24238 -3.852,4.24238 -3.1745,0 -10.1571,4.1195 -15.0791,8.89611 -6.2613,6.07633 -8.2743,11.40189 -9.2015,24.34335 -0.4438,6.19329 -1.278,12.45382 -1.8538,13.91227 -1.6062,4.06812 -7.1274,7.65113 -14.2344,9.23742 -3.5402,0.79018 -9.0428,2.02266 -12.228,2.73885 -4.3465,0.97731 -7.4648,2.61861 -12.5,6.57924 -3.6898,2.90239 -11.0963,8.67205 -16.4588,12.82146 -11.1279,8.61054 -11.5672,9.71725 -7.1742,18.07236 3.9319,7.47827 11.7122,14.78387 20.3484,19.10681 6.988,3.49791 8.2353,3.79213 16.0758,3.79213 12.4914,0 22.9994,-3.54797 41.443,-13.99299 5.3483,-3.02885 10.188,-5.50701 10.755,-5.50701 0.5669,0 4.6355,-2.1375 9.0412,-4.75 11.4582,-6.7944 19.4105,-16.61037 28.1522,-34.75 2.6505,-5.5 5.225,-10.675 5.7211,-11.5 0.4961,-0.825 1.3968,-2.625 2.0016,-4 0.6047,-1.375 1.5105,-3.175 2.0128,-4 0.5023,-0.825 1.6312,-3.075 2.5087,-5 3.4096,-7.48022 9.1647,-14.9684 20.367,-26.5 7.0197,-7.22607 13.9724,-15.58044 17.4766,-21 3.2007,-4.95 6.8772,-10.59919 8.1701,-12.55375 1.2929,-1.95456 2.3507,-3.87168 2.3507,-4.26026 0,-0.90914 6.6134,-10.46682 9.3788,-13.55421 2.1368,-2.3856 13.6812,-11.2917 21.1514,-16.31759 2.2166,-1.49131 7.1118,-5.65959 10.8782,-9.26283 6.3165,-6.04281 9.5916,-7.95787 9.5916,-5.60852 0,2.37577 -4.4551,8.08809 -8.2814,10.61835 -2.3202,1.53436 -7.1728,5.74828 -10.7835,9.36428 -3.6107,3.61599 -9.1135,8.93592 -12.2284,11.82206 -7.24,6.70825 -10.2204,12.27083 -15.4054,28.75247 -0.8651,2.75 -2.1868,5.88763 -2.9371,6.97251 -0.7503,1.08487 -1.3642,2.52482 -1.3642,3.19986 0,1.51542 -5.1553,9.25326 -7.6982,11.55451 -1.0294,0.9316 -4.5559,3.11467 -7.8367,4.85128 -11.9037,6.30089 -22.3502,16.24829 -30.9998,29.5187 -3.0059,4.61178 -5.4653,8.88065 -5.4653,9.48637 0,0.60572 -0.9,2.24548 -2,3.6439 -1.1,1.39842 -2,3.18025 -2,3.95961 0,1.2188 -2.2285,6.07707 -5.1894,11.31326 -0.4666,0.825 -1.4039,2.625 -2.083,4 -5.6969,11.53446 -22.4939,30.40466 -35.7276,40.13736 -8.18,6.01597 -19.1764,10.09593 -33.1798,12.31058 -17.1582,2.71359 -23.4222,2.83087 -37.5896,0.70376 -11.6697,-1.75208 -14.1657,-2.48413 -20.7029,-6.07199 -8.1529,-4.47456 -11.2647,-4.98047 -14.3295,-2.32971 -2.1571,1.8657 -7.1982,10.9273 -7.1982,12.93913 0,1.48371 -3.7006,8.51608 -7.1463,13.58033 -4.3821,6.44061 -17.6481,20.43539 -25.16969,26.55249 -6.9632,5.66295 -20.49783,14.17805 -22.53576,14.17805 -0.55157,0 -4.02453,1.575 -7.71768,3.5 -7.79734,4.06425 -9.92549,4.31215 -11.51539,1.34141 z m -558.31721,-2.68299 c -0.76666,-1.24047 0.22431,-3.91398 2.71925,-7.33623 1.81638,-2.49149 1.78287,-5.82219 -0.0586,-5.82219 -0.4423,0 -3.17403,1.56073 -6.07051,3.46828 -6.06289,3.99289 -10.68807,4.99389 -10.68807,2.31316 0,-0.94521 3.65576,-5.4525 8.12391,-10.01621 9.47966,-9.6824 13.8164,-12.11905 40.87609,-22.9668 18.43675,-7.39096 28.64297,-12.86591 34.0408,-18.26058 5.48349,-5.48028 9.84852,-12.55625 11.47744,-18.6056 0.56986,-2.11629 1.46165,-4.11081 1.98176,-4.43225 0.52011,-0.32144 1.42522,-2.36544 2.01137,-4.54222 0.62439,-2.31882 1.67092,-3.95778 2.52717,-3.95778 2,0 1.92189,5.99564 -0.14047,10.78212 -1.0132,2.35152 -1.8401,8.285 -2.25,16.14509 l -0.64805,12.42721 -5.5,1.36786 c -3.025,0.75232 -7.99209,1.94689 -11.03798,2.65459 -6.16503,1.43242 -20.05104,8.06377 -25.352,12.10701 -1.89413,1.44473 -7.58229,7.29343 -12.64034,12.99712 -6.35081,7.16145 -11.7565,12.09148 -17.46984,15.93261 -9.40673,6.32423 -11.05279,7.11874 -11.90193,5.74481 z m 466.41519,-5.83277 c -2.78737,-0.59049 -6.59006,-3.05014 -12.5131,-8.09369 -2.2,-1.87333 -10.84341,-8.77897 -19.20757,-15.34585 -15.17743,-11.91613 -16.96542,-13.54646 -15.95957,-14.55231 0.7135,-0.7135 7.78107,1.5989 9.66714,3.16294 1.45786,1.20895 9.907,4.91699 17,7.46072 1.925,0.69036 5.3,1.90246 7.5,2.69356 2.2,0.79109 5.35,2.04057 7,2.77662 7.31741,3.2642 13.14677,3.97926 23.02057,2.82382 8.09496,-0.94727 10.73208,-1.74964 17.26679,-5.25352 4.24195,-2.27452 9.97679,-6.35455 12.74409,-9.06672 5.07629,-4.97517 7.46855,-6.10524 7.46855,-3.52803 0,2.68551 -14.14304,22.56721 -19.30425,27.13713 -8.3851,7.42446 -13.73741,9.68972 -23.68746,10.02526 -4.67956,0.15781 -9.6274,0.0498 -10.99519,-0.23993 z m 1.28734,-28.23035 c -5.14376,-1.3216 -14.40307,-5.25695 -19.80044,-8.41549 -11.70998,-6.85269 -24.24623,-13.06626 -27.5,-13.63034 l -3.5,-0.60676 0.0253,-5.47135 c 0.0319,-6.91521 2.99235,-13.1882 9.67436,-20.49938 4.24897,-4.64912 12.80476,-11.47198 14.38566,-11.47198 0.26677,0 1.68656,-0.78726 3.15507,-1.74947 1.46851,-0.9622 4.04018,-2.26835 5.71481,-2.90254 1.67464,-0.6342 6.1948,-2.33561 10.0448,-3.78093 10.79785,-4.05358 28.17306,-5.8891 42.5,-4.48972 6.325,0.6178 12.85,1.78633 14.5,2.59674 1.65,0.81042 4.97117,2.15304 7.38037,2.98362 3.86118,1.33114 4.55524,1.33526 5.85576,0.0348 1.30051,-1.30052 1.15576,-2.02078 -1.22124,-6.07684 -3.71853,-6.34518 -10.46074,-13.63959 -18.89648,-20.44413 -12.08113,-9.74502 -11.92158,-9.67712 -22.61841,-9.62672 -9.0399,0.0426 -19.03241,2.38462 -26.63864,6.24354 -1.02375,0.51938 -6.20232,3.0398 -11.50794,5.60094 -5.30562,2.56113 -10.19822,5.32129 -10.87244,6.13368 -0.67423,0.81239 -1.98077,1.47708 -2.90342,1.47708 -0.92266,0 -2.21006,0.5325 -2.86089,1.18333 -0.65084,0.65084 -1.45179,0.91488 -1.77991,0.58677 -0.78011,-0.78012 2.49702,-5.7701 3.78947,-5.7701 0.54791,0 3.14611,-1.8 5.77377,-4 2.62766,-2.2 5.00662,-4 5.28658,-4 0.27996,0 3.47187,-1.8 7.09315,-4 3.62127,-2.2 7.03022,-4 7.57545,-4 0.54522,0 2.91586,-0.87559 5.26807,-1.94576 13.52317,-6.15253 27.27497,-7.73028 33.65872,-3.86168 9.97874,6.04719 26.29109,21.73104 37.04044,35.6133 3.0004,3.87486 3.27205,4.75877 2.71391,8.83079 -0.96618,7.04906 0.51686,8.5571 10.61368,10.79259 2.20762,0.48878 2.75,1.16623 2.75,3.43482 0,3.91207 -2.67612,5.95911 -9.4203,7.20584 -7.2334,1.33717 -9.79597,0.49874 -17.90593,-5.85852 -8.27754,-6.48863 -12.77684,-8.97824 -21.57304,-11.9371 -6.79427,-2.28546 -8.55222,-2.45781 -21.5,-2.10795 -10.66152,0.28809 -14.83244,0.78294 -17.10073,2.0289 -1.65,0.90634 -3.7875,1.89407 -4.75,2.19495 -0.9625,0.30088 -1.75,1.01117 -1.75,1.57844 0,1.52028 3.24469,1.25489 6.8898,-0.56353 2.58018,-1.28716 5.8608,-1.52836 17.00175,-1.25 8.03418,0.20073 14.39067,0.80709 15.20656,1.45058 0.77104,0.60812 3.42689,1.60472 5.90189,2.21467 7.04035,1.73506 17.39101,7.66123 21.90915,12.54387 2.33375,2.52203 2.35988,2.72138 0.83478,6.36965 -0.8659,2.07138 -1.82799,4.44114 -2.13797,5.26614 -2.26189,6.0199 -11.76718,18.52382 -17.60596,23.1601 -9.368,7.43866 -13.95394,9.145 -25.45649,9.47187 -5.52393,0.15697 -11.48331,-0.0845 -13.24307,-0.53667 z m 49.5938,-30.99651 c 4.3805,-4.092 4.33603,-9.08785 -0.1171,-13.15516 -3.72967,-3.40653 -4.45568,-3.52721 -7.80463,-1.29733 -6.16711,4.10634 -6.69911,8.8271 -1.57251,13.9537 4.14963,4.14963 5.50952,4.22108 9.49424,0.49879 z m -317.49648,8.38551 c -2.16644,-3.3064 -1.27832,-8.98404 2.67911,-17.12716 1.64193,-3.37857 3.47047,-8.89706 4.06342,-12.26331 0.80539,-4.57224 1.71698,-6.623 3.60376,-8.10714 3.15866,-2.4846 4.3495,-2.48755 7.48832,-0.0186 1.95555,1.53824 2.64511,3.2311 3.15684,7.75 0.36011,3.18002 1.30158,7.93017 2.09217,10.55588 0.79058,2.62571 1.16545,5.55071 0.83304,6.5 -0.94076,2.68664 -4.54163,5.17926 -7.51737,5.20374 -4.30941,0.0355 -7.14198,1.83012 -9.58311,6.07167 -2.63266,4.57436 -4.50136,4.96773 -6.81618,1.43487 z m -206.80101,-0.95484 c -0.58807,-2.34305 -0.33205,-3.82925 2.50295,-14.52946 3.82458,-14.43521 16.96363,-36.14936 32.26456,-53.32178 13.14126,-14.74858 22.58873,-23.18484 36.06793,-32.2074 8.54509,-5.71981 50.82198,-47.60709 55.48213,-54.97082 2.08841,-3.3 5.26635,-9.375 7.06209,-13.5 1.79575,-4.125 3.61975,-7.95 4.05334,-8.5 0.4336,-0.55 1.79314,-3.925 3.02121,-7.5 2.51313,-7.31588 2.94375,-17.27285 0.91127,-21.07057 -2.18021,-4.07376 -1.677,-21.21687 0.85832,-29.24061 2.35874,-7.4649 17.53406,-31.68882 19.85179,-31.68882 1.74625,0 1.69256,3.51516 -0.10456,6.84571 -4.64662,8.6114 -6.56778,14.33569 -6.56778,19.56931 0,4.82332 0.3271,5.7532 2.53201,7.19791 4.23325,2.77374 12.48687,1.40189 21.96799,-3.65132 29.73857,-15.84996 39.49791,-19.54833 51,-19.32678 10.05253,0.19363 20.43014,3.75856 31.46492,10.80889 5.56166,3.55344 25.03508,22.38595 25.03508,24.21111 0,3.21658 -2.82754,1.68516 -18.0596,-9.78122 -16.45737,-12.38877 -21.64611,-14.19093 -39.43553,-13.69676 -7.29066,0.20252 -13.88365,0.86714 -15.00487,1.51258 -1.1,0.63324 -5.1142,2.58783 -8.92044,4.34354 -3.80624,1.75572 -9.20624,4.78184 -12,6.72471 -6.59951,4.58953 -24.63563,22.67329 -32.17109,32.25607 -5.09903,6.48439 -13.58503,22.07732 -20.40081,37.48625 -0.97312,2.2 -2.72294,6.14954 -3.88848,8.77675 -1.16555,2.62721 -2.11918,5.38534 -2.11918,6.12916 0,2.16098 -5.06531,12.62828 -8.40143,17.36126 -3.40635,4.83262 -10.06268,10.14338 -19.09857,15.23781 -3.3,1.86053 -8.025,4.7941 -10.5,6.51904 -2.475,1.72493 -8.325,5.32855 -13,8.00803 -13.69458,7.84907 -25.65258,16.6969 -37.93603,28.06921 -11.67751,10.81131 -26.57769,30.49834 -32.46804,42.89874 -1.56754,3.3 -3.69289,7.63627 -4.723,9.63615 -1.03011,1.99989 -1.87293,4.48726 -1.87293,5.5275 0,1.04023 -0.67059,2.84873 -1.49019,4.01888 -0.81961,1.17015 -1.98189,4.42028 -2.58286,7.22251 -1.19155,5.55596 -2.36277,6.47897 -3.3302,2.62442 z m 331.35591,-1.36882 c -3.05104,-1.54772 -8.00104,-3.62103 -11,-4.60737 -2.99896,-0.98634 -6.12766,-2.12472 -6.95266,-2.52975 -1.92744,-0.94626 -3.26533,-11.34769 -2.56562,-19.94638 0.6373,-7.83172 3.86434,-12.07714 9.18013,-12.07714 4.471,0 7.76824,4.14622 6.91484,8.69527 -0.68332,3.64239 1.40663,8.68245 4.01545,9.68355 4.13287,1.58593 14.85785,-0.56305 22.78119,-4.5647 5.02992,-2.54034 9.0625,-2.10183 9.50639,1.03374 0.18325,1.29452 -0.51904,3.31341 -1.56539,4.5 -1.04376,1.18368 -2.73622,3.50214 -3.76101,5.15214 -2.72167,4.38212 -12.57306,14.48245 -15.70632,16.10319 -3.67176,1.8993 -4.46787,1.79342 -10.847,-1.44255 z M 322.42676,563.49374 C 311.06054,557.1747 302.62749,549.75018 293.62732,538.13851 285.7597,527.988 273.10351,510.78165 267.67066,502.8499 c -2.06586,-3.01608 -6.2276,-8.85877 -9.24831,-12.98377 -3.02071,-4.125 -6.92691,-9.525 -8.68044,-12 -1.75352,-2.475 -5.0997,-6.86743 -7.43594,-9.76095 -11.43,-14.1565 -14.04904,-22.4562 -8.62921,-27.34587 5.98283,-5.39761 9.50228,-6.25756 27.25,-6.65831 9.075,-0.20492 20.55,0.12077 25.5,0.72376 4.95,0.60298 25.65,1.53496 46,2.07106 20.35,0.5361 39.925,1.42081 43.5,1.96601 12.95722,1.97604 20.56354,3.68619 23.70034,5.32861 1.76019,0.92163 3.69091,1.67569 4.29049,1.67569 0.59959,0 2.30943,0.8405 3.79966,1.86779 18.77596,12.94313 29.32003,18.12413 36.92938,18.14586 6.57514,0.0188 9.44087,0.9132 9.07148,2.83127 -0.28005,1.45416 -1.51785,2.24057 -8.79135,5.58538 -2.07923,0.95616 -2.5,1.84677 -2.5,5.29156 0,3.17316 -0.65482,4.82595 -2.79971,7.06662 -2.76369,2.8871 -8.38246,5.21152 -12.59769,5.21152 -2.579,0 -3.79163,-2.46484 -2.17247,-4.41582 0.63464,-0.76469 1.5844,-2.89146 2.11059,-4.72616 1.30474,-4.54938 -0.21116,-8.66244 -4.80632,-13.04082 -3.88826,-3.70482 -15.90131,-11.01503 -20.2344,-12.31307 -1.375,-0.4119 -3.02426,-1.16719 -3.66502,-1.67843 -2.26559,-1.80764 -20.0507,-2.95948 -36.83498,-2.38558 -9.35,0.31969 -27.575,0.65185 -40.5,0.73812 -21.00891,0.14024 -24.34803,-0.0664 -31.5,-1.94964 -10.21999,-2.69106 -24.3065,-5.2286 -29.02523,-5.2286 -4.35113,0 -9.1901,3.12874 -10.62146,6.86754 -1.61712,4.22403 0.87249,13.59518 6.0127,22.63246 11.77779,20.70715 25.8821,36.7765 46.74581,53.25854 10.16545,8.03056 15.25313,13.72938 19.21588,21.52411 1.46976,2.89102 3.72682,6.72609 5.01567,8.52237 2.13448,2.97484 2.37277,6.30465 0.43801,6.12068 -0.42976,-0.0409 -2.58138,-1.075 -4.78138,-2.29809 z m 624.5331,-38.35896 c -0.64472,-3.70224 -1.54692,-7.18974 -2.00489,-7.75 -0.45796,-0.56026 -1.33923,-2.91343 -1.95838,-5.22927 -3.83234,-14.33448 -26.13879,-40.06238 -40.56983,-46.79257 -9.16414,-4.27388 -17.41994,-7.49674 -19.21987,-7.50297 -0.97907,-0.003 -3.03664,-0.66156 -4.57237,-1.46261 -1.53573,-0.80105 -4.46073,-1.74879 -6.5,-2.10608 -2.03927,-0.3573 -4.60776,-1.19963 -5.70776,-1.87186 -1.1,-0.67222 -3.43694,-1.71439 -5.19319,-2.31593 -7.25794,-2.48594 -30.30681,-20.24556 -30.30681,-23.35202 0,-1.84459 2.33768,-0.71434 9.54189,4.61342 12.6705,9.37029 24.93895,14.86418 43.45811,19.46083 12.9885,3.22389 15.91298,4.09768 20.5,6.1251 11.48283,5.0753 29.07709,22.38427 37.01551,36.41531 1.55589,2.75 3.26401,5.57156 3.79584,6.27013 0.53182,0.69857 2.02737,4.29857 3.32344,8 2.81887,8.05038 3.46517,24.22987 0.96786,24.22987 -0.94197,0 -1.77935,-2.19364 -2.56955,-6.73135 z m -282.8331,3.53135 c -2.1212,-2.1212 -1.43997,-11.39833 1.21773,-16.58324 4.17286,-8.14084 9.97645,-13.39489 31.37689,-28.40581 4.06294,-2.84987 8.07651,-5.93478 21.89796,-16.8312 24.7416,-19.50553 44.54695,-30.2939 59.51934,-32.42135 7.33537,-1.04229 11.19475,2.05238 7.03808,5.64354 -1.82257,1.57461 -6.25265,2.97104 -17.25,5.43746 -9.18179,2.05923 -19.138,7.16786 -37,18.98505 -18.24888,12.07314 -31.05678,22.83759 -36.19515,30.42033 -2.03317,3.00037 -3.72101,5.82671 -3.75076,6.28075 -0.10396,1.58666 -8.41772,15.21124 -11.88626,19.47919 -3.21553,3.95661 -10.51109,9.19528 -12.80569,9.19528 -0.52918,0 -1.50214,-0.54 -2.16214,-1.2 z m 257.33538,-76.74275 c -0.97393,-1.57585 8.21866,-4.97875 15.29812,-5.66302 6.06432,-0.58616 10.57071,-1.93696 19.95616,-5.98191 7.86856,-3.39121 15.6595,-5.44277 24.36913,-6.41705 5.13766,-0.57471 12.58476,-1.70875 16.54904,-2.5201 3.96431,-0.81134 8.46431,-1.47072 9.99991,-1.46527 5.3758,0.019 31.8092,-5.71567 44.7922,-9.71765 2.75,-0.84768 7.475,-2.10661 10.5,-2.79762 3.025,-0.69101 6.85,-1.71956 8.5,-2.28567 4.5836,-1.57261 25.2659,-7.47894 35,-9.99506 2.2,-0.56867 6.025,-1.77542 8.5,-2.68165 4.6399,-1.69894 5.6162,-2.13688 25,-11.21439 6.325,-2.96202 13.3,-6.20578 15.5,-7.20836 8.6671,-3.94973 16.2489,-7.6903 21.5,-10.60735 3.025,-1.68041 8.425,-4.30384 12,-5.82984 3.575,-1.52601 7.4,-3.27669 8.5,-3.89042 5.2825,-2.9473 35.1148,-7.26685 58.8469,-8.52071 10.1704,-0.53733 13.6219,0.89763 6.5303,2.71492 -2.4075,0.61693 -5.7272,1.56583 -7.3772,2.10866 -1.65,0.54283 -7.5,1.43666 -13,1.98629 -5.5,0.54962 -11.35,1.4232 -13,1.94129 -1.65,0.5181 -6.916,1.37961 -11.7023,1.91448 -4.7863,0.53488 -10.0514,1.67015 -11.7004,2.52284 -1.6489,0.85269 -3.7585,1.55034 -4.6881,1.55034 -2.1843,0 0.1736,-1.10808 -64.4092,30.26877 -20.6112,10.01376 -27.9077,13.25983 -35,15.57085 -7.652,2.49341 -23.8571,6.16038 -27.2239,6.16038 -1.2958,0 -5.0379,0.7198 -8.316,1.59957 -3.2781,0.87976 -8.4351,2.20209 -11.4601,2.93851 -5.9965,1.45982 -15.5627,4.164 -26.5,7.49102 -3.85,1.17114 -9.475,2.81623 -12.5,3.65576 -3.025,0.83953 -5.95,1.87692 -6.5,2.30531 -0.55,0.42838 -2.575,1.09187 -4.5,1.4744 -1.925,0.38254 -6.42501,1.52837 -10.00001,2.54629 -21.57983,6.14452 -71.27595,11.58761 -73.46455,8.04639 z m -73.53538,-50.39729 c 0,-1.83702 0.8532,-6.67452 1.89599,-10.75 2.07871,-8.12407 2.73546,-9.78694 11.61534,-29.40996 1.49332,-3.3 3.2859,-7.35 3.98351,-9 0.6976,-1.65 2.22165,-5.14954 3.38676,-7.77675 1.16512,-2.62721 2.1184,-5.25921 2.1184,-5.84887 0,-0.58967 0.67202,-2.49013 1.49337,-4.22325 1.62022,-3.4188 4.04782,-11.50359 5.60032,-18.65113 0.53759,-2.475 1.64603,-7.43196 2.46321,-11.01546 0.81717,-3.5835 1.89964,-12.1335 2.40548,-19 0.96389,-13.08405 2.83069,-22.76532 6.16745,-31.98454 4.70569,-13.00142 7.54126,-16.6006 19.17947,-24.3444 4.51024,-3.00101 9.09718,-6.44727 10.19321,-7.65837 3.34907,-3.70069 7.34304,-5.24488 11.8792,-4.59286 4.91766,0.70685 7.10959,-0.41763 6.36492,-3.26524 -0.30869,-1.18045 0.0866,-2.58579 0.92254,-3.27953 2.17607,-1.80598 4.33083,-6.42054 4.33083,-9.27476 0,-1.49102 0.81405,-2.95014 2,-3.58484 2.2385,-1.19801 2.64619,-4.99243 0.84611,-7.87481 -0.91187,-1.46013 -0.80699,-2.34295 0.5,-4.20894 1.87313,-2.67427 2.19712,-7.46248 0.57286,-8.46633 -0.59456,-0.36746 -0.81996,-1.70826 -0.50089,-2.97955 0.81908,-3.26346 -0.21206,-5.31247 -3.53926,-7.03304 -3.0671,-1.58605 -3.8054,-4.14454 -1.45614,-5.04603 2.46424,-0.94562 2.59113,-3.30053 0.29319,-5.44132 -1.53228,-1.4275 -2.26457,-3.35781 -2.37373,-6.25716 -0.34391,-9.13422 -3.58032,-15.58287 -7.13589,-14.21847 -1.7093,0.65592 -5.06515,-1.09508 -7.9085,-4.12646 -1.51808,-1.61847 -3.31701,-2.34789 -5.79049,-2.34789 -2.15266,0 -4.80594,-0.90018 -6.63188,-2.25 -2.44484,-1.80735 -4.36362,-2.25 -9.75311,-2.25 -4.7057,0 -7.50722,-0.52263 -9.38069,-1.75 -4.62237,-3.02827 -9.87463,-2.29332 -15.52404,2.17228 -5.68348,4.49253 -15.91927,16.67814 -18.96506,22.57772 -3.79621,7.35311 -6.25248,13.20326 -6.25248,14.89165 0,0.91992 -0.6788,3.29719 -1.50845,5.28282 -0.82965,1.98562 -1.90248,5.90867 -2.38407,8.71788 -1.83894,10.72677 -5.82894,24.33074 -9.85704,33.60765 -0.83584,1.925 -1.8813,4.85 -2.32323,6.5 -1.62605,6.07105 -5.75823,16.4801 -9.54113,24.03433 -6.01238,12.00633 -19.45142,25.44028 -35.20889,35.19556 -15.72353,9.73426 -28.0725,16.99579 -32.17719,18.92107 -9.21266,4.32113 -14.08781,6.34921 -15.27675,6.3552 -0.67279,0.003 -2.57325,0.71249 -4.22325,1.57578 -1.65,0.86329 -5.35088,2.00618 -8.22418,2.53975 -2.8733,0.53357 -6.4733,1.6217 -8,2.41806 -1.5267,0.79636 -3.36619,1.4507 -4.08775,1.45409 -3.93635,0.0185 -19.43265,9.17505 -25.94002,15.32762 -2.40872,2.2774 -3.54363,2.78296 -4.37687,1.94972 -2.04494,-2.04494 11.09047,-15.86744 16.78851,-17.66668 1.18784,-0.37507 2.70544,-1.33953 3.37245,-2.14323 0.66701,-0.8037 1.95181,-1.46127 2.85511,-1.46127 0.9033,0 3.32157,-0.9 5.37393,-2 2.05237,-1.1 4.43728,-2 5.29981,-2 0.86254,0 3.67667,-0.82692 6.25363,-1.8376 6.97406,-2.73522 14.2063,-5.17841 18.50063,-6.24987 2.09838,-0.52356 4.79838,-1.5712 6,-2.3281 1.20161,-0.7569 3.25752,-1.69749 4.56868,-2.0902 3.27166,-0.97991 12.6869,-6.47508 24.61607,-14.36708 10.52009,-6.95979 26.27149,-21.32336 32.11851,-29.28859 3.98221,-5.42485 9.34709,-15.6326 9.37541,-17.83856 0.0106,-0.825 0.91333,-2.85 2.00608,-4.5 1.09275,-1.65 1.98979,-3.83057 1.99341,-4.84571 0.004,-1.01514 0.67547,-3.04014 1.49299,-4.5 1.73275,-3.09419 4.11296,-9.57851 6.11333,-16.65429 0.77744,-2.75 2.08555,-6.41801 2.9069,-8.15113 0.82135,-1.73312 1.49337,-4.07896 1.49337,-5.21298 0,-1.13402 0.9,-4.34517 2,-7.13589 1.1,-2.79072 2.01527,-6.06988 2.03393,-7.28702 0.0187,-1.21714 0.90339,-4.01298 1.96607,-6.21298 1.06268,-2.2 1.94741,-5.01413 1.96607,-6.25362 0.0187,-1.2395 0.93393,-3.93283 2.03393,-5.9852 1.1,-2.05236 2,-4.42127 2,-5.26424 0,-4.16342 11.62174,-17.28406 26.06161,-29.42287 4.70888,-3.95851 9.54638,-8.18206 10.75,-9.38568 2.84682,-2.84682 4.15778,-2.75962 6.71433,0.4466 1.79619,2.25264 2.40881,2.4703 4.22182,1.5 3.13057,-1.67543 5.71406,-1.38716 7.75224,0.86501 0.99549,1.1 2.85367,2 4.12931,2 1.56267,0 2.82256,0.97315 3.86185,2.98291 1.52166,2.94256 1.62683,2.97476 7.77568,2.38104 3.42824,-0.33103 7.27578,-1.25345 8.55008,-2.04981 1.75126,-1.09444 2.6512,-1.17053 3.68607,-0.31166 0.75303,0.62496 2.63541,1.47674 4.18308,1.89284 2.30034,0.61846 2.75675,1.23305 2.50066,3.36734 -0.59393,4.94975 6.40898,9.15384 11.43406,6.86426 4.1102,-1.87273 8.79653,-1.37606 11.2049,1.18753 2.59912,2.76664 2.692,3.96582 0.5593,7.22073 -1.08856,1.66136 -2.5401,2.46482 -4.45295,2.46482 -5.29273,0 -10.01723,3.4351 -8.37627,6.09024 0.30925,0.50037 2.98415,0.90976 5.94423,0.90976 2.96008,0 5.66008,0.45 6,1 0.33992,0.55 1.60398,1.01497 2.80902,1.03327 1.20504,0.0183 3.2847,0.94369 4.62146,2.05644 2.27166,1.89096 2.34647,2.2555 1.14476,5.57875 -1.16477,3.22112 -1.08076,3.8328 0.89304,6.50251 3.18704,4.31069 1.4344,6.01136 -5.37078,5.21154 -3.95878,-0.46527 -5.46161,-0.25117 -6.43039,0.91613 -1.3487,1.62509 -1.10358,1.93681 3.33289,4.23837 1.68158,0.87238 2.00443,2.06648 2.02784,7.50028 0.0197,4.5632 0.59569,7.41506 1.95981,9.7029 2.46759,4.13849 1.22586,5.7531 -3.2299,4.19982 -4.77165,-1.66341 -7.6367,0.22646 -6.83356,4.5076 0.43173,2.30132 0.16263,3.65041 -0.90486,4.53635 -2.05755,1.70761 -1.93811,2.3649 1.08199,5.95408 2.9957,3.56019 2.56866,6.06196 -1.03475,6.06196 -1.47275,0 -2.93506,0.82001 -3.56657,2 -0.5887,1.1 -1.89943,2 -2.91274,2 -2.35783,0 -4.28961,2.30911 -3.54818,4.24124 0.38176,0.99485 -0.67789,2.23312 -3.16851,3.70262 -3.85768,2.27609 -4.98368,2.13894 -9.60156,-1.16949 -1.50558,-1.07866 -2.54734,-0.3742 -8,5.40978 -4.45755,4.72841 -7.3752,6.94582 -10.09727,7.6739 -6.71188,1.79524 -10.09295,5.23599 -12.57506,12.79703 -1.22877,3.74308 -2.5947,7.26445 -3.0354,7.82526 -1.80832,2.30116 -9.37945,20.30655 -10.10009,24.01966 -0.42697,2.2 -1.44904,7.375 -2.27125,11.5 -0.82221,4.125 -1.98917,10.875 -2.59325,15 -0.60407,4.125 -1.56021,10.65 -2.12475,14.5 -2.65856,18.13062 -4.41729,25.69158 -7.47857,32.15113 -0.82135,1.73312 -1.49337,3.66659 -1.49337,4.29659 0,1.22394 -7.83689,14.89065 -10.92513,19.05228 -4.15008,5.59253 -9.07457,13.79294 -9.06992,15.10351 0.003,0.76807 -0.76118,3.53399 -1.69755,6.14649 -1.17565,3.28011 -2.26026,4.75 -3.50494,4.75 -1.37684,0 -1.80246,-0.78869 -1.80246,-3.34004 z M 674.89258,309.66961 c -4.952,-4.06672 -15.96582,-18.51416 -15.96582,-20.94326 0,-0.61828 -0.83654,-2.52727 -1.85898,-4.24219 -2.77694,-4.65772 -4.29923,-20.03637 -3.11234,-31.44184 1.78037,-17.10849 1.57689,-16.72385 20.59665,-38.93364 3.97521,-4.64194 5.26063,-9.12461 5.33112,-18.59134 0.0391,-5.25172 -0.26633,-6.13826 -2.99197,-8.68439 -2.36045,-2.20499 -2.89751,-3.38545 -2.41497,-5.30807 0.75291,-2.99982 -0.85669,-6.30408 -3.47583,-7.13537 -1.06065,-0.33663 -2.84595,-2.16711 -3.96734,-4.06772 -1.31943,-2.23627 -2.79717,-3.45566 -4.18779,-3.45566 -1.18189,0 -3.33457,-1.19452 -4.78372,-2.65449 -3.9119,-3.94109 -17.2286,-13.34551 -18.8973,-13.34551 -0.79685,0 -2.83202,-1.16389 -4.52261,-2.58642 -2.64899,-2.22898 -3.70543,-2.50503 -7.64435,-1.99743 -2.51381,0.32394 -6.18501,0.71136 -8.15822,0.86092 -2.11257,0.16012 -4.88192,1.36098 -6.73553,2.92069 -1.73134,1.45683 -6.4169,4.22145 -10.41235,6.14361 -3.99546,1.92216 -8.35541,4.65669 -9.68878,6.07673 -1.49741,1.59475 -3.50468,2.5819 -5.25,2.5819 -1.55413,0 -2.82569,0.45728 -2.82569,1.01618 0,0.5589 -1.60507,1.78158 -3.56683,2.71708 -2.83529,1.35205 -4.25454,3.14334 -6.91993,8.73382 -4.49855,9.43546 -5.21063,12.80809 -5.91871,28.03292 -0.33253,7.15 -1.13714,17.35539 -1.78802,22.67864 -0.88758,7.25913 -0.92081,16.1336 -0.13295,35.5 1.04738,25.74584 0.85906,35.32136 -0.69466,35.32136 -0.45084,0 -1.0913,-3.0375 -1.42325,-6.75 -0.33195,-3.7125 -1.37777,-10.8 -2.32405,-15.75 -2.0627,-10.78998 -2.27599,-50.04039 -0.34235,-63 0.6565,-4.4 1.44727,-16.55 1.75726,-27 0.47258,-15.93083 0.87765,-19.67314 2.50766,-23.16717 2.50585,-5.37142 6.22027,-7.93888 9.39364,-6.493 2.52652,1.15116 3.70162,0.31356 4.85653,-3.46172 0.70445,-2.30277 10.16087,-7.76486 11.74652,-6.78487 3.39658,2.0992 7.40865,-2.20584 13.60013,-14.59324 2.23387,-4.46935 3.27566,-5.56039 5.55948,-5.82226 1.54576,-0.17724 3.43983,0.20006 4.20904,0.83845 0.83607,0.69388 2.62521,0.8913 4.44843,0.49085 2.44192,-0.53633 3.6873,-0.13348 6.24779,2.02103 l 3.19794,2.69089 2.08073,-2.60948 c 2.67621,-3.35628 3.19149,-3.28829 4.85416,0.64052 0.75648,1.7875 2.37196,4.13842 3.58997,5.22426 2.21403,1.97379 2.21498,1.97368 4.04776,-0.45608 l 1.8332,-2.43033 3.64942,1.95607 c 2.42251,1.29846 4.26827,3.35156 5.49017,6.10692 2.01531,4.54451 4.46572,5.85404 9.0642,4.84405 2.62512,-0.57658 3.18578,-0.27035 4.72753,2.58209 3.3569,6.21074 4.8825,7.16113 10.29932,6.41613 3.55805,-0.48936 5.75065,-0.24011 8.07114,0.9175 1.75231,0.87417 3.80301,1.58939 4.55712,1.58939 1.8295,0 3.59569,4.85443 2.94854,8.10417 -0.64703,3.24911 0.9207,4.89583 4.66097,4.89583 2.8191,0 2.87167,0.0961 2.20654,4.0329 -0.47277,2.79828 -0.24167,4.71162 0.75489,6.25 0.78993,1.2194 1.70262,4.51075 2.02822,7.31409 0.75978,6.54182 -1.13657,12.2493 -4.68824,14.11021 -2.31664,1.21381 -2.57997,1.82565 -2.03531,4.72898 0.37421,1.99466 0.18766,3.60545 -0.46419,4.00832 -0.5994,0.37044 -1.08981,1.52379 -1.08981,2.563 0,1.0392 -1.11877,3.09663 -2.48615,4.57206 -1.78356,1.92449 -2.31721,3.35574 -1.88834,5.06451 0.69858,2.78333 -1.08495,5.35593 -3.71316,5.35593 -1.01352,0 -3.38032,1.35 -5.25957,3 -1.87924,1.65 -3.86576,3 -4.41448,3 -2.08583,0 -12.45742,8.99075 -15.17205,13.1521 -4.09702,6.28046 -5.38057,15.14796 -3.66906,25.3479 0.7383,4.4 2.0732,9.35 2.96643,11 0.89323,1.65 1.62757,3.675 1.63187,4.5 0.0145,2.7853 7.56324,12.41431 14.05477,17.92798 3.54736,3.01298 6.44974,5.94311 6.44974,6.51139 0,2.48255 -3.68889,1.34319 -8.53418,-2.63589 z"
     style="fill:#000000" />
</svg>
