  0
SECTION
  2
HEADER
  9
$ACADVER
  1
AC1015
  9
$ACADMAINTVER
 70
     6
  9
$DWGCODEPAGE
  3
ANSI_1252
  9
$INSBASE
 10
0.0
 20
0.0
 30
0.0
  9
$EXTMIN
 10
7.3385588912
 20
8.218227936
 30
0.0
  9
$EXTMAX
 10
15.9130681858
 20
10.1107430317
 30
0.0
  9
$LIMMIN
 10
0.0
 20
0.0
  9
$LIMMAX
 10
12.0
 20
9.0
  9
$ORTHOMODE
 70
     0
  9
$REGENMODE
 70
     1
  9
$FILLMODE
 70
     1
  9
$QTEXTMODE
 70
     0
  9
$MIRRTEXT
 70
     1
  9
$LTSCALE
 40
1.0
  9
$ATTMODE
 70
     1
  9
$TEXTSIZE
 40
0.1377952756
  9
$TRACEWID
 40
0.05
  9
$TEXTSTYLE
  7
Standard
  9
$CLAYER
  8
0
  9
$CELTYPE
  6
ByLayer
  9
$CECOLOR
 62
   256
  9
$CELTSCALE
 40
1.0
  9
$DISPSILH
 70
     0
  9
$DIMSCALE
 40
1.0
  9
$DIMASZ
 40
0.13
  9
$DIMEXO
 40
0.0393700787
  9
$DIMDLI
 40
0.38
  9
$DIMRND
 40
0.0
  9
$DIMDLE
 40
0.0
  9
$DIMEXE
 40
0.0393700787
  9
$DIMTP
 40
0.0
  9
$DIMTM
 40
0.0
  9
$DIMTXT
 40
0.1377952756
  9
$DIMCEN
 40
0.09
  9
$DIMTSZ
 40
0.0
  9
$DIMTOL
 70
     0
  9
$DIMLIM
 70
     0
  9
$DIMTIH
 70
     1
  9
$DIMTOH
 70
     1
  9
$DIMSE1
 70
     0
  9
$DIMSE2
 70
     0
  9
$DIMTAD
 70
     1
  9
$DIMZIN
 70
     0
  9
$DIMBLK
  1

  9
$DIMASO
 70
     1
  9
$DIMSHO
 70
     1
  9
$DIMPOST
  1

  9
$DIMAPOST
  1

  9
$DIMALT
 70
     0
  9
$DIMALTD
 70
     2
  9
$DIMALTF
 40
25.4
  9
$DIMLFAC
 40
1.0
  9
$DIMTOFL
 70
     0
  9
$DIMTVP
 40
0.0
  9
$DIMTIX
 70
     0
  9
$DIMSOXD
 70
     0
  9
$DIMSAH
 70
     0
  9
$DIMBLK1
  1

  9
$DIMBLK2
  1

  9
$DIMSTYLE
  2
Standard
  9
$DIMCLRD
 70
     0
  9
$DIMCLRE
 70
     0
  9
$DIMCLRT
 70
     0
  9
$DIMTFAC
 40
1.0
  9
$DIMGAP
 40
0.06
  9
$DIMJUST
 70
     0
  9
$DIMSD1
 70
     0
  9
$DIMSD2
 70
     0
  9
$DIMTOLJ
 70
     1
  9
$DIMTZIN
 70
     0
  9
$DIMALTZ
 70
     0
  9
$DIMALTTZ
 70
     0
  9
$DIMUPT
 70
     0
  9
$DIMDEC
 70
     2
  9
$DIMTDEC
 70
     2
  9
$DIMALTU
 70
     2
  9
$DIMALTTD
 70
     2
  9
$DIMTXSTY
  7
Standard
  9
$DIMAUNIT
 70
     0
  9
$DIMADEC
 70
     2
  9
$DIMALTRND
 40
0.0
  9
$DIMAZIN
 70
     0
  9
$DIMDSEP
 70
    46
  9
$DIMATFIT
 70
     3
  9
$DIMFRAC
 70
     0
  9
$DIMLDRBLK
  1

  9
$DIMLUNIT
 70
     2
  9
$DIMLWD
 70
    -2
  9
$DIMLWE
 70
    -2
  9
$DIMTMOVE
 70
     0
  9
$LUNITS
 70
     2
  9
$LUPREC
 70
     8
  9
$SKETCHINC
 40
0.1
  9
$FILLETRAD
 40
0.5
  9
$AUNITS
 70
     0
  9
$AUPREC
 70
     2
  9
$MENU
  1
.
  9
$ELEVATION
 40
0.0
  9
$PELEVATION
 40
0.0
  9
$THICKNESS
 40
0.0
  9
$LIMCHECK
 70
     0
  9
$CHAMFERA
 40
0.0
  9
$CHAMFERB
 40
0.0
  9
$CHAMFERC
 40
0.0
  9
$CHAMFERD
 40
0.0
  9
$SKPOLY
 70
     0
  9
$TDCREATE
 40
2457023.354289062
  9
$TDUCREATE
 40
2457023.604289062
  9
$TDUPDATE
 40
2457023.354326076
  9
$TDUUPDATE
 40
2457023.604326076
  9
$TDINDWG
 40
0.0000000116
  9
$TDUSRTIMER
 40
0.0000000116
  9
$USRTIMER
 70
     1
  9
$ANGBASE
 50
0.0
  9
$ANGDIR
 70
     0
  9
$PDMODE
 70
     0
  9
$PDSIZE
 40
-1.0
  9
$PLINEWID
 40
0.0
  9
$SPLFRAME
 70
     0
  9
$SPLINETYPE
 70
     6
  9
$SPLINESEGS
 70
     8
  9
$HANDSEED
  5
E4
  9
$SURFTAB1
 70
     6
  9
$SURFTAB2
 70
     6
  9
$SURFTYPE
 70
     6
  9
$SURFU
 70
     6
  9
$SURFV
 70
     6
  9
$UCSBASE
  2

  9
$UCSNAME
  2

  9
$UCSORG
 10
0.0
 20
0.0
 30
0.0
  9
$UCSXDIR
 10
1.0
 20
0.0
 30
0.0
  9
$UCSYDIR
 10
0.0
 20
1.0
 30
0.0
  9
$UCSORTHOREF
  2

  9
$UCSORTHOVIEW
 70
     0
  9
$UCSORGTOP
 10
0.0
 20
0.0
 30
0.0
  9
$UCSORGBOTTOM
 10
0.0
 20
0.0
 30
0.0
  9
$UCSORGLEFT
 10
0.0
 20
0.0
 30
0.0
  9
$UCSORGRIGHT
 10
0.0
 20
0.0
 30
0.0
  9
$UCSORGFRONT
 10
0.0
 20
0.0
 30
0.0
  9
$UCSORGBACK
 10
0.0
 20
0.0
 30
0.0
  9
$PUCSBASE
  2

  9
$PUCSNAME
  2

  9
$PUCSORG
 10
0.0
 20
0.0
 30
0.0
  9
$PUCSXDIR
 10
1.0
 20
0.0
 30
0.0
  9
$PUCSYDIR
 10
0.0
 20
1.0
 30
0.0
  9
$PUCSORTHOREF
  2

  9
$PUCSORTHOVIEW
 70
     0
  9
$PUCSORGTOP
 10
0.0
 20
0.0
 30
0.0
  9
$PUCSORGBOTTOM
 10
0.0
 20
0.0
 30
0.0
  9
$PUCSORGLEFT
 10
0.0
 20
0.0
 30
0.0
  9
$PUCSORGRIGHT
 10
0.0
 20
0.0
 30
0.0
  9
$PUCSORGFRONT
 10
0.0
 20
0.0
 30
0.0
  9
$PUCSORGBACK
 10
0.0
 20
0.0
 30
0.0
  9
$USERI1
 70
     0
  9
$USERI2
 70
     0
  9
$USERI3
 70
     0
  9
$USERI4
 70
     0
  9
$USERI5
 70
     0
  9
$USERR1
 40
0.0
  9
$USERR2
 40
0.0
  9
$USERR3
 40
0.0
  9
$USERR4
 40
0.0
  9
$USERR5
 40
0.0
  9
$WORLDVIEW
 70
     1
  9
$SHADEDGE
 70
     3
  9
$SHADEDIF
 70
    70
  9
$TILEMODE
 70
     1
  9
$MAXACTVP
 70
    64
  9
$PINSBASE
 10
0.0
 20
0.0
 30
0.0
  9
$PLIMCHECK
 70
     0
  9
$PEXTMIN
 10
1.0000000000E+20
 20
1.0000000000E+20
 30
1.0000000000E+20
  9
$PEXTMAX
 10
-1.0000000000E+20
 20
-1.0000000000E+20
 30
-1.0000000000E+20
  9
$PLIMMIN
 10
0.0
 20
0.0
  9
$PLIMMAX
 10
12.0
 20
9.0
  9
$UNITMODE
 70
     0
  9
$VISRETAIN
 70
     1
  9
$PLINEGEN
 70
     0
  9
$PSLTSCALE
 70
     1
  9
$TREEDEPTH
 70
  3020
  9
$CMLSTYLE
  2
Standard
  9
$CMLJUST
 70
     0
  9
$CMLSCALE
 40
1.0
  9
$PROXYGRAPHICS
 70
     1
  9
$MEASUREMENT
 70
     0
  9
$CELWEIGHT
370
    -1
  9
$ENDCAPS
280
     0
  9
$JOINSTYLE
280
     0
  9
$LWDISPLAY
290
     1
  9
$INSUNITS
 70
     1
  9
$HYPERLINKBASE
  1

  9
$STYLESHEET
  1

  9
$XEDIT
290
     1
  9
$CEPSNTYPE
380
     0
  9
$PSTYLEMODE
290
     1
  9
$FINGERPRINTGUID
  2
{CCEB9B90-5E4D-40F8-A9C9-FCFF680B06B8}
  9
$VERSIONGUID
  2
{FAEB1C32-E019-11D5-929B-00C0DF256EC4}
  9
$EXTNAMES
290
     1
  9
$PSVPSCALE
 40
0.0
  9
$OLESTARTUP
290
     0
  0
ENDSEC
  0
SECTION
  2
CLASSES
  0
CLASS
  1
ACDBDICTIONARYWDFLT
  2
AcDbDictionaryWithDefault
  3
ObjectDBX Classes
 90
        0
280
     0
281
     0
  0
CLASS
  1
VISUALSTYLE
  2
AcDbVisualStyle
  3
ObjectDBX Classes
 90
     4095
280
     0
281
     0
  0
CLASS
  1
MATERIAL
  2
AcDbMaterial
  3
ObjectDBX Classes
 90
     1153
280
     0
281
     0
  0
CLASS
  1
SCALE
  2
AcDbScale
  3
ObjectDBX Classes
 90
     1153
280
     0
281
     0
  0
CLASS
  1
SUN
  2
AcDbSun
  3
SCENEOE
 90
     1153
280
     0
281
     0
  0
CLASS
  1
ACDBPLACEHOLDER
  2
AcDbPlaceHolder
  3
ObjectDBX Classes
 90
        0
280
     0
281
     0
  0
CLASS
  1
LAYOUT
  2
AcDbLayout
  3
ObjectDBX Classes
 90
        0
280
     0
281
     0
  0
ENDSEC
  0
SECTION
  2
TABLES
  0
TABLE
  2
VPORT
  5
8
330
0
100
AcDbSymbolTable
 70
     1
  0
VPORT
  5
29
330
8
100
AcDbSymbolTableRecord
100
AcDbViewportTableRecord
  2
*Active
 70
     0
 10
0.0
 20
0.0
 11
1.0
 21
1.0
 12
11.6258135385
 22
9.1644854838
 13
0.0
 23
0.0
 14
0.5
 24
0.5
 15
0.5
 25
0.5
 16
0.0
 26
0.0
 36
1.0
 17
0.0
 27
0.0
 37
0.0
 40
1.9303653977
 41
4.5307481635
 42
50.0
 43
0.0
 44
0.0
 50
0.0
 51
0.0
 71
     0
 72
   100
 73
     1
 74
     3
 75
     0
 76
     0
 77
     0
 78
     0
281
     0
 65
     1
110
0.0
120
0.0
130
0.0
111
1.0
121
0.0
131
0.0
112
0.0
122
1.0
132
0.0
 79
     0
146
0.0
  0
ENDTAB
  0
TABLE
  2
LTYPE
  5
5
330
0
100
AcDbSymbolTable
 70
     6
  0
LTYPE
  5
14
330
5
100
AcDbSymbolTableRecord
100
AcDbLinetypeTableRecord
  2
ByBlock
 70
     0
  3

 72
    65
 73
     0
 40
0.0
  0
LTYPE
  5
15
330
5
100
AcDbSymbolTableRecord
100
AcDbLinetypeTableRecord
  2
ByLayer
 70
     0
  3

 72
    65
 73
     0
 40
0.0
  0
LTYPE
  5
16
330
5
100
AcDbSymbolTableRecord
100
AcDbLinetypeTableRecord
  2
Continuous
 70
     0
  3
Solid line
 72
    65
 73
     0
 40
0.0
  0
LTYPE
  5
6A
330
5
100
AcDbSymbolTableRecord
100
AcDbLinetypeTableRecord
  2
HIDDEN
 70
     0
  3
Hidden __ __ __ __ __ __ __ __ __ __ __ __ __ __
 72
    65
 73
     2
 40
0.075
 49
0.05
 74
     0
 49
-0.025
 74
     0
  0
LTYPE
  5
6B
330
5
100
AcDbSymbolTableRecord
100
AcDbLinetypeTableRecord
  2
PHANTOM
 70
     0
  3
Phantom ______  __  __  ______  __  __  ______
 72
    65
 73
     6
 40
0.5
 49
0.25
 74
     0
 49
-0.05
 74
     0
 49
0.05
 74
     0
 49
-0.05
 74
     0
 49
0.05
 74
     0
 49
-0.05
 74
     0
  0
LTYPE
  5
6C
330
5
100
AcDbSymbolTableRecord
100
AcDbLinetypeTableRecord
  2
CENTER
 70
     0
  3
Center ____ _ ____ _ ____ _ ____ _ ____ _ ____
 72
    65
 73
     4
 40
0.4
 49
0.25
 74
     0
 49
-0.05
 74
     0
 49
0.05
 74
     0
 49
-0.05
 74
     0
  0
LTYPE
  5
6D
330
5
100
AcDbSymbolTableRecord
100
AcDbLinetypeTableRecord
  2
CENTERX2
 70
     0
  3
Center (2x) ________  __  ________  __  _____
 72
    65
 73
     4
 40
0.8
 49
0.5
 74
     0
 49
-0.1
 74
     0
 49
0.1
 74
     0
 49
-0.1
 74
     0
  0
LTYPE
  5
6E
330
5
100
AcDbSymbolTableRecord
100
AcDbLinetypeTableRecord
  2
DOT2
 70
     0
  3
Dot (.5x) ........................................
 72
    65
 73
     2
 40
0.025
 49
0.0
 74
     0
 49
-0.025
 74
     0
  0
ENDTAB
  0
TABLE
  2
LAYER
  5
2
330
0
100
AcDbSymbolTable
 70
     1
  0
LAYER
  5
10
330
2
100
AcDbSymbolTableRecord
100
AcDbLayerTableRecord
  2
0
 70
     0
 62
     7
  6
Continuous
370
    -3
390
F
  0
ENDTAB
  0
TABLE
  2
STYLE
  5
3
330
0
100
AcDbSymbolTable
 70
     2
  0
STYLE
  5
11
330
3
100
AcDbSymbolTableRecord
100
AcDbTextStyleTableRecord
  2
Standard
 70
     0
 40
0.0
 41
1.0
 50
0.0
 71
     0
 42
0.1377952756
  3
txt
  4

  0
STYLE
  5
E1
330
3
100
AcDbSymbolTableRecord
100
AcDbTextStyleTableRecord
  2
SLDTEXTSTYLE0
 70
     0
 40
0.0
 41
0.7
 50
0.0
 71
     0
 42
0.1377952756
  3
TXT
  4

  0
ENDTAB
  0
TABLE
  2
VIEW
  5
6
330
0
100
AcDbSymbolTable
 70
     0
  0
ENDTAB
  0
TABLE
  2
UCS
  5
7
330
0
100
AcDbSymbolTable
 70
     0
  0
ENDTAB
  0
TABLE
  2
APPID
  5
9
330
0
100
AcDbSymbolTable
 70
     1
  0
APPID
  5
12
330
9
100
AcDbSymbolTableRecord
100
AcDbRegAppTableRecord
  2
ACAD
 70
     0
  0
ENDTAB
  0
TABLE
  2
DIMSTYLE
  5
A
330
0
100
AcDbSymbolTable
 70
     1
100
AcDbDimStyleTable
  0
DIMSTYLE
105
27
330
A
100
AcDbSymbolTableRecord
100
AcDbDimStyleTableRecord
  2
Standard
 70
     0
178
     0
340
11
  0
ENDTAB
  0
TABLE
  2
BLOCK_RECORD
  5
1
330
0
100
AcDbSymbolTable
 70
     1
  0
BLOCK_RECORD
  5
1F
330
1
100
AcDbSymbolTableRecord
100
AcDbBlockTableRecord
  2
*Model_Space
340
22
  0
BLOCK_RECORD
  5
1B
330
1
100
AcDbSymbolTableRecord
100
AcDbBlockTableRecord
  2
*Paper_Space
340
1E
  0
BLOCK_RECORD
  5
23
330
1
100
AcDbSymbolTableRecord
100
AcDbBlockTableRecord
  2
*Paper_Space0
340
26
  0
ENDTAB
  0
ENDSEC
  0
SECTION
  2
BLOCKS
  0
BLOCK
  5
20
330
1F
100
AcDbEntity
  8
0
100
AcDbBlockBegin
  2
*Model_Space
 70
     0
 10
0.0
 20
0.0
 30
0.0
  3
*Model_Space
  1
*Model_Space
  0
ENDBLK
  5
21
330
1F
100
AcDbEntity
  8
0
100
AcDbBlockEnd
  0
BLOCK
  5
1C
330
1B
100
AcDbEntity
 67
     1
  8
0
100
AcDbBlockBegin
  2
*Paper_Space
 70
     0
 10
0.0
 20
0.0
 30
0.0
  3
*Paper_Space
  1
*Paper_Space
  0
ENDBLK
  5
1D
330
1B
100
AcDbEntity
 67
     1
  8
0
100
AcDbBlockEnd
  0
BLOCK
  5
24
330
23
100
AcDbEntity
  8
0
100
AcDbBlockBegin
  2
*Paper_Space0
 70
     0
 10
0.0
 20
0.0
 30
0.0
  3
*Paper_Space0
  1
*Paper_Space0
  0
ENDBLK
  5
25
330
23
100
AcDbEntity
  8
0
100
AcDbBlockEnd
  0
ENDSEC
  0
SECTION
  2
ENTITIES
  0
LINE
  5
6F
330
1F
100
AcDbEntity
  8
0
  6
Continuous
 62
     7
370
    15
100
AcDbLine
 10
8.3664884868
 20
9.5462693475
 30
0.0
 11
8.1966488487
 21
9.0464749396
 31
0.0
  0
LINE
  5
70
330
1F
100
AcDbEntity
  8
0
  6
Continuous
 62
     7
370
    15
100
AcDbLine
 10
7.9901726974
 20
9.5462693475
 30
0.0
 11
8.3664884868
 21
9.5462693475
 31
0.0
  0
LINE
  5
71
330
1F
100
AcDbEntity
  8
0
  6
Continuous
 62
     7
370
    15
100
AcDbLine
 10
7.9508223684
 20
9.4304798738
 30
0.0
 11
7.9901726974
 21
9.5462693475
 31
0.0
  0
LINE
  5
72
330
1F
100
AcDbEntity
  8
0
  6
Continuous
 62
     7
370
    15
100
AcDbLine
 10
8.196875
 20
9.4304798738
 30
0.0
 11
7.9508223684
 21
9.4304798738
 31
0.0
  0
LINE
  5
73
330
1F
100
AcDbEntity
  8
0
  6
Continuous
 62
     7
370
    15
100
AcDbLine
 10
8.0912623355
 20
9.1197479659
 30
0.0
 11
8.196875
 21
9.4304798738
 31
0.0
  0
SPLINE
  5
74
330
1F
100
AcDbEntity
  8
0
  6
Continuous
 62
     7
370
    15
100
AcDbSpline
210
0.0
220
0.0
230
1.0
 70
     8
 71
     3
 72
    15
 73
    11
 74
     0
 42
0.000000001
 43
0.00000001
 40
0.0
 40
0.0
 40
0.0
 40
0.0
 40
0.1293620462968027
 40
0.2562832304595068
 40
0.3821303821323406
 40
0.5071724948803774
 40
0.6306649487384438
 40
0.7533968900071066
 40
0.8763917228194943
 40
1.0
 40
1.0
 40
1.0
 40
1.0
 10
7.848375822368984
 20
9.068637768574677
 30
0.0
 10
7.859158729476503
 20
9.068849669571616
 30
0.0
 10
7.880521086878607
 20
9.069269473320766
 30
0.0
 10
7.91232021279238
 20
9.071469086200052
 30
0.0
 10
7.943564552193375
 20
9.075591973662704
 30
0.0
 10
7.974254890501732
 20
9.081301593530846
 30
0.0
 10
8.004454858732066
 20
9.08816268436155
 30
0.0
 10
8.03391309206861
 20
9.09714595955932
 30
0.0
 10
8.06294546487509
 20
9.107454074988215
 30
0.0
 10
8.08180773818687
 20
9.115643211920311
 30
0.0
 10
8.091262335526881
 20
9.119747965943082
 30
0.0
  0
SPLINE
  5
75
330
1F
100
AcDbEntity
  8
0
  6
Continuous
 62
     7
370
    15
100
AcDbSpline
210
0.0
220
0.0
230
1.0
 70
     8
 71
     3
 72
    23
 73
    19
 74
     0
 42
0.000000001
 43
0.00000001
 40
0.0
 40
0.0
 40
0.0
 40
0.0
 40
0.0829872782787614
 40
0.1597465609684217
 40
0.2309783595684815
 40
0.2972641623921043
 40
0.3593032001925162
 40
0.4178851984218235
 40
0.4737174276623211
 40
0.5281605120889274
 40
0.5815839904556385
 40
0.634194897083171
 40
0.687304382831139
 40
0.7422478695157115
 40
0.800032826246511
 40
0.8615890067922348
 40
0.9280399504437654
 40
1.0
 40
1.0
 40
1.0
 40
1.0
 10
7.587849506579537
 20
9.512346650153638
 30
0.0
 10
7.582492097839446
 20
9.495602973726013
 30
0.0
 10
7.572179340996679
 20
9.463372193505746
 30
0.0
 10
7.560985990457691
 20
9.415694176006648
 30
0.0
 10
7.554217015767342
 20
9.370763565320129
 30
0.0
 10
7.552081066747331
 20
9.328479881812498
 30
0.0
 10
7.554231587980381
 20
9.28888190383853
 30
0.0
 10
7.560609502240426
 20
9.251947641062909
 30
0.0
 10
7.571819181154838
 20
9.217853690931674
 30
0.0
 10
7.587237953692591
 20
9.186680060657533
 30
0.0
 10
7.606684675130906
 20
9.15862532464683
 30
0.0
 10
7.630354087588852
 20
9.134440070176726
 30
0.0
 10
7.657553022094267
 20
9.113769674834783
 30
0.0
 10
7.688726348633311
 20
9.097306371889445
 30
0.0
 10
7.723404868014982
 20
9.084398452498723
 30
0.0
 10
7.761750021925414
 20
9.075254654688203
 30
0.0
 10
7.803800705451762
 20
9.06950165083143
 30
0.0
 10
7.833128345433972
 20
9.068933270318594
 30
0.0
 10
7.848375822368983
 20
9.068637768574675
 30
0.0
  0
SPLINE
  5
76
330
1F
100
AcDbEntity
  8
0
  6
Continuous
 62
     7
370
    15
100
AcDbSpline
210
0.0
220
0.0
230
1.0
 70
     8
 71
     3
 72
    23
 73
    19
 74
     0
 42
0.000000001
 43
0.00000001
 40
0.0
 40
0.0
 40
0.0
 40
0.0
 40
0.0588155802045223
 40
0.1171922160290551
 40
0.1753358908305474
 40
0.2339231155784837
 40
0.2933720156031064
 40
0.3542145608622123
 40
0.4166205630262602
 40
0.4810582547026445
 40
0.5461736711109707
 40
0.6104453774177665
 40
0.6742165354800574
 40
0.7380690946254699
 40
0.8022958135033035
 40
0.8669308287903266
 40
0.9328550204038824
 40
0.9999999999999999
 40
0.9999999999999999
 40
0.9999999999999999
 40
0.9999999999999999
 10
8.163856907895356
 20
9.966006189627288
 30
0.0
 10
8.14853641387122
 20
9.96559609603793
 30
0.0
 10
8.11800976363492
 20
9.964778969413501
 30
0.0
 10
8.072651062444038
 20
9.958774270400829
 30
0.0
 10
8.028112604344681
 20
9.948733602438399
 30
0.0
 10
7.984316402953064
 20
9.934867124747056
 30
0.0
 10
7.941168508334237
 20
9.91715933264272
 30
0.0
 10
7.898788655453337
 20
9.89539163804138
 30
0.0
 10
7.857343010464217
 20
9.869384965149829
 30
0.0
 10
7.816883659141448
 20
9.839953660208336
 30
0.0
 10
7.778248022919617
 20
9.807394179750155
 30
0.0
 10
7.742192716748635
 20
9.772254201215581
 30
0.0
 10
7.708976771559255
 20
9.734840217086381
 30
0.0
 10
7.678947851022225
 20
9.694853061572367
 30
0.0
 10
7.651413379875118
 20
9.652830713065676
 30
0.0
 10
7.627262820608218
 20
9.608170479032722
 30
0.0
 10
7.605565581228438
 20
9.561412348126883
 30
0.0
 10
7.593790872192487
 20
9.528801607388298
 30
0.0
 10
7.587849506579537
 20
9.512346650153638
 30
0.0
  0
SPLINE
  5
77
330
1F
100
AcDbEntity
  8
0
  6
Continuous
 62
     7
370
    15
100
AcDbSpline
210
0.0
220
0.0
230
1.0
 70
     8
 71
     3
 72
    15
 73
    11
 74
     0
 42
0.000000001
 43
0.00000001
 40
0.0
 40
0.0
 40
0.0
 40
0.0
 40
0.1109490395530419
 40
0.2243561092703429
 40
0.3401784988813826
 40
0.4601882342029738
 40
0.5854072774061385
 40
0.7167360349631986
 40
0.8542193605479784
 40
1.0
 40
1.0
 40
1.0
 40
1.0
 10
8.450616776316402
 20
9.87916408436411
 30
0.0
 10
8.441723196570063
 20
9.886167659429024
 30
0.0
 10
8.423739003489956
 20
9.900329970872882
 30
0.0
 10
8.39363455241257
 20
9.917729365891345
 30
0.0
 10
8.361348553163833
 20
9.932801559349743
 30
0.0
 10
8.326558300721917
 20
9.944972803264443
 30
0.0
 10
8.289323330284283
 20
9.954451133389218
 30
0.0
 10
8.249688209357746
 20
9.961124337945964
 30
0.0
 10
8.207593371922451
 20
9.965292592453642
 30
0.0
 10
8.178717669752125
 20
9.96576372380626
 30
0.0
 10
8.163856907895354
 20
9.966006189627286
 30
0.0
  0
LINE
  5
78
330
1F
100
AcDbEntity
  8
0
  6
Continuous
 62
     7
370
    15
100
AcDbLine
 10
8.4994654605
 20
10.0229963212
 30
0.0
 11
8.4506167763
 21
9.8791640844
 31
0.0
  0
SPLINE
  5
79
330
1F
100
AcDbEntity
  8
0
  6
Continuous
 62
     7
370
    15
100
AcDbSpline
210
0.0
220
0.0
230
1.0
 70
     8
 71
     3
 72
    15
 73
    11
 74
     0
 42
0.000000001
 43
0.00000001
 40
0.0
 40
0.0
 40
0.0
 40
0.0
 40
0.1501552018047598
 40
0.2927679247967102
 40
0.426699316442288
 40
0.5544729416904635
 40
0.6745125907469824
 40
0.7885102442624377
 40
0.8968321663081955
 40
1.0
 40
1.0
 40
1.0
 40
1.0
 10
8.219490131579573
 20
10.08179566331149
 30
0.0
 10
8.233966894327418
 20
10.08162055179092
 30
0.0
 10
8.262193234384371
 20
10.08127912481489
 30
0.0
 10
8.303280995505451
 20
10.07868008120617
 30
0.0
 10
8.341959517013224
 20
10.07374367542688
 30
0.0
 10
8.378299586386671
 20
10.06774378614265
 30
0.0
 10
8.41214339186097
 20
10.05916623373281
 30
0.0
 10
8.443693897550498
 20
10.04941077098807
 30
0.0
 10
8.47280664112562
 20
10.03751079171077
 30
0.0
 10
8.490724744463476
 20
10.02775522907764
 30
0.0
 10
8.499465460526938
 20
10.02299632120621
 30
0.0
  0
SPLINE
  5
7A
330
1F
100
AcDbEntity
  8
0
  6
Continuous
 62
     7
370
    15
100
AcDbSpline
210
0.0
220
0.0
230
1.0
 70
     8
 71
     3
 72
    23
 73
    19
 74
     0
 42
0.000000001
 43
0.00000001
 40
0.0
 40
0.0
 40
0.0
 40
0.0
 40
0.0648621339615588
 40
0.1288254420170661
 40
0.1920466246491452
 40
0.2550256183010883
 40
0.3179361336675329
 40
0.3813723339104462
 40
0.4457238583336814
 40
0.5111888285578408
 40
0.5763335317186993
 40
0.6394539152072151
 40
0.7011172305527575
 40
0.7616129419445348
 40
0.8213295976726439
 40
0.8806243967975398
 40
0.9399736910356907
 40
0.9999999999999999
 40
0.9999999999999999
 40
0.9999999999999999
 40
0.9999999999999999
 10
7.454420230263747
 20
9.502848294890489
 30
0.0
 10
7.461943782132594
 20
9.523631376618708
 30
0.0
 10
7.476886628379635
 20
9.564909538877474
 30
0.0
 10
7.504743908944995
 20
9.624188084369743
 30
0.0
 10
7.536341186332272
 20
9.680805962402873
 30
0.0
 10
7.572601182162963
 20
9.734118939570036
 30
0.0
 10
7.612119417676638
 20
9.785152260994384
 30
0.0
 10
7.65628585050388
 20
9.832879231864792
 30
0.0
 10
7.704269693283592
 20
9.878020405233295
 30
0.0
 10
7.756041349617063
 20
9.919700544169672
 30
0.0
 10
7.810036606938803
 20
9.957715853537728
 30
0.0
 10
7.865613105006254
 20
9.99096322053264
 30
0.0
 10
7.922315526679272
 20
10.01882552062226
 30
0.0
 10
7.979921459433725
 20
10.04177046581364
 30
0.0
 10
8.038428055534348
 20
10.05981556423261
 30
0.0
 10
8.09792816046957
 20
10.07236681966039
 30
0.0
 10
8.158356935016025
 20
10.08045329201553
 30
0.0
 10
8.199035499292886
 20
10.0813465176297
 30
0.0
 10
8.219490131579573
 20
10.08179566331149
 30
0.0
  0
SPLINE
  5
7B
330
1F
100
AcDbEntity
  8
0
  6
Continuous
 62
     7
370
    15
100
AcDbSpline
210
0.0
220
0.0
230
1.0
 70
     8
 71
     3
 72
    23
 73
    19
 74
     0
 42
0.000000001
 43
0.00000001
 40
0.0
 40
0.0
 40
0.0
 40
0.0
 40
0.0716079674211016
 40
0.1383690889090467
 40
0.2008710779217016
 40
0.259426002838106
 40
0.3155518772016316
 40
0.3701713178119349
 40
0.4245970031446704
 40
0.4796757250808132
 40
0.5355316503040908
 40
0.5922537672032521
 40
0.6507892598679292
 40
0.7120084915708659
 40
0.7767407466280797
 40
0.8460442734898378
 40
0.920189559660032
 40
1.0
 40
1.0
 40
1.0
 40
1.0
 10
7.795456414474239
 20
8.952848294890467
 30
0.0
 10
7.776507625890279
 20
8.953202995229692
 30
0.0
 10
7.739892613528955
 20
8.953888387715216
 30
0.0
 10
7.687184987213255
 20
8.961373864868516
 30
0.0
 10
7.638762612000948
 20
8.972807223971934
 30
0.0
 10
7.594784818740849
 20
8.989407861381267
 30
0.0
 10
7.555323793327932
 20
9.010820065678418
 30
0.0
 10
7.519944604729274
 20
9.036722391163623
 30
0.0
 10
7.489465760913974
 20
9.067873229034255
 30
0.0
 10
7.463594247023917
 20
9.103307613891124
 30
0.0
 10
7.442765915874085
 20
9.142606992108975
 30
0.0
 10
7.427173797220278
 20
9.185257114617032
 30
0.0
 10
7.417881461724093
 20
9.231144214771845
 30
0.0
 10
7.41391697053176
 20
9.279860217292958
 30
0.0
 10
7.415307144982166
 20
9.331589805063984
 30
0.0
 10
7.422956143014169
 20
9.38618535735635
 30
0.0
 10
7.435555045862512
 20
9.443946368135725
 30
0.0
 10
7.447979440758383
 20
9.482738504091788
 30
0.0
 10
7.454420230263748
 20
9.50284829489049
 30
0.0
  0
SPLINE
  5
7C
330
1F
100
AcDbEntity
  8
0
  6
Continuous
 62
     7
370
    15
100
AcDbSpline
210
0.0
220
0.0
230
1.0
 70
     8
 71
     3
 72
    15
 73
    11
 74
     0
 42
0.000000001
 43
0.00000001
 40
0.0
 40
0.0
 40
0.0
 40
0.0
 40
0.130416419150755
 40
0.2586388828190766
 40
0.3850285878911362
 40
0.5094358970484596
 40
0.633413514513389
 40
0.7555395819786656
 40
0.8779905114181537
 40
1.0
 40
1.0
 40
1.0
 40
1.0
 10
8.19664884868477
 20
9.046474939627286
 30
0.0
 10
8.180217800071608
 20
9.038979316686627
 30
0.0
 10
8.147632117344482
 20
9.02411416737468
 30
0.0
 10
8.097752697773991
 20
9.005206163563962
 30
0.0
 10
8.047789796786226
 20
8.989090153773006
 30
0.0
 10
7.997565680405804
 20
8.975972733076002
 30
0.0
 10
7.947326905871791
 20
8.96544446840582
 30
0.0
 10
7.896774786662356
 20
8.958354400971801
 30
0.0
 10
7.846209234162045
 20
8.953511855796563
 30
0.0
 10
7.81235364249384
 20
8.95306921542265
 30
0.0
 10
7.795456414474239
 20
8.952848294890467
 30
0.0
  0
LINE
  5
7D
330
1F
100
AcDbEntity
  8
0
  6
Continuous
 62
     7
370
    15
100
AcDbLine
 10
8.7973067434
 20
9.7489009265
 30
0.0
 11
8.5315789474
 21
8.9673219791
 31
0.0
  0
LINE
  5
7E
330
1F
100
AcDbEntity
  8
0
  6
Continuous
 62
     7
370
    15
100
AcDbLine
 10
8.6670435855
 20
9.7489009265
 30
0.0
 11
8.7973067434
 21
9.7489009265
 31
0.0
  0
LINE
  5
7F
330
1F
100
AcDbEntity
  8
0
  6
Continuous
 62
     7
370
    15
100
AcDbLine
 10
8.4013157895
 20
8.9673219791
 30
0.0
 11
8.6670435855
 21
9.7489009265
 31
0.0
  0
LINE
  5
80
330
1F
100
AcDbEntity
  8
0
  6
Continuous
 62
     7
370
    15
100
AcDbLine
 10
8.5315789474
 20
8.9673219791
 30
0.0
 11
8.4013157895
 21
8.9673219791
 31
0.0
  0
SPLINE
  5
81
330
1F
100
AcDbEntity
  8
0
  6
Continuous
 62
     7
370
    15
100
AcDbSpline
210
0.0
220
0.0
230
1.0
 70
     8
 71
     2
 72
     6
 73
     3
 74
     0
 42
0.000000001
 43
0.00000001
 40
0.0
 40
0.0
 40
0.0
 40
1.0
 40
1.0
 40
1.0
 10
15.91306818575688
 20
8.340397153750835
 30
0.0
 10
11.63633908172609
 20
8.747811481024488
 30
0.0
 10
7.338558891191964
 20
8.361833426987783
 30
0.0
  0
LINE
  5
82
330
1F
100
AcDbEntity
  8
0
  6
Continuous
 62
     7
370
    15
100
AcDbLine
 10
7.3385588912
 20
8.361833427
 30
0.0
 11
7.4031291393
 21
8.218227936
 31
0.0
  0
SPLINE
  5
83
330
1F
100
AcDbEntity
  8
0
  6
Continuous
 62
     7
370
    15
100
AcDbSpline
210
0.0
220
0.0
230
1.0
 70
     8
 71
     2
 72
     6
 73
     3
 74
     0
 42
0.000000001
 43
0.00000001
 40
0.0
 40
0.0
 40
0.0
 40
1.0
 40
1.0
 40
1.0
 10
7.40312913926513
 20
8.21822793596633
 30
0.0
 10
11.65524216558281
 20
8.62775600921641
 30
0.0
 10
15.91306818575688
 20
8.340397153750835
 30
0.0
  0
LINE
  5
84
330
1F
100
AcDbEntity
  8
0
  6
Continuous
 62
     7
370
    15
100
AcDbLine
 10
9.4497532895
 20
9.7522931962
 30
0.0
 11
9.404296875
 21
9.6186377686
 31
0.0
  0
SPLINE
  5
85
330
1F
100
AcDbEntity
  8
0
  6
Continuous
 62
     7
370
    15
100
AcDbSpline
210
0.0
220
0.0
230
1.0
 70
     8
 71
     3
 72
    11
 73
     7
 74
     0
 42
0.000000001
 43
0.00000001
 40
0.0
 40
0.0
 40
0.0
 40
0.0
 40
0.314018011900454
 40
0.5845900648879486
 40
0.8114444293203624
 40
1.0
 40
1.0
 40
1.0
 40
1.0
 10
9.380550986842712
 20
9.763374610679843
 30
0.0
 10
9.387943999558182
 20
9.763258424089486
 30
0.0
 10
9.401707164788407
 20
9.76304212590332
 30
0.0
 10
9.42073324862221
 20
9.761154895981866
 30
0.0
 10
9.436594896595736
 20
9.757730388598276
 30
0.0
 10
9.445645292817776
 20
9.753990665522796
 30
0.0
 10
9.449753289474291
 20
9.752293196206155
 30
0.0
  0
SPLINE
  5
86
330
1F
100
AcDbEntity
  8
0
  6
Continuous
 62
     7
370
    15
100
AcDbSpline
210
0.0
220
0.0
230
1.0
 70
     8
 71
     3
 72
    15
 73
    11
 74
     0
 42
0.000000001
 43
0.00000001
 40
0.0
 40
0.0
 40
0.0
 40
0.0
 40
0.1482518658040275
 40
0.2889967910804419
 40
0.4230165304716838
 40
0.5528459927814955
 40
0.675882001747541
 40
0.7901116979935721
 40
0.8972134954765758
 40
1.0
 40
1.0
 40
1.0
 40
1.0
 10
9.121833881579544
 20
9.588107340943017
 30
0.0
 10
9.130940459896271
 20
9.60133003493169
 30
0.0
 10
9.148692492202802
 20
9.627105873309443
 30
0.0
 10
9.178698533739977
 20
9.661809703219614
 30
0.0
 10
9.210501471941692
 20
9.692034793168073
 30
0.0
 10
9.244089121105423
 20
9.7171678770412
 30
0.0
 10
9.278202549585492
 20
9.737735291261842
 30
0.0
 10
9.31258124767081
 20
9.752379507852815
 30
0.0
 10
9.346683196010659
 20
9.761534969678033
 30
0.0
 10
9.369417528812654
 20
9.76276986010767
 30
0.0
 10
9.380550986842712
 20
9.763374610679843
 30
0.0
  0
LINE
  5
87
330
1F
100
AcDbEntity
  8
0
  6
Continuous
 62
     7
370
    15
100
AcDbLine
 10
9.1188939145
 20
9.5881073409
 30
0.0
 11
9.1218338816
 21
9.5881073409
 31
0.0
  0
LINE
  5
88
330
1F
100
AcDbEntity
  8
0
  6
Continuous
 62
     7
370
    15
100
AcDbLine
 10
9.1736225329
 20
9.7489009265
 30
0.0
 11
9.1188939145
 21
9.5881073409
 31
0.0
  0
LINE
  5
89
330
1F
100
AcDbEntity
  8
0
  6
Continuous
 62
     7
370
    15
100
AcDbLine
 10
9.043359375
 20
9.7489009265
 30
0.0
 11
9.1736225329
 21
9.7489009265
 31
0.0
  0
LINE
  5
8A
330
1F
100
AcDbEntity
  8
0
  6
Continuous
 62
     7
370
    15
100
AcDbLine
 10
8.7776315789
 20
8.9673219791
 30
0.0
 11
9.043359375
 21
9.7489009265
 31
0.0
  0
LINE
  5
8B
330
1F
100
AcDbEntity
  8
0
  6
Continuous
 62
     7
370
    15
100
AcDbLine
 10
8.9078947368
 20
8.9673219791
 30
0.0
 11
8.7776315789
 21
8.9673219791
 31
0.0
  0
LINE
  5
8C
330
1F
100
AcDbEntity
  8
0
  6
Continuous
 62
     7
370
    15
100
AcDbLine
 10
9.043359375
 20
9.3658005975
 30
0.0
 11
8.9078947368
 21
8.9673219791
 31
0.0
  0
SPLINE
  5
8D
330
1F
100
AcDbEntity
  8
0
  6
Continuous
 62
     7
370
    15
100
AcDbSpline
210
0.0
220
0.0
230
1.0
 70
     8
 71
     3
 72
    23
 73
    19
 74
     0
 42
0.000000001
 43
0.00000001
 40
0.0
 40
0.0
 40
0.0
 40
0.0
 40
0.0464080088919691
 40
0.0935327742239434
 40
0.1424494628170058
 40
0.1926746517020357
 40
0.2454717925365337
 40
0.3013532668521053
 40
0.3608395736706852
 40
0.4233865998706283
 40
0.48853588539157
 40
0.5550975767325543
 40
0.6237371367010263
 40
0.69397740803693
 40
0.7665525794411687
 40
0.8414828518705031
 40
0.9192245861818945
 40
1.0
 40
1.0
 40
1.0
 40
1.0
 10
9.321751644737443
 20
9.647585136995636
 30
0.0
 10
9.315250588034719
 20
9.647386314068795
 30
0.0
 10
9.302148067945819
 20
9.64698559746037
 30
0.0
 10
9.282528100402798
 20
9.643069986300832
 30
0.0
 10
9.262880282889768
 20
9.63725749966677
 30
0.0
 10
9.243241051187471
 20
9.628994401100101
 30
0.0
 10
9.22371360746469
 20
9.618277799025865
 30
0.0
 10
9.204279294173368
 20
9.604967481037203
 30
0.0
 10
9.184608987825976
 20
9.589675273677514
 30
0.0
 10
9.165262317170761
 20
9.571985909343756
 30
0.0
 10
9.146300065280375
 20
9.552478731477954
 30
0.0
 10
9.128437843386074
 20
9.530835727326131
 30
0.0
 10
9.11151024445901
 20
9.507582420903303
 30
0.0
 10
9.095589889308178
 20
9.482612964207256
 30
0.0
 10
9.081004567886678
 20
9.455842698783867
 30
0.0
 10
9.067118293985743
 20
9.427536610641436
 30
0.0
 10
9.054414708111038
 20
9.397413766898133
 30
0.0
 10
9.047091204772581
 20
9.376471914748372
 30
0.0
 10
9.04335937500058
 20
9.365800597521968
 30
0.0
  0
SPLINE
  5
8E
330
1F
100
AcDbEntity
  8
0
  6
Continuous
 62
     7
370
    15
100
AcDbSpline
210
0.0
220
0.0
230
1.0
 70
     8
 71
     3
 72
    11
 73
     7
 74
     0
 42
0.000000001
 43
0.00000001
 40
0.0
 40
0.0
 40
0.0
 40
0.0
 40
0.2054081572708229
 40
0.4292604984099944
 40
0.6915118996349714
 40
1.0
 40
1.0
 40
1.0
 40
1.0
 10
9.404296875000599
 20
9.618637768574578
 30
0.0
 10
9.4000037411938
 20
9.623161022561025
 30
0.0
 10
9.39103198085997
 20
9.632613686400935
 30
0.0
 10
9.37172691709835
 20
9.641472325927932
 30
0.0
 10
9.348286029621566
 20
9.646779015598902
 30
0.0
 10
9.331061568549044
 20
9.647302299130004
 30
0.0
 10
9.321751644737443
 20
9.647585136995636
 30
0.0
  0
SPLINE
  5
8F
330
1F
100
AcDbEntity
  8
0
  6
Continuous
 62
     7
370
    15
100
AcDbSpline
210
0.0
220
0.0
230
1.0
 70
     8
 71
     3
 72
    15
 73
    11
 74
     0
 42
0.000000001
 43
0.00000001
 40
0.0
 40
0.0
 40
0.0
 40
0.0
 40
0.1219170741323365
 40
0.2435921760103524
 40
0.3717501610378617
 40
0.5058016025473718
 40
0.6390188400817943
 40
0.7615753529771551
 40
0.8827439127694588
 40
0.9999999999999999
 40
0.9999999999999999
 40
0.9999999999999999
 40
0.9999999999999999
 10
8.907442434211147
 20
10.03068546594303
 30
0.0
 10
8.905364430648948
 20
10.02531829350502
 30
0.0
 10
8.901212547796803
 20
10.01459460100746
 30
0.0
 10
8.89152227016353
 20
9.999879565022555
 30
0.0
 10
8.879536203317013
 20
9.986271421669715
 30
0.0
 10
8.865166219172963
 20
9.974348557631007
 30
0.0
 10
8.849782705437672
 20
9.964197925653417
 30
0.0
 10
8.8334591859871
 20
9.957114268503584
 30
0.0
 10
8.817040333209766
 20
9.952229876939466
 30
0.0
 10
8.805783008382223
 20
9.951762405572193
 30
0.0
 10
8.800246710526931
 20
9.95153250541672
 30
0.0
  0
SPLINE
  5
90
330
1F
100
AcDbEntity
  8
0
  6
Continuous
 62
     7
370
    15
100
AcDbSpline
210
0.0
220
0.0
230
1.0
 70
     8
 71
     3
 72
    15
 73
    11
 74
     0
 42
0.000000001
 43
0.00000001
 40
0.0
 40
0.0
 40
0.0
 40
0.0
 40
0.1351481751768389
 40
0.2560976556108882
 40
0.371933582118491
 40
0.4866630598485076
 40
0.6044708726834461
 40
0.7242657909502427
 40
0.8532882763145966
 40
1.0
 40
1.0
 40
1.0
 40
1.0
 10
8.854296875000625
 20
10.11074303173251
 30
0.0
 10
8.859534119239356
 20
10.11054001800395
 30
0.0
 10
8.86945838177302
 20
10.11015531921041
 30
0.0
 10
8.883311980190244
 20
10.10569652495329
 30
0.0
 10
8.894935926016716
 20
10.09837607520687
 30
0.0
 10
8.903937551819341
 20
10.08812419572432
 30
0.0
 10
8.910014565709147
 20
10.07580736363063
 30
0.0
 10
8.913184129552725
 20
10.06181557322093
 30
0.0
 10
8.911895091004196
 20
10.04639678953346
 30
0.0
 10
8.908988802402833
 20
10.03614186920488
 30
0.0
 10
8.907442434211147
 20
10.03068546594303
 30
0.0
  0
SPLINE
  5
91
330
1F
100
AcDbEntity
  8
0
  6
Continuous
 62
     7
370
    15
100
AcDbSpline
210
0.0
220
0.0
230
1.0
 70
     8
 71
     3
 72
    15
 73
    11
 74
     0
 42
0.000000001
 43
0.00000001
 40
0.0
 40
0.0
 40
0.0
 40
0.0
 40
0.127189123363397
 40
0.2526477018265912
 40
0.3799782924401195
 40
0.5130472098241382
 40
0.6442867804227157
 40
0.7662633268761292
 40
0.8841329625630497
 40
1.0
 40
1.0
 40
1.0
 40
1.0
 10
8.748231907895358
 20
10.03068546594304
 30
0.0
 10
8.750374506940895
 20
10.03628360201529
 30
0.0
 10
8.75463055266616
 20
10.047403705494
 30
0.0
 10
8.764490683746676
 20
10.06243472863175
 30
0.0
 10
8.776355364566907
 20
10.07620994895762
 30
0.0
 10
8.790422630622087
 20
10.08820693810146
 30
0.0
 10
8.805796808984615
 20
10.09795712454643
 30
0.0
 10
8.821587970805256
 20
10.10547683796503
 30
0.0
 10
8.83784029595679
 20
10.10998526589609
 30
0.0
 10
8.84884277081764
 20
10.11049188999721
 30
0.0
 10
8.854296875000625
 20
10.11074303173251
 30
0.0
  0
SPLINE
  5
92
330
1F
100
AcDbEntity
  8
0
  6
Continuous
 62
     7
370
    15
100
AcDbSpline
210
0.0
220
0.0
230
1.0
 70
     8
 71
     3
 72
    15
 73
    11
 74
     0
 42
0.000000001
 43
0.00000001
 40
0.0
 40
0.0
 40
0.0
 40
0.0
 40
0.1349412534452187
 40
0.255587806987229
 40
0.3702052290249916
 40
0.4849589381763513
 40
0.6016541865768834
 40
0.7206703063419889
 40
0.8513752030467495
 40
1.0
 40
1.0
 40
1.0
 40
1.0
 10
8.800246710526931
 20
9.95153250541672
 30
0.0
 10
8.795082670901989
 20
9.95173118501923
 30
0.0
 10
8.785301632640989
 20
9.952107497544878
 30
0.0
 10
8.771725813695612
 20
9.956606260842712
 30
0.0
 10
8.760287246678748
 20
9.963726644468043
 30
0.0
 10
8.751264969967966
 20
9.973625266605985
 30
0.0
 10
8.74542191329586
 20
9.985816435889882
 30
0.0
 10
8.742546153026824
 20
9.999652107475297
 30
0.0
 10
8.743764658355142
 20
10.01497213189763
 30
0.0
 10
8.746680471772079
 20
10.02522836446802
 30
0.0
 10
8.748231907895358
 20
10.03068546594304
 30
0.0
  0
SPLINE
  5
93
330
1F
100
AcDbEntity
  8
0
  6
Continuous
 62
     7
370
    15
100
AcDbSpline
210
0.0
220
0.0
230
1.0
 70
     8
 71
     3
 72
    23
 73
    19
 74
     0
 42
0.000000001
 43
0.00000001
 40
0.0
 40
0.0
 40
0.0
 40
0.0
 40
0.0588115657006769
 40
0.1169875574217473
 40
0.1754169040597282
 40
0.2340871974792599
 40
0.2940058752650367
 40
0.3555910236079234
 40
0.4184353194333763
 40
0.4835418166592904
 40
0.5493456090826696
 40
0.6141326730341252
 40
0.6781984271165975
 40
0.7419213033098901
 40
0.8055190383114108
 40
0.8694810841039816
 40
0.9341861196120653
 40
1.0
 40
1.0
 40
1.0
 40
1.0
 10
9.578207236842667
 20
9.054164084364041
 30
0.0
 10
9.58590958960343
 20
9.054292467773603
 30
0.0
 10
9.60123105614061
 20
9.054547847158922
 30
0.0
 10
9.623969721768708
 20
9.058012782380452
 30
0.0
 10
9.646405781155266
 20
9.062845921838917
 30
0.0
 10
9.668481079814915
 20
9.069978867767313
 30
0.0
 10
9.690267513298782
 20
9.079053133900453
 30
0.0
 10
9.711685105871195
 20
9.090194776166639
 30
0.0
 10
9.732906658017717
 20
9.103077771609275
 30
0.0
 10
9.753276484406735
 20
9.11822427271994
 30
0.0
 10
9.77275679741818
 20
9.134860112387692
 30
0.0
 10
9.791190479824538
 20
9.152462497731014
 30
0.0
 10
9.807989582054576
 20
9.171285688894397
 30
0.0
 10
9.823084010165674
 20
9.191288133933057
 30
0.0
 10
9.837025184809091
 20
9.212099744482401
 30
0.0
 10
9.84921618209697
 20
9.234132380337417
 30
0.0
 10
9.85996531540989
 20
9.257234265824778
 30
0.0
 10
9.865695894322858
 20
9.273329945267404
 30
0.0
 10
9.868585526316366
 20
9.281446156732443
 30
0.0
  0
SPLINE
  5
94
330
1F
100
AcDbEntity
  8
0
  6
Continuous
 62
     7
370
    15
100
AcDbSpline
210
0.0
220
0.0
230
1.0
 70
     8
 71
     3
 72
    15
 73
    11
 74
     0
 42
0.000000001
 43
0.00000001
 40
0.0
 40
0.0
 40
0.0
 40
0.0
 40
0.1368408414510286
 40
0.2575478253198732
 40
0.367836794404166
 40
0.4780125304308044
 40
0.5910513222735557
 40
0.7104744016187253
 40
0.8454185067343842
 40
1.0
 40
1.0
 40
1.0
 40
1.0
 10
9.473046875000568
 20
9.18216572910089
 30
0.0
 10
9.47045922436279
 20
9.173273752031037
 30
0.0
 10
9.465589013193522
 20
9.156538182935943
 30
0.0
 10
9.464727370662416
 20
9.131441637140048
 30
0.0
 10
9.46991624909109
 20
9.108697364674608
 30
0.0
 10
9.481598643279812
 20
9.089057703727203
 30
0.0
 10
9.49877211194244
 20
9.073099605686055
 30
0.0
 10
9.521211860541083
 20
9.0619675494397
 30
0.0
 10
9.5481928877154
 20
9.055209893432474
 30
0.0
 10
9.567760065440195
 20
9.054528101806026
 30
0.0
 10
9.578207236842667
 20
9.054164084364041
 30
0.0
  0
SPLINE
  5
95
330
1F
100
AcDbEntity
  8
0
  6
Continuous
 62
     7
370
    15
100
AcDbSpline
210
0.0
220
0.0
230
1.0
 70
     8
 71
     3
 72
    19
 73
    15
 74
     0
 42
0.000000001
 43
0.00000001
 40
0.0
 40
0.0
 40
0.0
 40
0.0
 40
0.1504708945385258
 40
0.287039527506689
 40
0.4120164741518494
 40
0.5244954550207387
 40
0.5782225517486891
 40
0.6321309680276186
 40
0.6879076637528861
 40
0.7451095017902895
 40
0.804677359199875
 40
0.8661944818217399
 40
0.9315383981033543
 40
1.0
 40
1.0
 40
1.0
 40
1.0
 10
9.698519736842684
 20
9.332556354100875
 30
0.0
 10
9.684164407829115
 20
9.330334660625534
 30
0.0
 10
9.65678006303675
 20
9.326096539709306
 30
0.0
 10
9.617980486208799
 20
9.317026615701735
 30
0.0
 10
9.583893444571963
 20
9.304994942575407
 30
0.0
 10
9.558250370444458
 20
9.293274764301982
 30
0.0
 10
9.540255029275441
 20
9.281899096361162
 30
0.0
 10
9.527931911101874
 20
9.272014850982627
 30
0.0
 10
9.516323043060972
 20
9.26078630014946
 30
0.0
 10
9.506024252885076
 20
9.247660880526759
 30
0.0
 10
9.496182251093458
 20
9.23351820984947
 30
0.0
 10
9.487651439174293
 20
9.217643336815815
 30
0.0
 10
9.479671666132832
 20
9.200542582528541
 30
0.0
 10
9.475289176235577
 20
9.188385765372782
 30
0.0
 10
9.47304687500057
 20
9.182165729100891
 30
0.0
  0
LINE
  5
96
330
1F
100
AcDbEntity
  8
0
  6
Continuous
 62
     7
370
    15
100
AcDbLine
 10
9.8945929276
 20
9.3581114528
 30
0.0
 11
9.6985197368
 21
9.3325563541
 31
0.0
  0
LINE
  5
97
330
1F
100
AcDbEntity
  8
0
  6
Continuous
 62
     7
370
    15
100
AcDbLine
 10
9.8685855263
 20
9.2814461567
 30
0.0
 11
9.8945929276
 21
9.3581114528
 31
0.0
  0
LINE
  5
98
330
1F
100
AcDbEntity
  8
0
  6
Continuous
 62
     7
370
    15
100
AcDbLine
 10
10.0639802632
 20
9.4732224725
 30
0.0
 11
9.8921052632
 21
8.9673219791
 31
0.0
  0
SPLINE
  5
99
330
1F
100
AcDbEntity
  8
0
  6
Continuous
 62
     7
370
    15
100
AcDbSpline
210
0.0
220
0.0
230
1.0
 70
     8
 71
     3
 72
    23
 73
    19
 74
     0
 42
0.000000001
 43
0.00000001
 40
0.0
 40
0.0
 40
0.0
 40
0.0
 40
0.0774908090885925
 40
0.1485694257431492
 40
0.2137371686836998
 40
0.2736439330473628
 40
0.3291248021393362
 40
0.3812281031479701
 40
0.4315726521404558
 40
0.4808673823247803
 40
0.5307145135526428
 40
0.5830066712856098
 40
0.6386673975646648
 40
0.6994048845098669
 40
0.7649497102468924
 40
0.8365254868979337
 40
0.9150901714602321
 40
1.0
 40
1.0
 40
1.0
 40
1.0
 10
9.882606907895344
 20
9.763374610679811
 30
0.0
 10
9.893773058288144
 20
9.763177473242378
 30
0.0
 10
9.915181384915932
 20
9.762799511052846
 30
0.0
 10
9.945831783372206
 20
9.75940359298047
 30
0.0
 10
9.97358138293942
 20
9.753863808220718
 30
0.0
 10
9.998446616467143
 20
9.74601308718711
 30
0.0
 10
10.02039554817129
 20
9.735832451235487
 30
0.0
 10
10.03955163279125
 20
9.7233547091226
 30
0.0
 10
10.05546529081298
 20
9.708225504011388
 30
0.0
 10
10.06870338740438
 20
9.691091382352903
 30
0.0
 10
10.07838537867977
 20
9.671419206583039
 30
0.0
 10
10.0855322935211
 20
9.649754703128654
 30
0.0
 10
10.08921965037655
 20
9.625633563393489
 30
0.0
 10
10.08992975272033
 20
9.599394714308085
 30
0.0
 10
10.08815782898178
 20
9.57089697026878
 30
0.0
 10
10.08288273426555
 20
9.54023654843744
 30
0.0
 10
10.07504788570442
 20
9.50726399836914
 30
0.0
 10
10.0677637139449
 20
9.48485951897908
 30
0.0
 10
10.06398026315848
 20
9.473222472521906
 30
0.0
  0
SPLINE
  5
9A
330
1F
100
AcDbEntity
  8
0
  6
Continuous
 62
     7
370
    15
100
AcDbSpline
210
0.0
220
0.0
230
1.0
 70
     8
 71
     3
 72
    15
 73
    11
 74
     0
 42
0.000000001
 43
0.00000001
 40
0.0
 40
0.0
 40
0.0
 40
0.0
 40
0.1290914019520484
 40
0.2561297398589422
 40
0.3816375558864133
 40
0.506339381883593
 40
0.6298091879354742
 40
0.7527950728398399
 40
0.8762495106182847
 40
1.0
 40
1.0
 40
1.0
 40
1.0
 10
9.587479440790075
 20
9.68964928173246
 30
0.0
 10
9.599335808967167
 20
9.695493180703615
 30
0.0
 10
9.62285998215725
 20
9.707088037530712
 30
0.0
 10
9.658866338237269
 20
9.72234562612452
 30
0.0
 10
9.695395231747623
 20
9.734960742650868
 30
0.0
 10
9.732210686340984
 20
9.745472262747807
 30
0.0
 10
9.769431417523649
 20
9.753244002846452
 30
0.0
 10
9.806833860658847
 20
9.759300311603267
 30
0.0
 10
9.844624964448483
 20
9.76270097768631
 30
0.0
 10
9.86993615588683
 20
9.763149887144603
 30
0.0
 10
9.882606907895346
 20
9.763374610679811
 30
0.0
  0
LINE
  5
9B
330
1F
100
AcDbEntity
  8
0
  6
Continuous
 62
     7
370
    15
100
AcDbLine
 10
9.5438322368
 20
9.5607430317
 30
0.0
 11
9.5874794408
 21
9.6896492817
 31
0.0
  0
SPLINE
  5
9C
330
1F
100
AcDbEntity
  8
0
  6
Continuous
 62
     7
370
    15
100
AcDbSpline
210
0.0
220
0.0
230
1.0
 70
     8
 71
     3
 72
    15
 73
    11
 74
     0
 42
0.000000001
 43
0.00000001
 40
0.0
 40
0.0
 40
0.0
 40
0.0
 40
0.1141806212496329
 40
0.2299681745666338
 40
0.3482122460761726
 40
0.4690204091754264
 40
0.5945096336716829
 40
0.7240053163736301
 40
0.8594116283443435
 40
1.0
 40
1.0
 40
1.0
 40
1.0
 10
9.835341282895337
 20
9.66205882120613
 30
0.0
 10
9.823415069556148
 20
9.661750851941493
 30
0.0
 10
9.799394798155546
 20
9.661130579176843
 30
0.0
 10
9.763310924389282
 20
9.656142709165422
 30
0.0
 10
9.727071922499402
 20
9.648264398412515
 30
0.0
 10
9.690673049171004
 20
9.636991730653444
 30
0.0
 10
9.654054112141546
 20
9.622792479372956
 30
0.0
 10
9.617288686118494
 20
9.605124256657982
 30
0.0
 10
9.580155275257669
 20
9.584703253714608
 30
0.0
 10
9.556090529059816
 20
9.568829122969895
 30
0.0
 10
9.543832236842698
 20
9.560743031732464
 30
0.0
  0
SPLINE
  5
9D
330
1F
100
AcDbEntity
  8
0
  6
Continuous
 62
     7
370
    15
100
AcDbSpline
210
0.0
220
0.0
230
1.0
 70
     8
 71
     3
 72
    23
 73
    19
 74
     0
 42
0.000000001
 43
0.00000001
 40
0.0
 40
0.0
 40
0.0
 40
0.0
 40
0.0925551960668127
 40
0.1770960317799477
 40
0.2554740994650871
 40
0.3264615111310346
 40
0.3921409354604352
 40
0.4515150075633356
 40
0.5069988806934831
 40
0.5580415723566874
 40
0.607408987580675
 40
0.6551524731830604
 40
0.7040383740683612
 40
0.753810093866096
 40
0.8079998441509315
 40
0.8663919056082059
 40
0.9302451347950913
 40
1.0
 40
1.0
 40
1.0
 40
1.0
 10
9.929194078947955
 20
9.459427242258757
 30
0.0
 10
9.931841658219884
 20
9.467618568006952
 30
0.0
 10
9.936907562705072
 20
9.48329193208232
 30
0.0
 10
9.942876161884838
 20
9.506306034023595
 30
0.0
 10
9.946970670165191
 20
9.527685506718017
 30
0.0
 10
9.949343344455118
 20
9.547562534586113
 30
0.0
 10
9.949876674158144
 20
9.565818007939756
 30
0.0
 10
9.94855630216743
 20
9.582586067197205
 30
0.0
 10
9.945521076914092
 20
9.597770246326526
 30
0.0
 10
9.940429374710234
 20
9.61139806643788
 30
0.0
 10
9.933732988377155
 20
9.623529381569808
 30
0.0
 10
9.924837451022805
 20
9.633881925824946
 30
0.0
 10
9.914452584387174
 20
9.642791263017285
 30
0.0
 10
9.902049849866039
 20
9.649861091196755
 30
0.0
 10
9.888015358560876
 20
9.655582821287508
 30
0.0
 10
9.87196588222483
 20
9.659185822878994
 30
0.0
 10
9.854276380061084
 20
9.66185661088417
 30
0.0
 10
9.841836148789588
 20
9.661989461703401
 30
0.0
 10
9.835341282895335
 20
9.662058821206129
 30
0.0
  0
LINE
  5
9E
330
1F
100
AcDbEntity
  8
0
  6
Continuous
 62
     7
370
    15
100
AcDbLine
 10
9.6838199013
 20
9.4270876041
 30
0.0
 11
9.9291940789
 21
9.4594272423
 31
0.0
  0
SPLINE
  5
9F
330
1F
100
AcDbEntity
  8
0
  6
Continuous
 62
     7
370
    15
100
AcDbSpline
210
0.0
220
0.0
230
1.0
 70
     8
 71
     3
 72
    23
 73
    19
 74
     0
 42
0.000000001
 43
0.00000001
 40
0.0
 40
0.0
 40
0.0
 40
0.0
 40
0.0621988432104617
 40
0.1229854945206983
 40
0.1824427212585286
 40
0.2413990142690848
 40
0.2992644856047718
 40
0.3571017166336674
 40
0.4152790867652556
 40
0.4737666924433317
 40
0.5330015692327834
 40
0.5936308920712057
 40
0.6559669773635881
 40
0.7202972878980635
 40
0.7862500714845085
 40
0.8547141165138522
 40
0.925901263126911
 40
0.9999999999999999
 40
0.9999999999999999
 40
0.9999999999999999
 40
0.9999999999999999
 10
9.340522203947938
 20
9.175607340943003
 30
0.0
 10
9.34370220007055
 20
9.184407761934706
 30
0.0
 10
9.349989992182541
 20
9.201808795005249
 30
0.0
 10
9.361699428216616
 20
9.226649649144697
 30
0.0
 10
9.374494347018025
 20
9.250389333410551
 30
0.0
 10
9.389248224174334
 20
9.272452344075184
 30
0.0
 10
9.405378199447687
 20
9.293204494074082
 30
0.0
 10
9.423076368699023
 20
9.312494341712133
 30
0.0
 10
9.442361980326751
 20
9.330316776524432
 30
0.0
 10
9.462946496900406
 20
9.346969883234328
 30
0.0
 10
9.485273634583129
 20
9.361882449130304
 30
0.0
 10
9.509078273597929
 20
9.375485233503946
 30
0.0
 10
9.53448625015317
 20
9.387682760773211
 30
0.0
 10
9.561358316313816
 20
9.39854476747147
 30
0.0
 10
9.589798076864017
 20
9.407793691369006
 30
0.0
 10
9.619702368091932
 20
9.415681898315986
 30
0.0
 10
9.651176566080608
 20
9.422292537322187
 30
0.0
 10
9.672794379543996
 20
9.42546803573304
 30
0.0
 10
9.683819901316374
 20
9.427087604100878
 30
0.0
  0
SPLINE
  5
A0
330
1F
100
AcDbEntity
  8
0
  6
Continuous
 62
     7
370
    15
100
AcDbSpline
210
0.0
220
0.0
230
1.0
 70
     8
 71
     3
 72
    23
 73
    19
 74
     0
 42
0.000000001
 43
0.00000001
 40
0.0
 40
0.0
 40
0.0
 40
0.0
 40
0.0804959591985275
 40
0.1549412077468301
 40
0.2244168421624886
 40
0.2882427385738842
 40
0.348653047131071
 40
0.4057384520874682
 40
0.4609837800105828
 40
0.5152449765653618
 40
0.5688897702711945
 40
0.6229099257125408
 40
0.6773685982847968
 40
0.7343506677970923
 40
0.7940424272030127
 40
0.8579573025760606
 40
0.9262935393737309
 40
1.0
 40
1.0
 40
1.0
 40
1.0
 10
9.51352796052687
 20
8.95284829489036
 30
0.0
 10
9.504171018203069
 20
8.952983696619237
 30
0.0
 10
9.48616047507889
 20
8.953244322216
 30
0.0
 10
9.46022460337405
 20
8.956296372198299
 30
0.0
 10
9.436504905308649
 20
8.960896143506638
 30
0.0
 10
9.41491309601218
 20
8.967436350275053
 30
0.0
 10
9.395628315835712
 20
8.976039773698835
 30
0.0
 10
9.37838114787398
 20
8.986442038035817
 30
0.0
 10
9.363575189477364
 20
8.999025400741722
 30
0.0
 10
9.35099545297813
 20
9.013314182313785
 30
0.0
 10
9.34105929629325
 20
9.029364032449866
 30
0.0
 10
9.333200459234519
 20
9.046566268500724
 30
0.0
 10
9.328353324142283
 20
9.06523805839573
 30
0.0
 10
9.32549481970688
 20
9.084974587254466
 30
0.0
 10
9.325777698247263
 20
9.106012135431929
 30
0.0
 10
9.327925710987369
 20
9.128240980205655
 30
0.0
 10
9.333122996127303
 20
9.15165492016075
 30
0.0
 10
9.337994409981897
 20
9.167424467020128
 30
0.0
 10
9.340522203947938
 20
9.175607340943003
 30
0.0
  0
SPLINE
  5
A1
330
1F
100
AcDbEntity
  8
0
  6
Continuous
 62
     7
370
    15
100
AcDbSpline
210
0.0
220
0.0
230
1.0
 70
     8
 71
     3
 72
    15
 73
    11
 74
     0
 42
0.000000001
 43
0.00000001
 40
0.0
 40
0.0
 40
0.0
 40
0.0
 40
0.1394141402693344
 40
0.2720041059920626
 40
0.3995913604067997
 40
0.5224846815569065
 40
0.6428522046728166
 40
0.7608670673122734
 40
0.8801643871780755
 40
1.0
 40
1.0
 40
1.0
 40
1.0
 10
9.800287828947932
 20
9.089217538311395
 30
0.0
 10
9.789591750271374
 20
9.078423361815831
 30
0.0
 10
9.768723154643864
 20
9.057363372334672
 30
0.0
 10
9.735395313298582
 20
9.02919409919595
 30
0.0
 10
9.700609241513032
 20
9.006000110916707
 30
0.0
 10
9.665184956664909
 20
8.98642271787459
 30
0.0
 10
9.628657882219855
 20
8.971469200276715
 30
0.0
 10
9.591121185968008
 20
8.960780143278685
 30
0.0
 10
9.552679343711379
 20
8.953901739872284
 30
0.0
 10
9.526597991468105
 20
8.953199969783778
 30
0.0
 10
9.51352796052687
 20
8.95284829489036
 30
0.0
  0
LINE
  5
A2
330
1F
100
AcDbEntity
  8
0
  6
Continuous
 62
     7
370
    15
100
AcDbLine
 10
9.8032277961
 20
9.0892175383
 30
0.0
 11
9.8002878289
 21
9.0892175383
 31
0.0
  0
LINE
  5
A3
330
1F
100
AcDbEntity
  8
0
  6
Continuous
 62
     7
370
    15
100
AcDbLine
 10
9.7618421053
 20
8.9673219791
 30
0.0
 11
9.8032277961
 21
9.0892175383
 31
0.0
  0
LINE
  5
A4
330
1F
100
AcDbEntity
  8
0
  6
Continuous
 62
     7
370
    15
100
AcDbLine
 10
9.8921052632
 20
8.9673219791
 30
0.0
 11
9.7618421053
 21
8.9673219791
 31
0.0
  0
SPLINE
  5
A5
330
1F
100
AcDbEntity
  8
0
  6
Continuous
 62
     7
370
    15
100
AcDbSpline
210
0.0
220
0.0
230
1.0
 70
     8
 71
     3
 72
    23
 73
    19
 74
     0
 42
0.000000001
 43
0.00000001
 40
0.0
 40
0.0
 40
0.0
 40
0.0
 40
0.0767420600911056
 40
0.1474327737756163
 40
0.2118527976658511
 40
0.2707593611978494
 40
0.3255959489908162
 40
0.3775359290284503
 40
0.4271249884950062
 40
0.4766776315284991
 40
0.5268377621631081
 40
0.5790396779054509
 40
0.6354129252865122
 40
0.6963479942543489
 40
0.7624036789101076
 40
0.8349788380964448
 40
0.9138247990415425
 40
1.0
 40
1.0
 40
1.0
 40
1.0
 10
10.93443667763218
 20
9.734879544890271
 30
0.0
 10
10.93721019216136
 20
9.743585304910305
 30
0.0
 10
10.94253852110716
 20
9.760310349117539
 30
0.0
 10
10.94804581296088
 20
9.784959968785191
 30
0.0
 10
10.95083788792538
 20
9.807922624974127
 30
0.0
 10
10.95115790386731
 20
9.829166193603845
 30
0.0
 10
10.9490352418777
 20
9.848842732423195
 30
0.0
 10
10.94403328292007
 20
9.866853189853535
 30
0.0
 10
10.93649756660039
 20
9.883276721734166
 30
0.0
 10
10.92618533418173
 20
9.89786936625853
 30
0.0
 10
10.91332146985588
 20
9.910696106756452
 30
0.0
 10
10.89783991177563
 20
9.921664756534591
 30
0.0
 10
10.87981871710286
 20
9.930849042495057
 30
0.0
 10
10.85935449186014
 20
9.938566592784294
 30
0.0
 10
10.83626826717906
 20
9.944320245060927
 30
0.0
 10
10.81071626687086
 20
9.948593946877564
 30
0.0
 10
10.78250883829142
 20
9.951005679513099
 30
0.0
 10
10.76286773879483
 20
9.951351772990437
 30
0.0
 10
10.75261101973746
 20
9.9515325054166
 30
0.0
  0
SPLINE
  5
A6
330
1F
100
AcDbEntity
  8
0
  6
Continuous
 62
     7
370
    15
100
AcDbSpline
210
0.0
220
0.0
230
1.0
 70
     8
 71
     3
 72
    23
 73
    19
 74
     0
 42
0.000000001
 43
0.00000001
 40
0.0
 40
0.0
 40
0.0
 40
0.0
 40
0.0716427171845123
 40
0.1410593855215156
 40
0.2075020718145908
 40
0.2722529026982106
 40
0.3352903461090574
 40
0.3968543910999465
 40
0.4577734255590865
 40
0.5178133154659864
 40
0.5773140050851815
 40
0.6365802936175412
 40
0.6950198476639093
 40
0.7544636058732966
 40
0.8139158018056841
 40
0.8742328404430904
 40
0.9362858428362626
 40
1.0
 40
1.0
 40
1.0
 40
1.0
 10
10.58435444079006
 20
9.502848294890294
 30
0.0
 10
10.59514140516929
 20
9.502997627201623
 30
0.0
 10
10.61638016643874
 20
9.503291651840861
 30
0.0
 10
10.64750173300851
 20
9.506328068960107
 30
0.0
 10
10.67733615772235
 20
9.511080815813065
 30
0.0
 10
10.70588140585498
 20
9.517536130824778
 30
0.0
 10
10.73307848203108
 20
9.526180269827439
 30
0.0
 10
10.75897998265444
 20
9.536666039886954
 30
0.0
 10
10.78371517456103
 20
9.548720353106313
 30
0.0
 10
10.80675578539084
 20
9.56317287655395
 30
0.0
 10
10.82861622784624
 20
9.578920793334804
 30
0.0
 10
10.84865707119525
 20
9.596584650563074
 30
0.0
 10
10.86719911656107
 20
9.615787383079747
 30
0.0
 10
10.8840676682727
 20
9.636512547948438
 30
0.0
 10
10.89937764452343
 20
9.658773575872091
 30
0.0
 10
10.91261342529411
 20
9.682754526967452
 30
0.0
 10
10.92482499584636
 20
9.7080050158076
 30
0.0
 10
10.93120469563782
 20
9.725842833517833
 30
0.0
 10
10.93443667763218
 20
9.734879544890271
 30
0.0
  0
LINE
  5
A7
330
1F
100
AcDbEntity
  8
0
  6
Continuous
 62
     7
370
    15
100
AcDbLine
 10
10.4504728618
 20
9.5028482949
 30
0.0
 11
10.5843544408
 21
9.5028482949
 31
0.0
  0
LINE
  5
A8
330
1F
100
AcDbEntity
  8
0
  6
Continuous
 62
     7
370
    15
100
AcDbLine
 10
10.6028988487
 20
9.9515325054
 30
0.0
 11
10.4504728618
 21
9.5028482949
 31
0.0
  0
LINE
  5
A9
330
1F
100
AcDbEntity
  8
0
  6
Continuous
 62
     7
370
    15
100
AcDbLine
 10
10.7526110197
 20
9.9515325054
 30
0.0
 11
10.6028988487
 21
9.9515325054
 31
0.0
  0
LINE
  5
AA
330
1F
100
AcDbEntity
  8
0
  6
Continuous
 62
     7
370
    15
100
AcDbLine
 10
10.5538240132
 20
9.3870588212
 30
0.0
 11
10.4111225329
 21
9.3870588212
 31
0.0
  0
SPLINE
  5
AB
330
1F
100
AcDbEntity
  8
0
  6
Continuous
 62
     7
370
    15
100
AcDbSpline
210
0.0
220
0.0
230
1.0
 70
     8
 71
     3
 72
    23
 73
    19
 74
     0
 42
0.000000001
 43
0.00000001
 40
0.0
 40
0.0
 40
0.0
 40
0.0
 40
0.0611921847627537
 40
0.121364135137917
 40
0.1814919606252364
 40
0.2413263957802173
 40
0.3016534855270393
 40
0.3626728760150494
 40
0.4245103718883705
 40
0.4882409891110072
 40
0.5520268082644983
 40
0.6151141019813157
 40
0.6779227499284984
 40
0.7405575359558144
 40
0.8038402457883908
 40
0.867799504298981
 40
0.9330369043595408
 40
1.0
 40
1.0
 40
1.0
 40
1.0
 10
11.06696134868481
 20
9.74098563041658
 30
0.0
 10
11.06225227221069
 20
9.728243735561092
 30
0.0
 10
11.0529126319315
 20
9.702972386692764
 30
0.0
 10
11.03557751537936
 20
9.666547042766378
 30
0.0
 10
11.0153837872368
 20
9.632009055101385
 30
0.0
 10
10.99275374319788
 20
9.598961082835784
 30
0.0
 10
10.9670675660619
 20
9.56796023603775
 30
0.0
 10
10.93871901801117
 20
9.538775696326814
 30
0.0
 10
10.90776143406364
 20
9.511219888233752
 30
0.0
 10
10.87432582815056
 20
9.485710868596035
 30
0.0
 10
10.83898620393745
 20
9.46239597136389
 30
0.0
 10
10.80199472026825
 20
9.442204443476147
 30
0.0
 10
10.76370982544181
 20
9.425220203975648
 30
0.0
 10
10.7241355702999
 20
9.411375943195486
 30
0.0
 10
10.6833724914247
 20
9.4005675398368
 30
0.0
 10
10.64138396621571
 20
9.392510744457345
 30
0.0
 10
10.59802223074213
 20
9.388021107586097
 30
0.0
 10
10.56868440732619
 20
9.38738236264488
 30
0.0
 10
10.55382401315848
 20
9.387058821206086
 30
0.0
  0
SPLINE
  5
AC
330
1F
100
AcDbEntity
  8
0
  6
Continuous
 62
     7
370
    15
100
AcDbSpline
210
0.0
220
0.0
230
1.0
 70
     8
 71
     3
 72
    23
 73
    19
 74
     0
 42
0.000000001
 43
0.00000001
 40
0.0
 40
0.0
 40
0.0
 40
0.0
 40
0.0814582078707856
 40
0.1562865105547838
 40
0.2257406372064973
 40
0.2900154152461401
 40
0.3500197418972216
 40
0.4063241729960832
 40
0.4602632440673412
 40
0.5129389465768149
 40
0.5650202303438674
 40
0.6173309360615947
 40
0.6709636540997052
 40
0.7278621605712504
 40
0.7882690611713284
 40
0.8530426992635982
 40
0.9236947764057556
 40
0.9999999999999999
 40
0.9999999999999999
 40
0.9999999999999999
 40
0.9999999999999999
 10
10.81118421052694
 20
10.06732197910081
 30
0.0
 10
10.8252175181402
 20
10.06709309603223
 30
0.0
 10
10.85214195873062
 20
10.06665395874887
 30
0.0
 10
10.89084145993424
 20
10.06245594430357
 30
0.0
 10
10.92622597327364
 20
10.05609649591975
 30
0.0
 10
10.95839164945348
 20
10.04695264120392
 30
0.0
 10
10.98707215423849
 20
10.03469555709487
 30
0.0
 10
11.01244095976598
 20
10.01987962629412
 30
0.0
 10
11.03482235815449
 20
10.0027438976662
 30
0.0
 10
11.05313229945167
 20
9.982291164518047
 30
0.0
 10
11.0683660984548
 20
9.959808122627905
 30
0.0
 10
11.07941089230575
 20
9.934796982031353
 30
0.0
 10
11.08702677565414
 20
9.907706280565066
 30
0.0
 10
11.09049018518632
 20
9.878361372644061
 30
0.0
 10
11.09011219566133
 20
9.846934187477672
 30
0.0
 10
11.08604574462356
 20
9.813409607791213
 30
0.0
 10
11.07867011552307
 20
9.777634070393917
 30
0.0
 10
11.07096309539212
 20
9.753511097533082
 30
0.0
 10
11.06696134868481
 20
9.74098563041658
 30
0.0
  0
LINE
  5
AD
330
1F
100
AcDbEntity
  8
0
  6
Continuous
 62
     7
370
    15
100
AcDbLine
 10
10.5119860197
 20
10.0673219791
 30
0.0
 11
10.8111842105
 21
10.0673219791
 31
0.0
  0
LINE
  5
AE
330
1F
100
AcDbEntity
  8
0
  6
Continuous
 62
     7
370
    15
100
AcDbLine
 10
10.1381578947
 20
8.9673219791
 30
0.0
 11
10.5119860197
 21
10.0673219791
 31
0.0
  0
LINE
  5
AF
330
1F
100
AcDbEntity
  8
0
  6
Continuous
 62
     7
370
    15
100
AcDbLine
 10
10.2684210526
 20
8.9673219791
 30
0.0
 11
10.1381578947
 21
8.9673219791
 31
0.0
  0
LINE
  5
B0
330
1F
100
AcDbEntity
  8
0
  6
Continuous
 62
     7
370
    15
100
AcDbLine
 10
10.4111225329
 20
9.3870588212
 30
0.0
 11
10.2684210526
 21
8.9673219791
 31
0.0
  0
LINE
  5
B1
330
1F
100
AcDbEntity
  8
0
  6
Continuous
 62
     7
370
    15
100
AcDbLine
 10
12.2413651316
 20
10.0673219791
 30
0.0
 11
11.8605263158
 21
8.9673219791
 31
0.0
  0
LINE
  5
B2
330
1F
100
AcDbEntity
  8
0
  6
Continuous
 62
     7
370
    15
100
AcDbLine
 10
12.0676809211
 20
10.0673219791
 30
0.0
 11
12.2413651316
 21
10.0673219791
 31
0.0
  0
LINE
  5
B3
330
1F
100
AcDbEntity
  8
0
  6
Continuous
 62
     7
370
    15
100
AcDbLine
 10
11.9073396382
 20
9.6041640844
 30
0.0
 11
12.0676809211
 21
10.0673219791
 31
0.0
  0
LINE
  5
B4
330
1F
100
AcDbEntity
  8
0
  6
Continuous
 62
     7
370
    15
100
AcDbLine
 10
11.4007606908
 20
9.6041640844
 30
0.0
 11
11.9073396382
 21
9.6041640844
 31
0.0
  0
LINE
  5
B5
330
1F
100
AcDbEntity
  8
0
  6
Continuous
 62
     7
370
    15
100
AcDbLine
 10
11.5611019737
 20
10.0673219791
 30
0.0
 11
11.4007606908
 21
9.6041640844
 31
0.0
  0
LINE
  5
B6
330
1F
100
AcDbEntity
  8
0
  6
Continuous
 62
     7
370
    15
100
AcDbLine
 10
11.3874177632
 20
10.0673219791
 30
0.0
 11
11.5611019737
 21
10.0673219791
 31
0.0
  0
LINE
  5
B7
330
1F
100
AcDbEntity
  8
0
  6
Continuous
 62
     7
370
    15
100
AcDbLine
 10
11.0065789474
 20
8.9673219791
 30
0.0
 11
11.3874177632
 21
10.0673219791
 31
0.0
  0
LINE
  5
B8
330
1F
100
AcDbEntity
  8
0
  6
Continuous
 62
     7
370
    15
100
AcDbLine
 10
11.1802631579
 20
8.9673219791
 30
0.0
 11
11.0065789474
 21
8.9673219791
 31
0.0
  0
LINE
  5
B9
330
1F
100
AcDbEntity
  8
0
  6
Continuous
 62
     7
370
    15
100
AcDbLine
 10
11.3505550987
 20
9.4594272423
 30
0.0
 11
11.1802631579
 21
8.9673219791
 31
0.0
  0
LINE
  5
BA
330
1F
100
AcDbEntity
  8
0
  6
Continuous
 62
     7
370
    15
100
AcDbLine
 10
11.8571340461
 20
9.4594272423
 30
0.0
 11
11.3505550987
 21
9.4594272423
 31
0.0
  0
LINE
  5
BB
330
1F
100
AcDbEntity
  8
0
  6
Continuous
 62
     7
370
    15
100
AcDbLine
 10
11.6868421053
 20
8.9673219791
 30
0.0
 11
11.8571340461
 21
9.4594272423
 31
0.0
  0
LINE
  5
BC
330
1F
100
AcDbEntity
  8
0
  6
Continuous
 62
     7
370
    15
100
AcDbLine
 10
11.8605263158
 20
8.9673219791
 30
0.0
 11
11.6868421053
 21
8.9673219791
 31
0.0
  0
SPLINE
  5
BD
330
1F
100
AcDbEntity
  8
0
  6
Continuous
 62
     7
370
    15
100
AcDbSpline
210
0.0
220
0.0
230
1.0
 70
     8
 71
     3
 72
    23
 73
    19
 74
     0
 42
0.000000001
 43
0.00000001
 40
0.0
 40
0.0
 40
0.0
 40
0.0
 40
0.076951796991292
 40
0.146679806590283
 40
0.2110267939438772
 40
0.270619381389439
 40
0.3249669975942669
 40
0.3766779607329512
 40
0.4262291952177403
 40
0.4750460006562728
 40
0.525608488872661
 40
0.5777689358750498
 40
0.6345186068350923
 40
0.6950724600569749
 40
0.7617266537290822
 40
0.834219148720472
 40
0.9137463436308713
 40
1.0
 40
1.0
 40
1.0
 40
1.0
 10
12.91981907894798
 20
9.727416551469096
 30
0.0
 10
12.92235296172649
 20
9.73529733861518
 30
0.0
 10
12.92718286109736
 20
9.750319110419905
 30
0.0
 10
12.93222466903161
 20
9.772471942117539
 30
0.0
 10
12.93513216054213
 20
9.793135158508193
 30
0.0
 10
12.93536201894193
 20
9.812351959352831
 30
0.0
 10
12.93346261289212
 20
9.830124169349585
 30
0.0
 10
12.92890398356328
 20
9.846306986656085
 30
0.0
 10
12.9220755748857
 20
9.861008435837128
 30
0.0
 10
12.91283001423493
 20
9.874197902817384
 30
0.0
 10
12.90117178667039
 20
9.885679300032063
 30
0.0
 10
12.88732570854879
 20
9.895915945821574
 30
0.0
 10
12.87095202238915
 20
9.904076871279129
 30
0.0
 10
12.85235353580013
 20
9.910890500205237
 30
0.0
 10
12.83152602039239
 20
9.91626713027213
 30
0.0
 10
12.80829131000791
 20
9.92003594147037
 30
0.0
 10
12.78274090624454
 20
9.922284760501059
 30
0.0
 10
12.76491027371374
 20
9.922482339282649
 30
0.0
 10
12.75563322368483
 20
9.922585136995423
 30
0.0
  0
SPLINE
  5
BE
330
1F
100
AcDbEntity
  8
0
  6
Continuous
 62
     7
370
    15
100
AcDbSpline
210
0.0
220
0.0
230
1.0
 70
     8
 71
     3
 72
    23
 73
    19
 74
     0
 42
0.000000001
 43
0.00000001
 40
0.0
 40
0.0
 40
0.0
 40
0.0
 40
0.0725758357126528
 40
0.1420843614893161
 40
0.2093964995927079
 40
0.274850090117008
 40
0.3375992098719084
 40
0.3990350342242593
 40
0.4597414113408005
 40
0.5196868009837324
 40
0.5790423295420061
 40
0.6378765578439208
 40
0.696566874128749
 40
0.7547610759960974
 40
0.814058059729916
 40
0.8748613742311737
 40
0.9363168596206984
 40
1.0
 40
1.0
 40
1.0
 40
1.0
 10
12.59981496710586
 20
9.517321979100695
 30
0.0
 10
12.60977053492311
 20
9.517508355206841
 30
0.0
 10
12.62926091326581
 20
9.517873230509728
 30
0.0
 10
12.6579016125347
 20
9.520362384307553
 30
0.0
 10
12.68533889670664
 20
9.52463285777119
 30
0.0
 10
12.71148874659174
 20
9.530702915906875
 30
0.0
 10
12.736338517088
 20
9.538465113115885
 30
0.0
 10
12.75998165179349
 20
9.547709433983096
 30
0.0
 10
12.78241282965138
 20
9.558773742017662
 30
0.0
 10
12.80348277683236
 20
9.571715291824452
 30
0.0
 10
12.82314682981069
 20
9.586254444347516
 30
0.0
 10
12.84161575918625
 20
9.602039861060986
 30
0.0
 10
12.85825586660631
 20
9.619524394014652
 30
0.0
 10
12.87360615031922
 20
9.638219361770924
 30
0.0
 10
12.88741994276459
 20
9.65844117314705
 30
0.0
 10
12.89977421967774
 20
9.680087555982714
 30
0.0
 10
12.910801286751
 20
9.703124674635887
 30
0.0
 10
12.91677768526701
 20
9.719223730090482
 30
0.0
 10
12.91981907894798
 20
9.727416551469096
 30
0.0
  0
LINE
  5
BF
330
1F
100
AcDbEntity
  8
0
  6
Continuous
 62
     7
370
    15
100
AcDbLine
 10
12.4996299342
 20
9.5173219791
 30
0.0
 11
12.5998149671
 21
9.5173219791
 31
0.0
  0
LINE
  5
C0
330
1F
100
AcDbEntity
  8
0
  6
Continuous
 62
     7
370
    15
100
AcDbLine
 10
12.6400699013
 20
9.922585137
 30
0.0
 11
12.4996299342
 21
9.5173219791
 31
0.0
  0
LINE
  5
C1
330
1F
100
AcDbEntity
  8
0
  6
Continuous
 62
     7
370
    15
100
AcDbLine
 10
12.7556332237
 20
9.922585137
 30
0.0
 11
12.6400699013
 21
9.922585137
 31
0.0
  0
LINE
  5
C2
330
1F
100
AcDbEntity
  8
0
  6
Continuous
 62
     7
370
    15
100
AcDbLine
 10
12.5593338816
 20
9.372585137
 30
0.0
 11
12.4494243421
 21
9.372585137
 31
0.0
  0
SPLINE
  5
C3
330
1F
100
AcDbEntity
  8
0
  6
Continuous
 62
     7
370
    15
100
AcDbSpline
210
0.0
220
0.0
230
1.0
 70
     8
 71
     3
 72
    23
 73
    19
 74
     0
 42
0.000000001
 43
0.00000001
 40
0.0
 40
0.0
 40
0.0
 40
0.0
 40
0.0588136243144882
 40
0.1170826322325719
 40
0.1755067093852229
 40
0.2341470108783249
 40
0.2937754586000786
 40
0.3541149909950668
 40
0.4162026840506979
 40
0.4801365416884442
 40
0.5444031103568685
 40
0.6082872490971624
 40
0.6717679931617152
 40
0.7355035874900051
 40
0.7996661594504901
 40
0.8650097571666947
 40
0.931696985041644
 40
1.0
 40
1.0
 40
1.0
 40
1.0
 10
13.0955386513164
 20
9.733296485679611
 30
0.0
 10
13.09088642422235
 20
9.720602178439227
 30
0.0
 10
13.08162504983398
 20
9.695331113725965
 30
0.0
 10
13.06332747984615
 20
9.659324983659335
 30
0.0
 10
13.04281360261871
 20
9.624646159800657
 30
0.0
 10
13.01943915058858
 20
9.59140174459354
 30
0.0
 10
12.99292186506357
 20
9.560034526747213
 30
0.0
 10
12.96351161864873
 20
9.530257742322696
 30
0.0
 10
12.93135203161383
 20
9.50195370481679
 30
0.0
 10
12.89653767559485
 20
9.475467204287028
 30
0.0
 10
12.85959209236515
 20
9.45127764714297
 30
0.0
 10
12.82090226811631
 20
9.430169298216041
 30
0.0
 10
12.78063681607044
 20
9.41258538392596
 30
0.0
 10
12.73922130772935
 20
9.397739216383197
 30
0.0
 10
12.69624953130828
 20
9.386362826199976
 30
0.0
 10
12.65181547354677
 20
9.378679090873202
 30
0.0
 10
12.60604809377138
 20
9.373384271443673
 30
0.0
 10
12.57502904810285
 20
9.372853632334458
 30
0.0
 10
12.55933388157953
 20
9.372585136995434
 30
0.0
  0
SPLINE
  5
C4
330
1F
100
AcDbEntity
  8
0
  6
Continuous
 62
     7
370
    15
100
AcDbSpline
210
0.0
220
0.0
230
1.0
 70
     8
 71
     3
 72
    23
 73
    19
 74
     0
 42
0.000000001
 43
0.00000001
 40
0.0
 40
0.0
 40
0.0
 40
0.0
 40
0.0832369153198198
 40
0.1600980321742796
 40
0.2310011182218954
 40
0.2964957876954763
 40
0.3574411859656181
 40
0.41517030970977
 40
0.4698481475387389
 40
0.523057944580058
 40
0.575767617872682
 40
0.6279176831113299
 40
0.6815198942588847
 40
0.7369461348782316
 40
0.7960718559283803
 40
0.8589403840027057
 40
0.926782650119581
 40
1.0
 40
1.0
 40
1.0
 40
1.0
 10
12.82347861842168
 20
10.06732197910068
 30
0.0
 10
12.8383409891884
 20
10.06710531795713
 30
0.0
 10
12.86692729977012
 20
10.06668859152515
 30
0.0
 10
12.90798527037722
 20
10.06231383622485
 30
0.0
 10
12.945460720227
 20
10.05543303885061
 30
0.0
 10
12.97943073231536
 20
10.04584768983595
 30
0.0
 10
13.0098382931778
 20
10.03313626009723
 30
0.0
 10
13.03671043703724
 20
10.01759483666963
 30
0.0
 10
13.05990254854954
 20
9.999075764349838
 30
0.0
 10
13.07933446890139
 20
9.97783899925064
 30
0.0
 10
13.09496255947013
 20
9.95422157743261
 30
0.0
 10
13.10698125714338
 20
9.928488475818071
 30
0.0
 10
13.11479779336425
 20
9.900689570461076
 30
0.0
 10
13.11895641763864
 20
9.870860875383201
 30
0.0
 10
13.11863950357907
 20
9.839109369585874
 30
0.0
 10
13.11503836828487
 20
9.805364857931927
 30
0.0
 10
13.10714130514438
 20
9.76975207100076
 30
0.0
 10
13.09950321914283
 20
9.745753173847755
 30
0.0
 10
13.0955386513164
 20
9.733296485679611
 30
0.0
  0
LINE
  5
C5
330
1F
100
AcDbEntity
  8
0
  6
Continuous
 62
     7
370
    15
100
AcDbLine
 10
12.5163651316
 20
10.0673219791
 30
0.0
 11
12.8234786184
 21
10.0673219791
 31
0.0
  0
LINE
  5
C6
330
1F
100
AcDbEntity
  8
0
  6
Continuous
 62
     7
370
    15
100
AcDbLine
 10
12.1355263158
 20
8.9673219791
 30
0.0
 11
12.5163651316
 21
10.0673219791
 31
0.0
  0
LINE
  5
C7
330
1F
100
AcDbEntity
  8
0
  6
Continuous
 62
     7
370
    15
100
AcDbLine
 10
12.3092105263
 20
8.9673219791
 30
0.0
 11
12.1355263158
 21
8.9673219791
 31
0.0
  0
LINE
  5
C8
330
1F
100
AcDbEntity
  8
0
  6
Continuous
 62
     7
370
    15
100
AcDbLine
 10
12.4494243421
 20
9.372585137
 30
0.0
 11
12.3092105263
 21
8.9673219791
 31
0.0
  0
LINE
  5
C9
330
1F
100
AcDbEntity
  8
0
  6
Continuous
 62
     7
370
    15
100
AcDbLine
 10
14.2172491776
 20
10.0673219791
 30
0.0
 11
13.8434210526
 21
8.9673219791
 31
0.0
  0
LINE
  5
CA
330
1F
100
AcDbEntity
  8
0
  6
Continuous
 62
     7
370
    15
100
AcDbLine
 10
14.0869860197
 20
10.0673219791
 30
0.0
 11
14.2172491776
 21
10.0673219791
 31
0.0
  0
LINE
  5
CB
330
1F
100
AcDbEntity
  8
0
  6
Continuous
 62
     7
370
    15
100
AcDbLine
 10
13.924609375
 20
9.5896904002
 30
0.0
 11
14.0869860197
 21
10.0673219791
 31
0.0
  0
LINE
  5
CC
330
1F
100
AcDbEntity
  8
0
  6
Continuous
 62
     7
370
    15
100
AcDbLine
 10
13.3601356908
 20
9.5896904002
 30
0.0
 11
13.924609375
 21
9.5896904002
 31
0.0
  0
LINE
  5
CD
330
1F
100
AcDbEntity
  8
0
  6
Continuous
 62
     7
370
    15
100
AcDbLine
 10
13.5225123355
 20
10.0673219791
 30
0.0
 11
13.3601356908
 21
9.5896904002
 31
0.0
  0
LINE
  5
CE
330
1F
100
AcDbEntity
  8
0
  6
Continuous
 62
     7
370
    15
100
AcDbLine
 10
13.3922491776
 20
10.0673219791
 30
0.0
 11
13.5225123355
 21
10.0673219791
 31
0.0
  0
LINE
  5
CF
330
1F
100
AcDbEntity
  8
0
  6
Continuous
 62
     7
370
    15
100
AcDbLine
 10
13.0184210526
 20
8.9673219791
 30
0.0
 11
13.3922491776
 21
10.0673219791
 31
0.0
  0
LINE
  5
D0
330
1F
100
AcDbEntity
  8
0
  6
Continuous
 62
     7
370
    15
100
AcDbLine
 10
13.1486842105
 20
8.9673219791
 30
0.0
 11
13.0184210526
 21
8.9673219791
 31
0.0
  0
LINE
  5
D1
330
1F
100
AcDbEntity
  8
0
  6
Continuous
 62
     7
370
    15
100
AcDbLine
 10
13.3207853618
 20
9.4739009265
 30
0.0
 11
13.1486842105
 21
8.9673219791
 31
0.0
  0
LINE
  5
D2
330
1F
100
AcDbEntity
  8
0
  6
Continuous
 62
     7
370
    15
100
AcDbLine
 10
13.8852590461
 20
9.4739009265
 30
0.0
 11
13.3207853618
 21
9.4739009265
 31
0.0
  0
LINE
  5
D3
330
1F
100
AcDbEntity
  8
0
  6
Continuous
 62
     7
370
    15
100
AcDbLine
 10
13.7131578947
 20
8.9673219791
 30
0.0
 11
13.8852590461
 21
9.4739009265
 31
0.0
  0
LINE
  5
D4
330
1F
100
AcDbEntity
  8
0
  6
Continuous
 62
     7
370
    15
100
AcDbLine
 10
13.8434210526
 20
8.9673219791
 30
0.0
 11
13.7131578947
 21
8.9673219791
 31
0.0
  0
LINE
  5
D5
330
1F
100
AcDbEntity
  8
0
  6
Continuous
 62
     7
370
    15
100
AcDbLine
 10
14.3497738487
 20
9.4304798738
 30
0.0
 11
14.7679276316
 21
9.4304798738
 31
0.0
  0
SPLINE
  5
D6
330
1F
100
AcDbEntity
  8
0
  6
Continuous
 62
     7
370
    15
100
AcDbSpline
210
0.0
220
0.0
230
1.0
 70
     8
 71
     3
 72
    19
 73
    15
 74
     0
 42
0.000000001
 43
0.00000001
 40
0.0
 40
0.0
 40
0.0
 40
0.0
 40
0.05472705611611
 40
0.1094163564111593
 40
0.1643867480864727
 40
0.2207190098352827
 40
0.2783065386981165
 40
0.3375639324805271
 40
0.3990530683824964
 40
0.4632104439739488
 40
0.5934523347544641
 40
0.7251886308077311
 40
0.8599925350042421
 40
1.0
 40
1.0
 40
1.0
 40
1.0
 10
14.6530427631585
 20
9.662058821205829
 30
0.0
 10
14.64571726592203
 20
9.661926264548217
 30
0.0
 10
14.63107132525945
 20
9.661661242682923
 30
0.0
 10
14.60930641672839
 20
9.65821870497284
 30
0.0
 10
14.58764499652161
 20
9.653303257850414
 30
0.0
 10
14.56615571604569
 20
9.646244007232879
 30
0.0
 10
14.54481337655767
 20
9.63717532595564
 30
0.0
 10
14.52377432235287
 20
9.625909224012583
 30
0.0
 10
14.50258901422071
 20
9.613111562885226
 30
0.0
 10
14.4750540075442
 20
9.592745606255646
 30
0.0
 10
14.44201556810836
 20
9.564118299484976
 30
0.0
 10
14.40660781611342
 20
9.52443264509669
 30
0.0
 10
14.37524279594146
 20
9.479818138465406
 30
0.0
 10
14.35836999342952
 20
9.447132264685047
 30
0.0
 10
14.3497738486848
 20
9.430479873837427
 30
0.0
  0
SPLINE
  5
D7
330
1F
100
AcDbEntity
  8
0
  6
Continuous
 62
     7
370
    15
100
AcDbSpline
210
0.0
220
0.0
230
1.0
 70
     8
 71
     3
 72
    23
 73
    19
 74
     0
 42
0.000000001
 43
0.00000001
 40
0.0
 40
0.0
 40
0.0
 40
0.0
 40
0.0876811677563484
 40
0.1687064511057536
 40
0.2437203250635789
 40
0.3136026459174055
 40
0.378293853087193
 40
0.4384159563152694
 40
0.4949573549011659
 40
0.5494655132722978
 40
0.6017554375036521
 40
0.6527146609075022
 40
0.7035945239775816
 40
0.7558844482089373
 40
0.8103926065800671
 40
0.8684894096221428
 40
0.9317116063535884
 40
1.0
 40
1.0
 40
1.0
 40
1.0
 10
14.76792763157954
 20
9.430479873837402
 30
0.0
 10
14.77077820248294
 20
9.439337061873122
 30
0.0
 10
14.77626295722613
 20
9.456379088097444
 30
0.0
 10
14.78199226403333
 20
9.48160996124897
 30
0.0
 10
14.78631210021825
 20
9.505192823943542
 30
0.0
 10
14.78821223836434
 20
9.527393271929721
 30
0.0
 10
14.7876684556303
 20
9.548058983464514
 30
0.0
 10
14.78565261724269
 20
9.56723776205161
 30
0.0
 10
14.7810004745404
 20
9.584848737510422
 30
0.0
 10
14.77455772035995
 20
9.600991739927888
 30
0.0
 10
14.76585988553369
 20
9.615375185987709
 30
0.0
 10
14.75534511108699
 20
9.627966887536449
 30
0.0
 10
14.74300075383113
 20
9.638808434279607
 30
0.0
 10
14.72855703410199
 20
9.647409188905842
 30
0.0
 10
14.71227403730911
 20
9.653946405443167
 30
0.0
 10
14.69419282405809
 20
9.658657586815155
 30
0.0
 10
14.67424955643303
 20
9.661652502972672
 30
0.0
 10
14.66029093738812
 20
9.661919947529434
 30
0.0
 10
14.6530427631585
 20
9.662058821205829
 30
0.0
  0
LINE
  5
D8
330
1F
100
AcDbEntity
  8
0
  6
Continuous
 62
     7
370
    15
100
AcDbLine
 10
14.8857524671
 20
9.3938433607
 30
0.0
 11
14.8638157895
 21
9.3291640844
 31
0.0
  0
SPLINE
  5
D9
330
1F
100
AcDbEntity
  8
0
  6
Continuous
 62
     7
370
    15
100
AcDbSpline
210
0.0
220
0.0
230
1.0
 70
     8
 71
     3
 72
    23
 73
    19
 74
     0
 42
0.000000001
 43
0.00000001
 40
0.0
 40
0.0
 40
0.0
 40
0.0
 40
0.0708992645220099
 40
0.1361992429080428
 40
0.196646239581782
 40
0.2529961723039229
 40
0.3060918017980599
 40
0.3576529727784362
 40
0.4087803560922638
 40
0.4608286603198873
 40
0.5145097729701503
 40
0.5707289336593016
 40
0.6298455754059228
 40
0.6932592024560945
 40
0.7616704272829462
 40
0.8352778450201723
 40
0.9143932393144023
 40
1.0
 40
1.0
 40
1.0
 40
1.0
 10
14.69058388157956
 20
9.763374610679511
 30
0.0
 10
14.7028095829243
 20
9.76307341482112
 30
0.0
 10
14.72629545796686
 20
9.762494810118286
 30
0.0
 10
14.7599883955334
 20
9.758039082684304
 30
0.0
 10
14.79049518696836
 20
9.750365625279587
 30
0.0
 10
14.81794452632626
 20
9.739874186942679
 30
0.0
 10
14.8420874694056
 20
9.725919429943096
 30
0.0
 10
14.86291162130174
 20
9.708765782218698
 30
0.0
 10
14.88054325921382
 20
9.688593645202758
 30
0.0
 10
14.89491353997762
 20
9.66553663512175
 30
0.0
 10
14.90568053863296
 20
9.639673440090581
 30
0.0
 10
14.91345941858568
 20
9.611503280513379
 30
0.0
 10
14.91737074828916
 20
9.58084360543479
 30
0.0
 10
14.91792356496325
 20
9.547880587961194
 30
0.0
 10
14.91518179964031
 20
9.51250801505196
 30
0.0
 10
14.90853095344682
 20
9.474932944858494
 30
0.0
 10
14.89915262930759
 20
9.434888995865121
 30
0.0
 10
14.89033501593247
 20
9.407880028633675
 30
0.0
 10
14.88575246710585
 20
9.393843360679499
 30
0.0
  0
SPLINE
  5
DA
330
1F
100
AcDbEntity
  8
0
  6
Continuous
 62
     7
370
    15
100
AcDbSpline
210
0.0
220
0.0
230
1.0
 70
     8
 71
     3
 72
    23
 73
    19
 74
     0
 42
0.000000001
 43
0.00000001
 40
0.0
 40
0.0
 40
0.0
 40
0.0
 40
0.0687285773570629
 40
0.1362310955120476
 40
0.202539115932052
 40
0.2680070906020571
 40
0.3330995336455199
 40
0.3981534668868902
 40
0.4635065079317512
 40
0.5292758489957041
 40
0.5943682920391693
 40
0.6567224786335996
 40
0.7171285152378863
 40
0.7753803975023783
 40
0.832477072732703
 40
0.8888391172317561
 40
0.9444832685131862
 40
1.0
 40
1.0
 40
1.0
 40
1.0
 10
14.19237253289532
 20
9.355171485679543
 30
0.0
 10
14.19764850908721
 20
9.369962788366221
 30
0.0
 10
14.20810634255556
 20
9.399281529515013
 30
0.0
 10
14.22763295733224
 20
9.441267772511809
 30
0.0
 10
14.24893045386436
 20
9.481523230918818
 30
0.0
 10
14.27332524054199
 20
9.519350581916397
 30
0.0
 10
14.3000388896699
 20
9.555199701616422
 30
0.0
 10
14.32931128580466
 20
9.588964054270491
 30
0.0
 10
14.3609814400395
 20
9.620712905476893
 30
0.0
 10
14.39502720031211
 20
9.649909616478793
 30
0.0
 10
14.43037498277896
 20
9.676381356877497
 30
0.0
 10
14.46650673389902
 20
9.699574675622966
 30
0.0
 10
14.50283695250533
 20
9.71940062204226
 30
0.0
 10
14.53975477208513
 20
9.735292325632587
 30
0.0
 10
14.57696619414144
 20
9.74779927733009
 30
0.0
 10
14.61453457879597
 20
9.756968141997653
 30
0.0
 10
14.65251464425731
 20
9.762252484599538
 30
0.0
 10
14.67790383671707
 20
9.763000854596221
 30
0.0
 10
14.69058388157956
 20
9.763374610679513
 30
0.0
  0
SPLINE
  5
DB
330
1F
100
AcDbEntity
  8
0
  6
Continuous
 62
     7
370
    15
100
AcDbSpline
210
0.0
220
0.0
230
1.0
 70
     8
 71
     3
 72
    23
 73
    19
 74
     0
 42
0.000000001
 43
0.00000001
 40
0.0
 40
0.0
 40
0.0
 40
0.0
 40
0.0697889007997346
 40
0.1345140483409673
 40
0.194486498232511
 40
0.2504512258621839
 40
0.303740446097594
 40
0.3553765038778071
 40
0.4067318610282078
 40
0.4590845628417183
 40
0.5130818720815592
 40
0.5690121510425882
 40
0.6285221921442767
 40
0.6918742011713365
 40
0.7602025615247309
 40
0.8340612791250651
 40
0.913668687846979
 40
1.0
 40
1.0
 40
1.0
 40
1.0
 10
14.40766858552687
 20
8.952848294890055
 30
0.0
 10
14.39453526121916
 20
8.95311239278212
 30
0.0
 10
14.3692215422673
 20
8.953621426112827
 30
0.0
 10
14.33288847763065
 20
8.958604897104943
 30
0.0
 10
14.29985558173179
 20
8.966890855934631
 30
0.0
 10
14.2701099768264
 20
8.978468643277528
 30
0.0
 10
14.24352875897655
 20
8.993159457125168
 30
0.0
 10
14.22032630258563
 20
9.011456613527784
 30
0.0
 10
14.20076102205111
 20
9.033307219506298
 30
0.0
 10
14.18419716356346
 20
9.058078290607291
 30
0.0
 10
14.17197490526707
 20
9.086180142281137
 30
0.0
 10
14.16289875999468
 20
9.116837417428068
 30
0.0
 10
14.15851383242298
 20
9.150282456710116
 30
0.0
 10
14.15727548359223
 20
9.186286567220996
 30
0.0
 10
14.16059608015023
 20
9.224874095559885
 30
0.0
 10
14.16708900419456
 20
9.266119815392686
 30
0.0
 10
14.17798914435104
 20
9.309946688062062
 30
0.0
 10
14.18745028037356
 20
9.339694751985457
 30
0.0
 10
14.19237253289532
 20
9.355171485679543
 30
0.0
  0
SPLINE
  5
DC
330
1F
100
AcDbEntity
  8
0
  6
Continuous
 62
     7
370
    15
100
AcDbSpline
210
0.0
220
0.0
230
1.0
 70
     8
 71
     3
 72
    15
 73
    11
 74
     0
 42
0.000000001
 43
0.00000001
 40
0.0
 40
0.0
 40
0.0
 40
0.0
 40
0.1190604245447298
 40
0.2388721120734589
 40
0.3597907685530173
 40
0.48218894703265
 40
0.606916562074235
 40
0.7348087862435819
 40
0.8654068953596752
 40
1.0
 40
1.0
 40
1.0
 40
1.0
 10
14.70279605263214
 20
9.026121321205826
 30
0.0
 10
14.69209710326671
 20
9.020234011795262
 30
0.0
 10
14.67063169491073
 20
9.008422244461917
 30
0.0
 10
14.63682834109877
 20
8.993507694012433
 30
0.0
 10
14.60166107916837
 20
8.98122102558437
 30
0.0
 10
14.56541782153825
 20
8.970595797145796
 30
0.0
 10
14.52771451388306
 20
8.96288400136128
 30
0.0
 10
14.48886577320904
 20
8.956883984599207
 30
0.0
 10
14.44866268204772
 20
8.953493722227858
 30
0.0
 10
14.42146983402204
 20
8.953065587227993
 30
0.0
 10
14.40766858552687
 20
8.952848294890055
 30
0.0
  0
LINE
  5
DD
330
1F
100
AcDbEntity
  8
0
  6
Continuous
 62
     7
370
    15
100
AcDbLine
 10
14.7419202303
 20
9.1410061896
 30
0.0
 11
14.7027960526
 21
9.0261213212
 31
0.0
  0
SPLINE
  5
DE
330
1F
100
AcDbEntity
  8
0
  6
Continuous
 62
     7
370
    15
100
AcDbSpline
210
0.0
220
0.0
230
1.0
 70
     8
 71
     3
 72
    15
 73
    11
 74
     0
 42
0.000000001
 43
0.00000001
 40
0.0
 40
0.0
 40
0.0
 40
0.0
 40
0.1144729971740711
 40
0.230508847181755
 40
0.3488515980895376
 40
0.4702028720765199
 40
0.5959555263933652
 40
0.7252215006914314
 40
0.8599829672351188
 40
1.0
 40
1.0
 40
1.0
 40
1.0
 10
14.47257401315846
 20
9.054164084363736
 30
0.0
 10
14.48351704342099
 20
9.054428337381886
 30
0.0
 10
14.50555250464556
 20
9.054960451156152
 30
0.0
 10
14.53867295296855
 20
9.059227662079325
 30
0.0
 10
14.57201367367917
 20
9.066008087555563
 30
0.0
 10
14.60561830878938
 20
9.075635119272333
 30
0.0
 10
14.63950176706259
 20
9.087794661307823
 30
0.0
 10
14.67356106470027
 20
9.102937121227964
 30
0.0
 10
14.70799352427885
 20
9.120479677087966
 30
0.0
 10
14.7304680415679
 20
9.13407732671376
 30
0.0
 10
14.74192023026373
 20
9.141006189626877
 30
0.0
  0
SPLINE
  5
DF
330
1F
100
AcDbEntity
  8
0
  6
Continuous
 62
     7
370
    15
100
AcDbSpline
210
0.0
220
0.0
230
1.0
 70
     8
 71
     3
 72
    23
 73
    19
 74
     0
 42
0.000000001
 43
0.00000001
 40
0.0
 40
0.0
 40
0.0
 40
0.0
 40
0.0846425260927349
 40
0.1632563783446054
 40
0.236190053360488
 40
0.3038206846153579
 40
0.3662882096314805
 40
0.4248680187404809
 40
0.4805762740461477
 40
0.5340390837986948
 40
0.5862712479371082
 40
0.6381478146865138
 40
0.6901239372627322
 40
0.7446491895087358
 40
0.8012925361261014
 40
0.8625034097980818
 40
0.9289072997462801
 40
1.0
 40
1.0
 40
1.0
 40
1.0
 10
14.31381578947427
 20
9.329164084363747
 30
0.0
 10
14.31065806201357
 20
9.318572281541787
 30
0.0
 10
14.30456751660064
 20
9.298143078295192
 30
0.0
 10
14.29805493118842
 20
9.26798486117982
 30
0.0
 10
14.29369389416909
 20
9.23967120824131
 30
0.0
 10
14.29261701819445
 20
9.213140509761521
 30
0.0
 10
14.29387154139607
 20
9.188507859203272
 30
0.0
 10
14.2976204419307
 20
9.165680435389557
 30
0.0
 10
14.30413941998419
 20
9.144691666901231
 30
0.0
 10
14.31349509166096
 20
9.125711539108828
 30
0.0
 10
14.32539938351405
 20
9.108855619483757
 30
0.0
 10
14.33942828733433
 20
9.093953194249368
 30
0.0
 10
14.35613155852194
 20
9.08162076964047
 30
0.0
 10
14.37490282030075
 20
9.071409967701252
 30
0.0
 10
14.39613876432051
 20
9.063763511412139
 30
0.0
 10
14.41955881222877
 20
9.0581266926662
 30
0.0
 10
14.4453392467611
 20
9.054765538141918
 30
0.0
 10
14.463291690563
 20
9.054369075583924
 30
0.0
 10
14.47257401315846
 20
9.054164084363736
 30
0.0
  0
LINE
  5
E0
330
1F
100
AcDbEntity
  8
0
  6
Continuous
 62
     7
370
    15
100
AcDbLine
 10
14.8638157895
 20
9.3291640844
 30
0.0
 11
14.3138157895
 21
9.3291640844
 31
0.0
  0
ENDSEC
  0
SECTION
  2
OBJECTS
  0
DICTIONARY
  5
C
330
0
100
AcDbDictionary
281
     1
  3
ACAD_GROUP
350
D
  3
ACAD_LAYOUT
350
1A
  3
ACAD_MLINESTYLE
350
17
  3
ACAD_PLOTSETTINGS
350
19
  3
ACAD_PLOTSTYLENAME
350
E
  3
ACAD_SCALELIST
350
47
  0
DICTIONARY
  5
D
102
{ACAD_REACTORS
330
C
102
}
330
C
100
AcDbDictionary
281
     1
  0
DICTIONARY
  5
1A
102
{ACAD_REACTORS
330
C
102
}
330
C
100
AcDbDictionary
281
     1
  3
Layout1
350
1E
  3
Layout2
350
26
  3
Model
350
22
  0
DICTIONARY
  5
17
102
{ACAD_REACTORS
330
C
102
}
330
C
100
AcDbDictionary
281
     1
  3
Standard
350
18
  0
DICTIONARY
  5
19
102
{ACAD_REACTORS
330
C
102
}
330
C
100
AcDbDictionary
281
     1
  0
ACDBDICTIONARYWDFLT
  5
E
102
{ACAD_REACTORS
330
C
102
}
330
C
100
AcDbDictionary
281
     1
  3
Normal
350
F
100
AcDbDictionaryWithDefault
340
F
  0
DICTIONARY
  5
47
102
{ACAD_REACTORS
330
C
102
}
330
C
100
AcDbDictionary
281
     1
  3
A0
350
48
  3
A1
350
49
  3
A2
350
4A
  3
A3
350
4B
  3
A4
350
4C
  3
A5
350
4D
  3
A6
350
4E
  3
A7
350
4F
  3
A8
350
50
  3
A9
350
51
  3
B0
350
52
  3
B1
350
53
  3
B2
350
54
  3
B3
350
55
  3
B4
350
56
  3
B5
350
57
  3
B6
350
58
  3
B7
350
59
  3
B8
350
5A
  3
B9
350
5B
  3
C0
350
5C
  3
C1
350
5D
  3
C2
350
5E
  3
C3
350
5F
  3
C4
350
60
  3
C5
350
61
  3
C6
350
62
  3
C7
350
63
  3
C8
350
64
  3
C9
350
65
  3
D0
350
66
  3
D1
350
67
  3
D2
350
68
  0
LAYOUT
  5
1E
102
{ACAD_REACTORS
330
1A
102
}
330
1A
100
AcDbPlotSettings
  1

  2
none_device
  4

  6

 40
0.0
 41
0.0
 42
0.0
 43
0.0
 44
0.0
 45
0.0
 46
0.0
 47
0.0
 48
0.0
 49
0.0
140
0.0
141
0.0
142
1.0
143
1.0
 70
   688
 72
     0
 73
     0
 74
     5
  7

 75
    16
147
1.0
148
0.0
149
0.0
100
AcDbLayout
  1
Layout1
 70
     1
 71
     1
 10
0.0
 20
0.0
 11
12.0
 21
9.0
 12
0.0
 22
0.0
 32
0.0
 14
1.0000000000E+20
 24
1.0000000000E+20
 34
1.0000000000E+20
 15
-1.0000000000E+20
 25
-1.0000000000E+20
 35
-1.0000000000E+20
146
0.0
 13
0.0
 23
0.0
 33
0.0
 16
1.0
 26
0.0
 36
0.0
 17
0.0
 27
1.0
 37
0.0
 76
     0
330
1B
  0
LAYOUT
  5
26
102
{ACAD_REACTORS
330
1A
102
}
330
1A
100
AcDbPlotSettings
  1

  2
none_device
  4

  6

 40
0.0
 41
0.0
 42
0.0
 43
0.0
 44
0.0
 45
0.0
 46
0.0
 47
0.0
 48
0.0
 49
0.0
140
0.0
141
0.0
142
1.0
143
1.0
 70
   688
 72
     0
 73
     0
 74
     5
  7

 75
    16
147
1.0
148
0.0
149
0.0
100
AcDbLayout
  1
Layout2
 70
     1
 71
     2
 10
0.0
 20
0.0
 11
0.0
 21
0.0
 12
0.0
 22
0.0
 32
0.0
 14
0.0
 24
0.0
 34
0.0
 15
0.0
 25
0.0
 35
0.0
146
0.0
 13
0.0
 23
0.0
 33
0.0
 16
1.0
 26
0.0
 36
0.0
 17
0.0
 27
1.0
 37
0.0
 76
     0
330
23
  0
LAYOUT
  5
22
102
{ACAD_REACTORS
330
1A
102
}
330
1A
100
AcDbPlotSettings
  1

  2
none_device
  4
ANSI_A_(11.00_x_8.50_Inches)
  6

 40
6.35
 41
19.05
 42
6.35000508
 43
19.05000254
 44
279.4
 45
215.9
 46
-241.6883480768
 47
-206.7381054065
 48
0.0
 49
0.0
140
0.0
141
0.0
142
1.2700435239
143
1.0
 70
  1696
 72
     0
 73
     0
 74
     0
  7

 75
     0
147
0.5913241897
148
-39.4088153714
149
0.0
100
AcDbLayout
  1
Model
 70
     1
 71
     0
 10
0.0
 20
0.0
 11
12.0
 21
9.0
 12
0.0
 22
0.0
 32
0.0
 14
7.3385588912
 24
8.218227936
 34
0.0
 15
15.9130681858
 25
10.1107430317
 35
0.0
146
0.0
 13
0.0
 23
0.0
 33
0.0
 16
1.0
 26
0.0
 36
0.0
 17
0.0
 27
1.0
 37
0.0
 76
     0
330
1F
331
29
  0
MLINESTYLE
  5
18
102
{ACAD_REACTORS
330
17
102
}
330
17
100
AcDbMlineStyle
  2
Standard
 70
     0
  3

 62
   256
 51
90.0
 52
90.0
 71
     2
 49
0.5
 62
   256
  6
BYLAYER
 49
-0.5
 62
   256
  6
BYLAYER
  0
ACDBPLACEHOLDER
  5
F
102
{ACAD_REACTORS
330
E
102
}
330
E
  0
SCALE
  5
48
102
{ACAD_REACTORS
330
47
102
}
330
47
100
AcDbScale
 70
     0
300
1:1
140
1.0
141
1.0
290
     1
  0
SCALE
  5
49
102
{ACAD_REACTORS
330
47
102
}
330
47
100
AcDbScale
 70
     0
300
1:2
140
1.0
141
2.0
290
     0
  0
SCALE
  5
4A
102
{ACAD_REACTORS
330
47
102
}
330
47
100
AcDbScale
 70
     0
300
1:4
140
1.0
141
4.0
290
     0
  0
SCALE
  5
4B
102
{ACAD_REACTORS
330
47
102
}
330
47
100
AcDbScale
 70
     0
300
1:5
140
1.0
141
5.0
290
     0
  0
SCALE
  5
4C
102
{ACAD_REACTORS
330
47
102
}
330
47
100
AcDbScale
 70
     0
300
1:8
140
1.0
141
8.0
290
     0
  0
SCALE
  5
4D
102
{ACAD_REACTORS
330
47
102
}
330
47
100
AcDbScale
 70
     0
300
1:10
140
1.0
141
10.0
290
     0
  0
SCALE
  5
4E
102
{ACAD_REACTORS
330
47
102
}
330
47
100
AcDbScale
 70
     0
300
1:16
140
1.0
141
16.0
290
     0
  0
SCALE
  5
4F
102
{ACAD_REACTORS
330
47
102
}
330
47
100
AcDbScale
 70
     0
300
1:20
140
1.0
141
20.0
290
     0
  0
SCALE
  5
50
102
{ACAD_REACTORS
330
47
102
}
330
47
100
AcDbScale
 70
     0
300
1:30
140
1.0
141
30.0
290
     0
  0
SCALE
  5
51
102
{ACAD_REACTORS
330
47
102
}
330
47
100
AcDbScale
 70
     0
300
1:40
140
1.0
141
40.0
290
     0
  0
SCALE
  5
52
102
{ACAD_REACTORS
330
47
102
}
330
47
100
AcDbScale
 70
     0
300
1:50
140
1.0
141
50.0
290
     0
  0
SCALE
  5
53
102
{ACAD_REACTORS
330
47
102
}
330
47
100
AcDbScale
 70
     0
300
1:100
140
1.0
141
100.0
290
     0
  0
SCALE
  5
54
102
{ACAD_REACTORS
330
47
102
}
330
47
100
AcDbScale
 70
     0
300
2:1
140
2.0
141
1.0
290
     0
  0
SCALE
  5
55
102
{ACAD_REACTORS
330
47
102
}
330
47
100
AcDbScale
 70
     0
300
4:1
140
4.0
141
1.0
290
     0
  0
SCALE
  5
56
102
{ACAD_REACTORS
330
47
102
}
330
47
100
AcDbScale
 70
     0
300
8:1
140
8.0
141
1.0
290
     0
  0
SCALE
  5
57
102
{ACAD_REACTORS
330
47
102
}
330
47
100
AcDbScale
 70
     0
300
10:1
140
10.0
141
1.0
290
     0
  0
SCALE
  5
58
102
{ACAD_REACTORS
330
47
102
}
330
47
100
AcDbScale
 70
     0
300
100:1
140
100.0
141
1.0
290
     0
  0
SCALE
  5
59
102
{ACAD_REACTORS
330
47
102
}
330
47
100
AcDbScale
 70
     0
300
1/128" = 1'-0"
140
0.0078125
141
12.0
290
     0
  0
SCALE
  5
5A
102
{ACAD_REACTORS
330
47
102
}
330
47
100
AcDbScale
 70
     0
300
1/64" = 1'-0"
140
0.015625
141
12.0
290
     0
  0
SCALE
  5
5B
102
{ACAD_REACTORS
330
47
102
}
330
47
100
AcDbScale
 70
     0
300
1/32" = 1'-0"
140
0.03125
141
12.0
290
     0
  0
SCALE
  5
5C
102
{ACAD_REACTORS
330
47
102
}
330
47
100
AcDbScale
 70
     0
300
1/16" = 1'-0"
140
0.0625
141
12.0
290
     0
  0
SCALE
  5
5D
102
{ACAD_REACTORS
330
47
102
}
330
47
100
AcDbScale
 70
     0
300
3/32" = 1'-0"
140
0.09375
141
12.0
290
     0
  0
SCALE
  5
5E
102
{ACAD_REACTORS
330
47
102
}
330
47
100
AcDbScale
 70
     0
300
1/8" = 1'-0"
140
0.125
141
12.0
290
     0
  0
SCALE
  5
5F
102
{ACAD_REACTORS
330
47
102
}
330
47
100
AcDbScale
 70
     0
300
3/16" = 1'-0"
140
0.1875
141
12.0
290
     0
  0
SCALE
  5
60
102
{ACAD_REACTORS
330
47
102
}
330
47
100
AcDbScale
 70
     0
300
1/4" = 1'-0"
140
0.25
141
12.0
290
     0
  0
SCALE
  5
61
102
{ACAD_REACTORS
330
47
102
}
330
47
100
AcDbScale
 70
     0
300
3/8" = 1'-0"
140
0.375
141
12.0
290
     0
  0
SCALE
  5
62
102
{ACAD_REACTORS
330
47
102
}
330
47
100
AcDbScale
 70
     0
300
1/2" = 1'-0"
140
0.5
141
12.0
290
     0
  0
SCALE
  5
63
102
{ACAD_REACTORS
330
47
102
}
330
47
100
AcDbScale
 70
     0
300
3/4" = 1'-0"
140
0.75
141
12.0
290
     0
  0
SCALE
  5
64
102
{ACAD_REACTORS
330
47
102
}
330
47
100
AcDbScale
 70
     0
300
1" = 1'-0"
140
1.0
141
12.0
290
     0
  0
SCALE
  5
65
102
{ACAD_REACTORS
330
47
102
}
330
47
100
AcDbScale
 70
     0
300
1-1/2" = 1'-0"
140
1.5
141
12.0
290
     0
  0
SCALE
  5
66
102
{ACAD_REACTORS
330
47
102
}
330
47
100
AcDbScale
 70
     0
300
3" = 1'-0"
140
3.0
141
12.0
290
     0
  0
SCALE
  5
67
102
{ACAD_REACTORS
330
47
102
}
330
47
100
AcDbScale
 70
     0
300
6" = 1'-0"
140
6.0
141
12.0
290
     0
  0
SCALE
  5
68
102
{ACAD_REACTORS
330
47
102
}
330
47
100
AcDbScale
 70
     0
300
1'-0" = 1'-0"
140
12.0
141
12.0
290
     0
  0
ENDSEC
  0
EOF
